<svg width="312" height="48" viewBox="0 0 312 48" fill="none" xmlns="http://www.w3.org/2000/svg">
<rect x="3.32295" y="5.3291" width="308.677" height="42.2521" rx="21.126" fill="#4247C6"/>
<rect x="1" y="1.85352" width="306.677" height="40.2521" rx="20.126" fill="white" stroke="#4247C6" stroke-width="2"/>
<path d="M66.0098 14.869L62.4998 24.559H69.6398L66.1298 14.869H66.0098ZM59.4698 32.959H56.4098L64.5098 11.479H67.6298L75.7298 32.959H72.6698L70.5998 27.139H61.5698L59.4698 32.959ZM81.3389 13.189C81.3389 13.729 81.1489 14.189 80.7689 14.569C80.3889 14.949 79.9289 15.139 79.3889 15.139C78.8489 15.139 78.3889 14.949 78.0089 14.569C77.6289 14.189 77.4389 13.729 77.4389 13.189C77.4389 12.649 77.6289 12.189 78.0089 11.809C78.3889 11.429 78.8489 11.239 79.3889 11.239C79.9289 11.239 80.3889 11.429 80.7689 11.809C81.1489 12.189 81.3389 12.649 81.3389 13.189ZM80.7689 18.259V32.959H78.0089V18.259H80.7689ZM90.8142 30.919C92.1742 30.919 93.2842 30.429 94.1442 29.449C95.0442 28.469 95.4942 27.189 95.4942 25.609C95.4942 24.069 95.0442 22.799 94.1442 21.799C93.2642 20.799 92.1542 20.299 90.8142 20.299C89.4942 20.299 88.3842 20.799 87.4842 21.799C86.5842 22.799 86.1342 24.069 86.1342 25.609C86.1342 27.169 86.5842 28.439 87.4842 29.419C88.3842 30.419 89.4942 30.919 90.8142 30.919ZM90.3642 33.439C88.4442 33.439 86.7942 32.679 85.4142 31.159C84.0542 29.619 83.3742 27.769 83.3742 25.609C83.3742 23.449 84.0542 21.599 85.4142 20.059C86.7942 18.539 88.4442 17.779 90.3642 17.779C91.4442 17.779 92.4242 18.009 93.3042 18.469C94.2042 18.929 94.8942 19.539 95.3742 20.299H95.4942L95.3742 18.259V11.479H98.1342V32.959H95.4942V30.919H95.3742C94.8942 31.679 94.2042 32.289 93.3042 32.749C92.4242 33.209 91.4442 33.439 90.3642 33.439ZM107.953 33.439C105.793 33.439 104.013 32.699 102.613 31.219C101.213 29.739 100.513 27.869 100.513 25.609C100.513 23.369 101.193 21.509 102.553 20.029C103.913 18.529 105.653 17.779 107.773 17.779C109.953 17.779 111.683 18.489 112.963 19.909C114.263 21.309 114.913 23.279 114.913 25.819L114.883 26.119H103.333C103.373 27.559 103.853 28.719 104.773 29.599C105.693 30.479 106.793 30.919 108.073 30.919C109.833 30.919 111.213 30.039 112.213 28.279L114.673 29.479C114.013 30.719 113.093 31.689 111.913 32.389C110.753 33.089 109.433 33.439 107.953 33.439ZM103.543 23.839H111.973C111.893 22.819 111.473 21.979 110.713 21.319C109.973 20.639 108.973 20.299 107.713 20.299C106.673 20.299 105.773 20.619 105.013 21.259C104.273 21.899 103.783 22.759 103.543 23.839ZM137.769 29.239L139.779 31.879L137.709 33.439L136.239 31.489C134.779 32.789 133.119 33.439 131.259 33.439C129.079 33.439 127.229 32.709 125.709 31.249C124.189 29.789 123.429 27.989 123.429 25.849C123.429 24.589 123.759 23.399 124.419 22.279C125.099 21.139 126.009 20.219 127.149 19.519C126.109 18.179 125.589 16.989 125.589 15.949C125.589 14.589 126.099 13.429 127.119 12.469C128.139 11.489 129.359 10.999 130.779 10.999C131.919 10.999 132.909 11.329 133.749 11.989C134.589 12.629 135.199 13.509 135.579 14.629L133.209 15.889C132.649 14.389 131.839 13.639 130.779 13.639C130.079 13.639 129.499 13.849 129.039 14.269C128.599 14.689 128.379 15.249 128.379 15.949C128.379 16.629 128.609 17.269 129.069 17.869L136.179 27.169L138.099 23.959L140.259 25.279L137.769 29.239ZM125.949 25.849C125.949 27.289 126.459 28.499 127.479 29.479C128.499 30.439 129.759 30.919 131.259 30.919C132.679 30.919 133.829 30.439 134.709 29.479L128.679 21.529C127.839 21.989 127.169 22.609 126.669 23.389C126.189 24.169 125.949 24.989 125.949 25.849ZM159.169 33.439C155.989 33.439 153.329 32.369 151.189 30.229C149.069 28.089 148.009 25.419 148.009 22.219C148.009 19.019 149.069 16.359 151.189 14.239C153.309 12.079 155.969 10.999 159.169 10.999C162.409 10.999 165.039 12.169 167.059 14.509L165.079 16.429C163.539 14.569 161.569 13.639 159.169 13.639C156.789 13.639 154.799 14.439 153.199 16.039C151.619 17.619 150.829 19.679 150.829 22.219C150.829 24.759 151.619 26.819 153.199 28.399C154.799 29.999 156.789 30.799 159.169 30.799C161.669 30.799 163.839 29.749 165.679 27.649L167.689 29.599C166.669 30.819 165.419 31.769 163.939 32.449C162.459 33.109 160.869 33.439 159.169 33.439ZM169.009 25.609C169.009 23.349 169.719 21.479 171.139 19.999C172.579 18.519 174.389 17.779 176.569 17.779C178.749 17.779 180.549 18.519 181.969 19.999C183.409 21.479 184.129 23.349 184.129 25.609C184.129 27.889 183.409 29.759 181.969 31.219C180.549 32.699 178.749 33.439 176.569 33.439C174.389 33.439 172.579 32.699 171.139 31.219C169.719 29.739 169.009 27.869 169.009 25.609ZM171.769 25.609C171.769 27.189 172.229 28.469 173.149 29.449C174.069 30.429 175.209 30.919 176.569 30.919C177.929 30.919 179.069 30.429 179.989 29.449C180.909 28.469 181.369 27.189 181.369 25.609C181.369 24.049 180.909 22.779 179.989 21.799C179.049 20.799 177.909 20.299 176.569 20.299C175.229 20.299 174.089 20.799 173.149 21.799C172.229 22.779 171.769 24.049 171.769 25.609ZM186.343 18.259H188.983V20.299H189.103C189.523 19.579 190.163 18.979 191.023 18.499C191.903 18.019 192.813 17.779 193.753 17.779C195.553 17.779 196.933 18.299 197.893 19.339C198.873 20.359 199.363 21.819 199.363 23.719V32.959H196.603V23.899C196.543 21.499 195.333 20.299 192.973 20.299C191.873 20.299 190.953 20.749 190.213 21.649C189.473 22.529 189.103 23.589 189.103 24.829V32.959H186.343V18.259ZM207.661 33.199C206.461 33.199 205.461 32.829 204.661 32.089C203.881 31.349 203.481 30.319 203.461 28.999V20.779H200.881V18.259H203.461V13.759H206.221V18.259H209.821V20.779H206.221V28.099C206.221 29.079 206.411 29.749 206.791 30.109C207.171 30.449 207.601 30.619 208.081 30.619C208.301 30.619 208.511 30.599 208.711 30.559C208.931 30.499 209.131 30.429 209.311 30.349L210.181 32.809C209.461 33.069 208.621 33.199 207.661 33.199ZM214.164 28.459C214.164 29.179 214.464 29.779 215.064 30.259C215.684 30.739 216.404 30.979 217.224 30.979C218.384 30.979 219.414 30.549 220.314 29.689C221.234 28.829 221.694 27.819 221.694 26.659C220.834 25.979 219.634 25.639 218.094 25.639C216.974 25.639 216.034 25.909 215.274 26.449C214.534 26.989 214.164 27.659 214.164 28.459ZM217.734 17.779C219.774 17.779 221.384 18.329 222.564 19.429C223.744 20.509 224.334 21.999 224.334 23.899V32.959H221.694V30.919H221.574C220.434 32.599 218.914 33.439 217.014 33.439C215.394 33.439 214.034 32.959 212.934 31.999C211.854 31.039 211.314 29.839 211.314 28.399C211.314 26.879 211.884 25.669 213.024 24.769C214.184 23.869 215.724 23.419 217.644 23.419C219.284 23.419 220.634 23.719 221.694 24.319V23.689C221.694 22.729 221.314 21.919 220.554 21.259C219.794 20.579 218.904 20.239 217.884 20.239C216.344 20.239 215.124 20.889 214.224 22.189L211.794 20.659C213.134 18.739 215.114 17.779 217.734 17.779ZM234.02 33.439C231.84 33.439 230.03 32.699 228.59 31.219C227.17 29.699 226.46 27.829 226.46 25.609C226.46 23.349 227.17 21.479 228.59 19.999C230.03 18.519 231.84 17.779 234.02 17.779C235.52 17.779 236.83 18.159 237.95 18.919C239.07 19.659 239.91 20.689 240.47 22.009L237.95 23.059C237.17 21.219 235.8 20.299 233.84 20.299C232.58 20.299 231.49 20.809 230.57 21.829C229.67 22.849 229.22 24.109 229.22 25.609C229.22 27.109 229.67 28.369 230.57 29.389C231.49 30.409 232.58 30.919 233.84 30.919C235.86 30.919 237.28 29.999 238.1 28.159L240.56 29.209C240.02 30.529 239.17 31.569 238.01 32.329C236.87 33.069 235.54 33.439 234.02 33.439ZM248.647 33.199C247.447 33.199 246.447 32.829 245.647 32.089C244.867 31.349 244.467 30.319 244.447 28.999V20.779H241.867V18.259H244.447V13.759H247.207V18.259H250.807V20.779H247.207V28.099C247.207 29.079 247.397 29.749 247.777 30.109C248.157 30.449 248.587 30.619 249.067 30.619C249.287 30.619 249.497 30.599 249.697 30.559C249.917 30.499 250.117 30.429 250.297 30.349L251.167 32.809C250.447 33.069 249.607 33.199 248.647 33.199Z" fill="#4247C6"/>
</svg>
