<svg id="Layer_1" data-name="Layer 1" xmlns="http://www.w3.org/2000/svg" viewBox="0 0 312 46.73"><defs><style>.cls-1{fill:#4247c6;}.cls-2{fill:#fff;stroke:#4247c6;stroke-width:2px;}</style></defs><path class="cls-1" d="M24.45,4.79H290.87A21.13,21.13,0,0,1,312,25.92h0A21.13,21.13,0,0,1,290.87,47H24.45A21.13,21.13,0,0,1,3.32,25.92h0A21.13,21.13,0,0,1,24.45,4.79Z" transform="translate(0 -0.31)"/><path class="cls-2" d="M21.13,1.31H287.55a20.13,20.13,0,0,1,20.13,20.13h0a20.13,20.13,0,0,1-20.13,20.13H21.13A20.13,20.13,0,0,1,1,21.44H1A20.13,20.13,0,0,1,21.13,1.31Z" transform="translate(0 -0.31)"/><path class="cls-1" d="M105,11.22l-3.51,9.69h7.14l-3.51-9.69ZM98.45,29.31H95.39l8.1-21.48h3.12l8.1,21.48h-3.06l-2.07-5.82h-9Zm32.09-2a4.3,4.3,0,0,0,3.33-1.5A5.41,5.41,0,0,0,135.22,22a5.48,5.48,0,0,0-1.35-3.81,4.48,4.48,0,0,0-6.69,0A5.56,5.56,0,0,0,125.86,22a5.6,5.6,0,0,0,1.32,3.84A4.38,4.38,0,0,0,130.54,27.27Zm.45,2.52a6.43,6.43,0,0,1-3-.69,5.19,5.19,0,0,1-2-1.83h-.12l.12,2v6.48h-2.76V14.61h2.64v2H126a5.19,5.19,0,0,1,2-1.83,6.43,6.43,0,0,1,3-.69,6.31,6.31,0,0,1,4.92,2.28A8,8,0,0,1,138,22a8,8,0,0,1-2.07,5.55A6.31,6.31,0,0,1,131,29.79Zm12.13-.48h-2.76V14.61H143V17h.12a3.93,3.93,0,0,1,1.71-2,4.8,4.8,0,0,1,2.58-.84,5.17,5.17,0,0,1,2,.36l-.84,2.67A4.57,4.57,0,0,0,147,17a3.62,3.62,0,0,0-2.73,1.26,4.24,4.24,0,0,0-1.14,2.94ZM149.51,22a7.78,7.78,0,0,1,2.13-5.61,7.26,7.26,0,0,1,5.43-2.22,7.16,7.16,0,0,1,5.4,2.22A7.72,7.72,0,0,1,164.63,22a7.65,7.65,0,0,1-2.16,5.61,7.16,7.16,0,0,1-5.4,2.22,7.26,7.26,0,0,1-5.43-2.22A7.78,7.78,0,0,1,149.51,22Zm2.76,0a5.38,5.38,0,0,0,1.38,3.84,4.71,4.71,0,0,0,6.84,0A5.38,5.38,0,0,0,161.87,22a5.34,5.34,0,0,0-1.38-3.81,4.65,4.65,0,0,0-6.84,0A5.34,5.34,0,0,0,152.27,22Zm21.92,5.31a4.3,4.3,0,0,0,3.33-1.5A5.41,5.41,0,0,0,178.87,22a5.48,5.48,0,0,0-1.35-3.81,4.48,4.48,0,0,0-6.69,0A5.56,5.56,0,0,0,169.51,22a5.6,5.6,0,0,0,1.32,3.84A4.38,4.38,0,0,0,174.19,27.27Zm.45,2.52a6.43,6.43,0,0,1-3-.69,5.19,5.19,0,0,1-2-1.83h-.12l.12,2v6.48h-2.76V14.61h2.64v2h.12a5.19,5.19,0,0,1,2-1.83,6.43,6.43,0,0,1,3-.69,6.31,6.31,0,0,1,4.92,2.28A8,8,0,0,1,181.63,22a8,8,0,0,1-2.07,5.55A6.31,6.31,0,0,1,174.64,29.79ZM183.32,22a7.78,7.78,0,0,1,2.13-5.61,7.26,7.26,0,0,1,5.43-2.22,7.16,7.16,0,0,1,5.4,2.22A7.72,7.72,0,0,1,198.44,22a7.65,7.65,0,0,1-2.16,5.61,7.16,7.16,0,0,1-5.4,2.22,7.26,7.26,0,0,1-5.43-2.22A7.78,7.78,0,0,1,183.32,22Zm2.76,0a5.38,5.38,0,0,0,1.38,3.84,4.71,4.71,0,0,0,6.84,0A5.38,5.38,0,0,0,195.68,22a5.34,5.34,0,0,0-1.38-3.81,4.65,4.65,0,0,0-6.84,0A5.34,5.34,0,0,0,186.08,22Zm26,3.27a4,4,0,0,1-1.68,3.24,6.64,6.64,0,0,1-4.23,1.32,6.78,6.78,0,0,1-3.9-1.14,6.45,6.45,0,0,1-2.4-3.06l2.46-1.05a4.71,4.71,0,0,0,1.56,2.07,4.21,4.21,0,0,0,4.47.15,1.62,1.62,0,0,0,.9-1.35q0-1.41-2.16-2.07l-2.52-.63q-4.29-1.08-4.29-4.14a3.8,3.8,0,0,1,1.62-3.21,6.84,6.84,0,0,1,4.2-1.23,6.72,6.72,0,0,1,3.51.93,5,5,0,0,1,2.22,2.49l-2.46,1A3,3,0,0,0,208,17.13a4.1,4.1,0,0,0-2.1-.54,3.62,3.62,0,0,0-2,.54,1.56,1.56,0,0,0-.84,1.32q0,1.26,2.37,1.8l2.22.57Q212.05,21.9,212.05,25.23Z" transform="translate(0 -0.31)"/></svg>