<svg width="528" height="97" viewBox="0 0 528 97" fill="none" xmlns="http://www.w3.org/2000/svg">
<path d="M40.6066 56.8913H25.1666L32.8466 31.8513L40.6066 56.8913ZM46.6866 76.5713H56.4466L37.8866 20.5713H28.1266L9.56664 76.5713H19.1666L22.7666 64.8913H43.0866L46.6866 76.5713ZM108.517 28.7313C116.357 28.7313 119.877 31.3713 119.877 37.6913C119.877 44.0113 116.357 46.6513 108.517 46.6513H98.1173V28.7313H108.517ZM120.197 76.5713H130.757L117.797 52.9713C124.197 51.0513 128.997 46.3313 128.997 37.6913C128.997 25.2113 119.557 20.5713 109.157 20.5713H88.9973V76.5713H98.1173V54.8113H108.837L120.197 76.5713ZM202.485 28.7313V20.5713H158.965V28.7313H176.165V76.5713H185.285V28.7313H202.485ZM235.132 76.5713H244.252V20.5713H235.132V76.5713ZM288.887 48.5713C288.887 34.8113 295.127 27.9313 305.127 27.9313C308.887 27.9313 312.327 28.5713 316.807 30.5713V22.1713C313.367 20.5713 309.527 19.6113 304.967 19.6113C290.407 19.6113 279.527 30.1713 279.527 48.5713C279.527 66.9713 290.007 77.5313 305.687 77.5313C310.487 77.5313 314.247 76.4913 317.607 74.9713V66.5713C313.207 68.4913 309.927 69.1313 306.247 69.1313C295.287 69.1313 288.887 62.2513 288.887 48.5713ZM352.038 76.5713H386.278V68.4113H361.158V20.5713H352.038V76.5713ZM419.866 76.5713H454.986V68.4113H428.986V52.1713H451.306V44.0113H428.986V28.7313H454.986V20.5713H419.866V76.5713ZM503.794 77.5313C516.754 77.5313 523.554 71.0513 523.554 60.8913C523.554 43.3713 496.914 45.6913 496.914 34.4913C496.914 30.6513 499.314 27.9313 505.874 27.9313C510.834 27.9313 516.034 29.2913 522.274 32.0913V23.2913C517.074 20.6513 511.474 19.6113 505.874 19.6113C494.674 19.6113 487.794 26.0113 487.794 35.0513C487.794 53.4513 514.434 50.4113 514.434 61.6113C514.434 66.2513 511.394 69.2113 503.794 69.2113C499.474 69.2113 493.874 68.1713 487.394 65.1313V73.9313C492.834 76.4913 498.914 77.5313 503.794 77.5313Z" fill="white"/>
<path d="M40.6066 56.8913V57.8913H41.9635L41.5618 56.5953L40.6066 56.8913ZM25.1666 56.8913L24.2106 56.5981L23.814 57.8913H25.1666V56.8913ZM32.8466 31.8513L33.8018 31.5553L32.8417 28.4571L31.8906 31.5581L32.8466 31.8513ZM46.6866 76.5713L45.731 76.8658L45.9484 77.5713H46.6866V76.5713ZM56.4466 76.5713V77.5713H57.8316L57.3959 76.2567L56.4466 76.5713ZM37.8866 20.5713L38.8359 20.2567L38.6087 19.5713H37.8866V20.5713ZM28.1266 20.5713V19.5713H27.4046L27.1774 20.2567L28.1266 20.5713ZM9.56664 76.5713L8.61742 76.2567L8.18172 77.5713H9.56664V76.5713ZM19.1666 76.5713V77.5713H19.9048L20.1223 76.8658L19.1666 76.5713ZM22.7666 64.8913V63.8913H22.0284L21.811 64.5967L22.7666 64.8913ZM43.0866 64.8913L44.0423 64.5967L43.8248 63.8913H43.0866V64.8913ZM40.6066 55.8913H25.1666V57.8913H40.6066V55.8913ZM26.1227 57.1845L33.8027 32.1445L31.8906 31.5581L24.2106 56.5981L26.1227 57.1845ZM31.8915 32.1473L39.6515 57.1873L41.5618 56.5953L33.8018 31.5553L31.8915 32.1473ZM46.6866 77.5713H56.4466V75.5713H46.6866V77.5713ZM57.3959 76.2567L38.8359 20.2567L36.9374 20.8859L55.4974 76.8859L57.3959 76.2567ZM37.8866 19.5713H28.1266V21.5713H37.8866V19.5713ZM27.1774 20.2567L8.61742 76.2567L10.5159 76.8859L29.0759 20.8859L27.1774 20.2567ZM9.56664 77.5713H19.1666V75.5713H9.56664V77.5713ZM20.1223 76.8658L23.7223 65.1858L21.811 64.5967L18.211 76.2767L20.1223 76.8658ZM22.7666 65.8913H43.0866V63.8913H22.7666V65.8913ZM42.131 65.1858L45.731 76.8658L47.6423 76.2767L44.0423 64.5967L42.131 65.1858ZM98.1173 46.6513H97.1173V47.6513H98.1173V46.6513ZM98.1173 28.7313V27.7313H97.1173V28.7313H98.1173ZM120.197 76.5713L119.311 77.0341L119.591 77.5713H120.197V76.5713ZM130.757 76.5713V77.5713H132.447L131.634 76.0899L130.757 76.5713ZM117.797 52.9713L117.51 52.0135L116.326 52.3688L116.921 53.4526L117.797 52.9713ZM88.9973 20.5713V19.5713H87.9973V20.5713H88.9973ZM88.9973 76.5713H87.9973V77.5713H88.9973V76.5713ZM98.1173 76.5713V77.5713H99.1173V76.5713H98.1173ZM98.1173 54.8113V53.8113H97.1173V54.8113H98.1173ZM108.837 54.8113L109.724 54.3485L109.443 53.8113H108.837V54.8113ZM108.517 29.7313C112.365 29.7313 114.928 30.3871 116.522 31.63C118.058 32.8271 118.877 34.7192 118.877 37.6913H120.877C120.877 34.3434 119.936 31.7555 117.752 30.0526C115.626 28.3955 112.51 27.7313 108.517 27.7313V29.7313ZM118.877 37.6913C118.877 40.6634 118.058 42.5555 116.522 43.7526C114.928 44.9955 112.365 45.6513 108.517 45.6513V47.6513C112.51 47.6513 115.626 46.9871 117.752 45.33C119.936 43.6271 120.877 41.0392 120.877 37.6913H118.877ZM108.517 45.6513H98.1173V47.6513H108.517V45.6513ZM99.1173 46.6513V28.7313H97.1173V46.6513H99.1173ZM98.1173 29.7313H108.517V27.7313H98.1173V29.7313ZM120.197 77.5713H130.757V75.5713H120.197V77.5713ZM131.634 76.0899L118.674 52.4899L116.921 53.4526L129.881 77.0526L131.634 76.0899ZM118.085 53.9291C121.432 52.9248 124.424 51.1688 126.578 48.476C128.739 45.7748 129.997 42.2058 129.997 37.6913H127.997C127.997 41.8167 126.855 44.9277 125.016 47.2266C123.171 49.5338 120.562 51.0978 117.51 52.0135L118.085 53.9291ZM129.997 37.6913C129.997 31.165 127.511 26.5745 123.574 23.6487C119.682 20.7566 114.485 19.5713 109.157 19.5713V21.5713C114.23 21.5713 118.952 22.7059 122.381 25.2539C125.764 27.7681 127.997 31.7376 127.997 37.6913H129.997ZM109.157 19.5713H88.9973V21.5713H109.157V19.5713ZM87.9973 20.5713V76.5713H89.9973V20.5713H87.9973ZM88.9973 77.5713H98.1173V75.5713H88.9973V77.5713ZM99.1173 76.5713V54.8113H97.1173V76.5713H99.1173ZM98.1173 55.8113H108.837V53.8113H98.1173V55.8113ZM107.951 55.2741L119.311 77.0341L121.084 76.1085L109.724 54.3485L107.951 55.2741ZM202.485 28.7313V29.7313H203.485V28.7313H202.485ZM202.485 20.5713H203.485V19.5713H202.485V20.5713ZM158.965 20.5713V19.5713H157.965V20.5713H158.965ZM158.965 28.7313H157.965V29.7313H158.965V28.7313ZM176.165 28.7313H177.165V27.7313H176.165V28.7313ZM176.165 76.5713H175.165V77.5713H176.165V76.5713ZM185.285 76.5713V77.5713H186.285V76.5713H185.285ZM185.285 28.7313V27.7313H184.285V28.7313H185.285ZM203.485 28.7313V20.5713H201.485V28.7313H203.485ZM202.485 19.5713H158.965V21.5713H202.485V19.5713ZM157.965 20.5713V28.7313H159.965V20.5713H157.965ZM158.965 29.7313H176.165V27.7313H158.965V29.7313ZM175.165 28.7313V76.5713H177.165V28.7313H175.165ZM176.165 77.5713H185.285V75.5713H176.165V77.5713ZM186.285 76.5713V28.7313H184.285V76.5713H186.285ZM185.285 29.7313H202.485V27.7313H185.285V29.7313ZM235.132 76.5713H234.132V77.5713H235.132V76.5713ZM244.252 76.5713V77.5713H245.252V76.5713H244.252ZM244.252 20.5713H245.252V19.5713H244.252V20.5713ZM235.132 20.5713V19.5713H234.132V20.5713H235.132ZM235.132 77.5713H244.252V75.5713H235.132V77.5713ZM245.252 76.5713V20.5713H243.252V76.5713H245.252ZM244.252 19.5713H235.132V21.5713H244.252V19.5713ZM234.132 20.5713V76.5713H236.132V20.5713H234.132ZM316.807 30.5713L316.4 31.4844L317.807 32.1128V30.5713H316.807ZM316.807 22.1713H317.807V21.5335L317.229 21.2646L316.807 22.1713ZM317.607 74.9713L318.019 75.8824L318.607 75.6165V74.9713H317.607ZM317.607 66.5713H318.607V65.0439L317.207 65.6547L317.607 66.5713ZM289.887 48.5713C289.887 41.8254 291.419 36.9227 294.032 33.7239C296.62 30.5552 300.374 28.9313 305.127 28.9313V26.9313C299.881 26.9313 295.514 28.7474 292.483 32.4587C289.476 36.1399 287.887 41.5572 287.887 48.5713H289.887ZM305.127 28.9313C308.742 28.9313 312.043 29.5396 316.4 31.4844L317.215 29.6581C312.611 27.6029 309.033 26.9313 305.127 26.9313V28.9313ZM317.807 30.5713V22.1713H315.807V30.5713H317.807ZM317.229 21.2646C313.661 19.6049 309.677 18.6113 304.967 18.6113V20.6113C309.377 20.6113 313.074 21.5376 316.386 23.078L317.229 21.2646ZM304.967 18.6113C297.436 18.6113 290.799 21.3485 286.051 26.5146C281.308 31.6754 278.527 39.1747 278.527 48.5713H280.527C280.527 39.5679 283.186 32.5872 287.524 27.868C291.856 23.1541 297.939 20.6113 304.967 20.6113V18.6113ZM278.527 48.5713C278.527 57.9581 281.203 65.4633 285.994 70.6312C290.792 75.8066 297.615 78.5313 305.687 78.5313V76.5313C298.08 76.5313 291.822 73.976 287.461 69.2714C283.092 64.5592 280.527 57.5845 280.527 48.5713H278.527ZM305.687 78.5313C310.647 78.5313 314.547 77.4533 318.019 75.8824L317.195 74.0602C313.948 75.5293 310.328 76.5313 305.687 76.5313V78.5313ZM318.607 74.9713V66.5713H316.607V74.9713H318.607ZM317.207 65.6547C312.921 67.525 309.777 68.1313 306.247 68.1313V70.1313C310.078 70.1313 313.493 69.4576 318.007 67.4878L317.207 65.6547ZM306.247 68.1313C300.985 68.1313 296.95 66.4878 294.213 63.3267C291.456 60.1424 289.887 55.2716 289.887 48.5713H287.887C287.887 55.551 289.519 60.9602 292.701 64.6359C295.904 68.3348 300.55 70.1313 306.247 70.1313V68.1313ZM352.038 76.5713H351.038V77.5713H352.038V76.5713ZM386.278 76.5713V77.5713H387.278V76.5713H386.278ZM386.278 68.4113H387.278V67.4113H386.278V68.4113ZM361.158 68.4113H360.158V69.4113H361.158V68.4113ZM361.158 20.5713H362.158V19.5713H361.158V20.5713ZM352.038 20.5713V19.5713H351.038V20.5713H352.038ZM352.038 77.5713H386.278V75.5713H352.038V77.5713ZM387.278 76.5713V68.4113H385.278V76.5713H387.278ZM386.278 67.4113H361.158V69.4113H386.278V67.4113ZM362.158 68.4113V20.5713H360.158V68.4113H362.158ZM361.158 19.5713H352.038V21.5713H361.158V19.5713ZM351.038 20.5713V76.5713H353.038V20.5713H351.038ZM419.866 76.5713H418.866V77.5713H419.866V76.5713ZM454.986 76.5713V77.5713H455.986V76.5713H454.986ZM454.986 68.4113H455.986V67.4113H454.986V68.4113ZM428.986 68.4113H427.986V69.4113H428.986V68.4113ZM428.986 52.1713V51.1713H427.986V52.1713H428.986ZM451.306 52.1713V53.1713H452.306V52.1713H451.306ZM451.306 44.0113H452.306V43.0113H451.306V44.0113ZM428.986 44.0113H427.986V45.0113H428.986V44.0113ZM428.986 28.7313V27.7313H427.986V28.7313H428.986ZM454.986 28.7313V29.7313H455.986V28.7313H454.986ZM454.986 20.5713H455.986V19.5713H454.986V20.5713ZM419.866 20.5713V19.5713H418.866V20.5713H419.866ZM419.866 77.5713H454.986V75.5713H419.866V77.5713ZM455.986 76.5713V68.4113H453.986V76.5713H455.986ZM454.986 67.4113H428.986V69.4113H454.986V67.4113ZM429.986 68.4113V52.1713H427.986V68.4113H429.986ZM428.986 53.1713H451.306V51.1713H428.986V53.1713ZM452.306 52.1713V44.0113H450.306V52.1713H452.306ZM451.306 43.0113H428.986V45.0113H451.306V43.0113ZM429.986 44.0113V28.7313H427.986V44.0113H429.986ZM428.986 29.7313H454.986V27.7313H428.986V29.7313ZM455.986 28.7313V20.5713H453.986V28.7313H455.986ZM454.986 19.5713H419.866V21.5713H454.986V19.5713ZM418.866 20.5713V76.5713H420.866V20.5713H418.866ZM522.274 32.0913L521.865 33.0036L523.274 33.6361V32.0913H522.274ZM522.274 23.2913H523.274V22.6775L522.727 22.3996L522.274 23.2913ZM487.394 65.1313L487.819 64.226L486.394 63.5576V65.1313H487.394ZM487.394 73.9313H486.394V74.5659L486.968 74.8361L487.394 73.9313ZM503.794 78.5313C510.43 78.5313 515.633 76.8726 519.191 73.7756C522.767 70.6624 524.554 66.2057 524.554 60.8913H522.554C522.554 65.7369 520.941 69.6002 517.878 72.267C514.795 74.95 510.119 76.5313 503.794 76.5313V78.5313ZM524.554 60.8913C524.554 56.2143 522.76 52.8225 520.088 50.2321C517.455 47.6799 513.984 45.9186 510.646 44.41C507.239 42.8703 504.035 41.6155 501.623 40.0403C499.25 38.4898 497.914 36.7997 497.914 34.4913H495.914C495.914 37.7829 497.909 40.0028 500.53 41.7148C503.113 43.4021 506.569 44.7623 509.822 46.2325C513.144 47.734 516.333 49.3777 518.696 51.668C521.019 53.9201 522.554 56.8083 522.554 60.8913H524.554ZM497.914 34.4913C497.914 32.7903 498.436 31.4698 499.567 30.5457C500.735 29.5913 502.708 28.9313 505.874 28.9313V26.9313C502.48 26.9313 499.973 27.6312 498.301 28.9968C496.593 30.3928 495.914 32.3522 495.914 34.4913H497.914ZM505.874 28.9313C510.644 28.9313 515.7 30.2375 521.865 33.0036L522.684 31.1789C516.368 28.3451 511.024 26.9313 505.874 26.9313V28.9313ZM523.274 32.0913V23.2913H521.274V32.0913H523.274ZM522.727 22.3996C517.359 19.6745 511.598 18.6113 505.874 18.6113V20.6113C511.351 20.6113 516.789 21.6281 521.821 24.183L522.727 22.3996ZM505.874 18.6113C500.087 18.6113 495.316 20.2661 491.976 23.1887C488.625 26.1209 486.794 30.2622 486.794 35.0513H488.794C488.794 30.8004 490.404 27.2216 493.293 24.6939C496.193 22.1565 500.461 20.6113 505.874 20.6113V18.6113ZM486.794 35.0513C486.794 39.9324 488.576 43.444 491.252 46.0987C493.89 48.7148 497.367 50.4703 500.71 51.9461C504.126 53.4541 507.323 54.6444 509.738 56.1693C512.107 57.6659 513.434 59.31 513.434 61.6113H515.434C515.434 58.3126 513.431 56.1367 510.806 54.4783C508.225 52.8482 504.762 51.5484 501.518 50.1165C498.201 48.6523 495.019 47.0177 492.661 44.6788C490.342 42.3786 488.794 39.3701 488.794 35.0513H486.794ZM513.434 61.6113C513.434 63.6947 512.765 65.2698 511.353 66.3597C509.893 67.4867 507.491 68.2113 503.794 68.2113V70.2113C507.697 70.2113 510.615 69.4559 512.575 67.9429C514.583 66.3928 515.434 64.1678 515.434 61.6113H513.434ZM503.794 68.2113C499.633 68.2113 494.178 67.2091 487.819 64.226L486.969 66.0366C493.571 69.1334 499.315 70.2113 503.794 70.2113V68.2113ZM486.394 65.1313V73.9313H488.394V65.1313H486.394ZM486.968 74.8361C492.561 77.468 498.79 78.5313 503.794 78.5313V76.5313C499.038 76.5313 493.107 75.5146 487.82 73.0265L486.968 74.8361Z" fill="black"/>
<path d="M32.8 56.8913H17.36L25.04 31.8513L32.8 56.8913ZM38.88 76.5713H48.64L30.08 20.5713H20.32L1.76 76.5713H11.36L14.96 64.8913H35.28L38.88 76.5713ZM100.711 28.7313C108.551 28.7313 112.071 31.3713 112.071 37.6913C112.071 44.0113 108.551 46.6513 100.711 46.6513H90.3106V28.7313H100.711ZM112.391 76.5713H122.951L109.991 52.9713C116.391 51.0513 121.191 46.3313 121.191 37.6913C121.191 25.2113 111.751 20.5713 101.351 20.5713H81.1906V76.5713H90.3106V54.8113H101.031L112.391 76.5713ZM194.679 28.7313V20.5713H151.159V28.7313H168.359V76.5713H177.479V28.7313H194.679ZM227.325 76.5713H236.445V20.5713H227.325V76.5713ZM281.081 48.5713C281.081 34.8113 287.321 27.9313 297.321 27.9313C301.081 27.9313 304.521 28.5713 309.001 30.5713V22.1713C305.561 20.5713 301.721 19.6113 297.161 19.6113C282.601 19.6113 271.721 30.1713 271.721 48.5713C271.721 66.9713 282.201 77.5313 297.881 77.5313C302.681 77.5313 306.441 76.4913 309.801 74.9713V66.5713C305.401 68.4913 302.121 69.1313 298.441 69.1313C287.481 69.1313 281.081 62.2513 281.081 48.5713ZM344.231 76.5713H378.471V68.4113H353.351V20.5713H344.231V76.5713ZM412.059 76.5713H447.179V68.4113H421.179V52.1713H443.499V44.0113H421.179V28.7313H447.179V20.5713H412.059V76.5713ZM495.988 77.5313C508.948 77.5313 515.748 71.0513 515.748 60.8913C515.748 43.3713 489.108 45.6913 489.108 34.4913C489.108 30.6513 491.508 27.9313 498.068 27.9313C503.028 27.9313 508.228 29.2913 514.468 32.0913V23.2913C509.268 20.6513 503.668 19.6113 498.068 19.6113C486.868 19.6113 479.988 26.0113 479.988 35.0513C479.988 53.4513 506.628 50.4113 506.628 61.6113C506.628 66.2513 503.588 69.2113 495.988 69.2113C491.668 69.2113 486.068 68.1713 479.588 65.1313V73.9313C485.028 76.4913 491.108 77.5313 495.988 77.5313Z" fill="#4247C6"/>
<path d="M32.8 56.8913V57.8913H34.1568L33.7552 56.5953L32.8 56.8913ZM17.36 56.8913L16.404 56.5981L16.0073 57.8913H17.36V56.8913ZM25.04 31.8513L25.9952 31.5553L25.0351 28.4571L24.084 31.5581L25.04 31.8513ZM38.88 76.5713L37.9244 76.8658L38.1418 77.5713H38.88V76.5713ZM48.64 76.5713V77.5713H50.0249L49.5892 76.2567L48.64 76.5713ZM30.08 20.5713L31.0292 20.2567L30.8021 19.5713H30.08V20.5713ZM20.32 20.5713V19.5713H19.5979L19.3708 20.2567L20.32 20.5713ZM1.76 76.5713L0.810776 76.2567L0.37508 77.5713H1.76V76.5713ZM11.36 76.5713V77.5713H12.0982L12.3156 76.8658L11.36 76.5713ZM14.96 64.8913V63.8913H14.2218L14.0044 64.5967L14.96 64.8913ZM35.28 64.8913L36.2356 64.5967L36.0182 63.8913H35.28V64.8913ZM32.8 55.8913H17.36V57.8913H32.8V55.8913ZM18.316 57.1845L25.996 32.1445L24.084 31.5581L16.404 56.5981L18.316 57.1845ZM24.0848 32.1473L31.8448 57.1873L33.7552 56.5953L25.9952 31.5553L24.0848 32.1473ZM38.88 77.5713H48.64V75.5713H38.88V77.5713ZM49.5892 76.2567L31.0292 20.2567L29.1308 20.8859L47.6908 76.8859L49.5892 76.2567ZM30.08 19.5713H20.32V21.5713H30.08V19.5713ZM19.3708 20.2567L0.810776 76.2567L2.70922 76.8859L21.2692 20.8859L19.3708 20.2567ZM1.76 77.5713H11.36V75.5713H1.76V77.5713ZM12.3156 76.8658L15.9156 65.1858L14.0044 64.5967L10.4044 76.2767L12.3156 76.8658ZM14.96 65.8913H35.28V63.8913H14.96V65.8913ZM34.3244 65.1858L37.9244 76.8658L39.8356 76.2767L36.2356 64.5967L34.3244 65.1858ZM90.3106 46.6513H89.3106V47.6513H90.3106V46.6513ZM90.3106 28.7313V27.7313H89.3106V28.7313H90.3106ZM112.391 76.5713L111.504 77.0341L111.785 77.5713H112.391V76.5713ZM122.951 76.5713V77.5713H124.641L123.827 76.0899L122.951 76.5713ZM109.991 52.9713L109.703 52.0135L108.519 52.3688L109.114 53.4526L109.991 52.9713ZM81.1906 20.5713V19.5713H80.1906V20.5713H81.1906ZM81.1906 76.5713H80.1906V77.5713H81.1906V76.5713ZM90.3106 76.5713V77.5713H91.3106V76.5713H90.3106ZM90.3106 54.8113V53.8113H89.3106V54.8113H90.3106ZM101.031 54.8113L101.917 54.3485L101.637 53.8113H101.031V54.8113ZM100.711 29.7313C104.558 29.7313 107.122 30.3871 108.716 31.63C110.251 32.8271 111.071 34.7192 111.071 37.6913H113.071C113.071 34.3434 112.13 31.7555 109.945 30.0526C107.82 28.3955 104.703 27.7313 100.711 27.7313V29.7313ZM111.071 37.6913C111.071 40.6634 110.251 42.5555 108.716 43.7526C107.122 44.9955 104.558 45.6513 100.711 45.6513V47.6513C104.703 47.6513 107.82 46.9871 109.945 45.33C112.13 43.6271 113.071 41.0392 113.071 37.6913H111.071ZM100.711 45.6513H90.3106V47.6513H100.711V45.6513ZM91.3106 46.6513V28.7313H89.3106V46.6513H91.3106ZM90.3106 29.7313H100.711V27.7313H90.3106V29.7313ZM112.391 77.5713H122.951V75.5713H112.391V77.5713ZM123.827 76.0899L110.867 52.4899L109.114 53.4526L122.074 77.0526L123.827 76.0899ZM110.278 53.9291C113.626 52.9248 116.617 51.1688 118.771 48.476C120.932 45.7748 122.191 42.2058 122.191 37.6913H120.191C120.191 41.8167 119.049 44.9277 117.21 47.2266C115.364 49.5338 112.755 51.0978 109.703 52.0135L110.278 53.9291ZM122.191 37.6913C122.191 31.165 119.704 26.5745 115.767 23.6487C111.876 20.7566 106.678 19.5713 101.351 19.5713V21.5713C106.423 21.5713 111.146 22.7059 114.574 25.2539C117.957 27.7681 120.191 31.7376 120.191 37.6913H122.191ZM101.351 19.5713H81.1906V21.5713H101.351V19.5713ZM80.1906 20.5713V76.5713H82.1906V20.5713H80.1906ZM81.1906 77.5713H90.3106V75.5713H81.1906V77.5713ZM91.3106 76.5713V54.8113H89.3106V76.5713H91.3106ZM90.3106 55.8113H101.031V53.8113H90.3106V55.8113ZM100.144 55.2741L111.504 77.0341L113.277 76.1085L101.917 54.3485L100.144 55.2741ZM194.679 28.7313V29.7313H195.679V28.7313H194.679ZM194.679 20.5713H195.679V19.5713H194.679V20.5713ZM151.159 20.5713V19.5713H150.159V20.5713H151.159ZM151.159 28.7313H150.159V29.7313H151.159V28.7313ZM168.359 28.7313H169.359V27.7313H168.359V28.7313ZM168.359 76.5713H167.359V77.5713H168.359V76.5713ZM177.479 76.5713V77.5713H178.479V76.5713H177.479ZM177.479 28.7313V27.7313H176.479V28.7313H177.479ZM195.679 28.7313V20.5713H193.679V28.7313H195.679ZM194.679 19.5713H151.159V21.5713H194.679V19.5713ZM150.159 20.5713V28.7313H152.159V20.5713H150.159ZM151.159 29.7313H168.359V27.7313H151.159V29.7313ZM167.359 28.7313V76.5713H169.359V28.7313H167.359ZM168.359 77.5713H177.479V75.5713H168.359V77.5713ZM178.479 76.5713V28.7313H176.479V76.5713H178.479ZM177.479 29.7313H194.679V27.7313H177.479V29.7313ZM227.325 76.5713H226.325V77.5713H227.325V76.5713ZM236.445 76.5713V77.5713H237.445V76.5713H236.445ZM236.445 20.5713H237.445V19.5713H236.445V20.5713ZM227.325 20.5713V19.5713H226.325V20.5713H227.325ZM227.325 77.5713H236.445V75.5713H227.325V77.5713ZM237.445 76.5713V20.5713H235.445V76.5713H237.445ZM236.445 19.5713H227.325V21.5713H236.445V19.5713ZM226.325 20.5713V76.5713H228.325V20.5713H226.325ZM309.001 30.5713L308.593 31.4844L310.001 32.1128V30.5713H309.001ZM309.001 22.1713H310.001V21.5335L309.422 21.2646L309.001 22.1713ZM309.801 74.9713L310.213 75.8824L310.801 75.6165V74.9713H309.801ZM309.801 66.5713H310.801V65.0439L309.401 65.6547L309.801 66.5713ZM282.081 48.5713C282.081 41.8254 283.612 36.9227 286.225 33.7239C288.813 30.5552 292.567 28.9313 297.321 28.9313V26.9313C292.074 26.9313 287.708 28.7474 284.676 32.4587C281.669 36.1399 280.081 41.5572 280.081 48.5713H282.081ZM297.321 28.9313C300.935 28.9313 304.237 29.5396 308.593 31.4844L309.408 29.6581C304.805 27.6029 301.226 26.9313 297.321 26.9313V28.9313ZM310.001 30.5713V22.1713H308.001V30.5713H310.001ZM309.422 21.2646C305.854 19.6049 301.871 18.6113 297.161 18.6113V20.6113C301.571 20.6113 305.267 21.5376 308.579 23.078L309.422 21.2646ZM297.161 18.6113C289.629 18.6113 282.992 21.3485 278.244 26.5146C273.501 31.6754 270.721 39.1747 270.721 48.5713H272.721C272.721 39.5679 275.38 32.5872 279.717 27.868C284.049 23.1541 290.132 20.6113 297.161 20.6113V18.6113ZM270.721 48.5713C270.721 57.9581 273.396 65.4633 278.187 70.6312C282.986 75.8066 289.808 78.5313 297.881 78.5313V76.5313C290.273 76.5313 284.016 73.976 279.654 69.2714C275.285 64.5592 272.721 57.5845 272.721 48.5713H270.721ZM297.881 78.5313C302.84 78.5313 306.74 77.4533 310.213 75.8824L309.388 74.0602C306.141 75.5293 302.521 76.5313 297.881 76.5313V78.5313ZM310.801 74.9713V66.5713H308.801V74.9713H310.801ZM309.401 65.6547C305.115 67.525 301.97 68.1313 298.441 68.1313V70.1313C302.271 70.1313 305.687 69.4576 310.201 67.4878L309.401 65.6547ZM298.441 68.1313C293.178 68.1313 289.144 66.4878 286.407 63.3267C283.649 60.1424 282.081 55.2716 282.081 48.5713H280.081C280.081 55.551 281.712 60.9602 284.895 64.6359C288.097 68.3348 292.743 70.1313 298.441 70.1313V68.1313ZM344.231 76.5713H343.231V77.5713H344.231V76.5713ZM378.471 76.5713V77.5713H379.471V76.5713H378.471ZM378.471 68.4113H379.471V67.4113H378.471V68.4113ZM353.351 68.4113H352.351V69.4113H353.351V68.4113ZM353.351 20.5713H354.351V19.5713H353.351V20.5713ZM344.231 20.5713V19.5713H343.231V20.5713H344.231ZM344.231 77.5713H378.471V75.5713H344.231V77.5713ZM379.471 76.5713V68.4113H377.471V76.5713H379.471ZM378.471 67.4113H353.351V69.4113H378.471V67.4113ZM354.351 68.4113V20.5713H352.351V68.4113H354.351ZM353.351 19.5713H344.231V21.5713H353.351V19.5713ZM343.231 20.5713V76.5713H345.231V20.5713H343.231ZM412.059 76.5713H411.059V77.5713H412.059V76.5713ZM447.179 76.5713V77.5713H448.179V76.5713H447.179ZM447.179 68.4113H448.179V67.4113H447.179V68.4113ZM421.179 68.4113H420.179V69.4113H421.179V68.4113ZM421.179 52.1713V51.1713H420.179V52.1713H421.179ZM443.499 52.1713V53.1713H444.499V52.1713H443.499ZM443.499 44.0113H444.499V43.0113H443.499V44.0113ZM421.179 44.0113H420.179V45.0113H421.179V44.0113ZM421.179 28.7313V27.7313H420.179V28.7313H421.179ZM447.179 28.7313V29.7313H448.179V28.7313H447.179ZM447.179 20.5713H448.179V19.5713H447.179V20.5713ZM412.059 20.5713V19.5713H411.059V20.5713H412.059ZM412.059 77.5713H447.179V75.5713H412.059V77.5713ZM448.179 76.5713V68.4113H446.179V76.5713H448.179ZM447.179 67.4113H421.179V69.4113H447.179V67.4113ZM422.179 68.4113V52.1713H420.179V68.4113H422.179ZM421.179 53.1713H443.499V51.1713H421.179V53.1713ZM444.499 52.1713V44.0113H442.499V52.1713H444.499ZM443.499 43.0113H421.179V45.0113H443.499V43.0113ZM422.179 44.0113V28.7313H420.179V44.0113H422.179ZM421.179 29.7313H447.179V27.7313H421.179V29.7313ZM448.179 28.7313V20.5713H446.179V28.7313H448.179ZM447.179 19.5713H412.059V21.5713H447.179V19.5713ZM411.059 20.5713V76.5713H413.059V20.5713H411.059ZM514.468 32.0913L514.058 33.0036L515.468 33.6361V32.0913H514.468ZM514.468 23.2913H515.468V22.6775L514.92 22.3996L514.468 23.2913ZM479.588 65.1313L480.012 64.226L478.588 63.5576V65.1313H479.588ZM479.588 73.9313H478.588V74.5659L479.162 74.8361L479.588 73.9313ZM495.988 78.5313C502.623 78.5313 507.826 76.8726 511.384 73.7756C514.96 70.6624 516.748 66.2057 516.748 60.8913H514.748C514.748 65.7369 513.135 69.6002 510.071 72.267C506.989 74.95 502.312 76.5313 495.988 76.5313V78.5313ZM516.748 60.8913C516.748 56.2143 514.953 52.8225 512.281 50.2321C509.649 47.6799 506.177 45.9186 502.839 44.41C499.432 42.8703 496.229 41.6155 493.817 40.0403C491.443 38.4898 490.108 36.7997 490.108 34.4913H488.108C488.108 37.7829 490.102 40.0028 492.723 41.7148C495.306 43.4021 498.763 44.7623 502.016 46.2325C505.338 47.734 508.526 49.3777 510.889 51.668C513.212 53.9201 514.748 56.8083 514.748 60.8913H516.748ZM490.108 34.4913C490.108 32.7903 490.629 31.4698 491.76 30.5457C492.928 29.5913 494.902 28.9313 498.068 28.9313V26.9313C494.673 26.9313 492.167 27.6312 490.495 28.9968C488.786 30.3928 488.108 32.3522 488.108 34.4913H490.108ZM498.068 28.9313C502.838 28.9313 507.893 30.2375 514.058 33.0036L514.877 31.1789C508.562 28.3451 503.217 26.9313 498.068 26.9313V28.9313ZM515.468 32.0913V23.2913H513.468V32.0913H515.468ZM514.92 22.3996C509.553 19.6745 503.791 18.6113 498.068 18.6113V20.6113C503.544 20.6113 508.982 21.6281 514.015 24.183L514.92 22.3996ZM498.068 18.6113C492.281 18.6113 487.509 20.2661 484.169 23.1887C480.818 26.1209 478.988 30.2622 478.988 35.0513H480.988C480.988 30.8004 482.597 27.2216 485.486 24.6939C488.386 22.1565 492.654 20.6113 498.068 20.6113V18.6113ZM478.988 35.0513C478.988 39.9324 480.77 43.444 483.446 46.0987C486.083 48.7148 489.56 50.4703 492.904 51.9461C496.32 53.4541 499.517 54.6444 501.931 56.1693C504.3 57.6659 505.628 59.31 505.628 61.6113H507.628C507.628 58.3126 505.625 56.1367 502.999 54.4783C500.418 52.8482 496.955 51.5484 493.711 50.1165C490.395 48.6523 487.212 47.0177 484.854 44.6788C482.535 42.3786 480.988 39.3701 480.988 35.0513H478.988ZM505.628 61.6113C505.628 63.6947 504.958 65.2698 503.546 66.3597C502.086 67.4867 499.685 68.2113 495.988 68.2113V70.2113C499.89 70.2113 502.809 69.4559 504.769 67.9429C506.777 66.3928 507.628 64.1678 507.628 61.6113H505.628ZM495.988 68.2113C491.827 68.2113 486.371 67.2091 480.012 64.226L479.163 66.0366C485.764 69.1334 491.508 70.2113 495.988 70.2113V68.2113ZM478.588 65.1313V73.9313H480.588V65.1313H478.588ZM479.162 74.8361C484.754 77.468 490.983 78.5313 495.988 78.5313V76.5313C491.232 76.5313 485.301 75.5146 480.013 73.0265L479.162 74.8361Z" fill="black"/>
</svg>
