<svg width="1356" height="588" viewBox="0 0 1356 588" fill="none" xmlns="http://www.w3.org/2000/svg">
<circle cx="6.43396" cy="6.06665" r="5.49487" fill="black"/>
<circle cx="518.474" cy="6.06665" r="5.49487" fill="black"/>
<circle cx="1030.52" cy="6.06665" r="5.49487" fill="black"/>
<circle cx="262.393" cy="6.06665" r="5.49487" fill="black"/>
<circle cx="774.433" cy="6.06665" r="5.49487" fill="black"/>
<circle cx="1286.47" cy="6.06665" r="5.49487" fill="black"/>
<circle cx="134.51" cy="6.06665" r="5.49487" fill="black"/>
<circle cx="646.551" cy="6.06665" r="5.49487" fill="black"/>
<circle cx="1158.59" cy="6.06665" r="5.49487" fill="black"/>
<circle cx="390.469" cy="6.06665" r="5.49487" fill="black"/>
<circle cx="902.51" cy="6.06665" r="5.49487" fill="black"/>
<circle cx="70.4364" cy="5.86353" r="5.49487" fill="black"/>
<circle cx="582.477" cy="5.86353" r="5.49487" fill="black"/>
<circle cx="1094.52" cy="5.86353" r="5.49487" fill="black"/>
<circle cx="326.395" cy="5.86353" r="5.49487" fill="black"/>
<circle cx="838.436" cy="5.86353" r="5.49487" fill="black"/>
<circle cx="1350.48" cy="5.86353" r="5.49487" fill="black"/>
<circle cx="198.513" cy="5.86353" r="5.49487" fill="black"/>
<circle cx="710.553" cy="5.86353" r="5.49487" fill="black"/>
<circle cx="1222.59" cy="5.86353" r="5.49487" fill="black"/>
<circle cx="454.472" cy="5.86353" r="5.49487" fill="black"/>
<circle cx="966.512" cy="5.86353" r="5.49487" fill="black"/>
<circle cx="6.43396" cy="70.0632" r="5.49487" fill="black"/>
<circle cx="518.474" cy="70.0632" r="5.49487" fill="black"/>
<circle cx="1030.52" cy="70.0632" r="5.49487" fill="black"/>
<circle cx="262.393" cy="70.0632" r="5.49487" fill="black"/>
<circle cx="774.433" cy="70.0632" r="5.49487" fill="black"/>
<circle cx="1286.47" cy="70.0632" r="5.49487" fill="black"/>
<circle cx="134.51" cy="70.0632" r="5.49487" fill="black"/>
<circle cx="646.551" cy="70.0632" r="5.49487" fill="black"/>
<circle cx="1158.59" cy="70.0632" r="5.49487" fill="black"/>
<circle cx="390.469" cy="70.0632" r="5.49487" fill="black"/>
<circle cx="902.51" cy="70.0632" r="5.49487" fill="black"/>
<circle cx="70.4364" cy="69.8601" r="5.49487" fill="black"/>
<circle cx="582.477" cy="69.8601" r="5.49487" fill="black"/>
<circle cx="1094.52" cy="69.8601" r="5.49487" fill="black"/>
<circle cx="326.395" cy="69.8601" r="5.49487" fill="black"/>
<circle cx="838.436" cy="69.8601" r="5.49487" fill="black"/>
<circle cx="1350.48" cy="69.8601" r="5.49487" fill="black"/>
<circle cx="198.513" cy="69.8601" r="5.49487" fill="black"/>
<circle cx="710.553" cy="69.8601" r="5.49487" fill="black"/>
<circle cx="1222.59" cy="69.8601" r="5.49487" fill="black"/>
<circle cx="454.472" cy="69.8601" r="5.49487" fill="black"/>
<circle cx="966.512" cy="69.8601" r="5.49487" fill="black"/>
<circle cx="6.43396" cy="134.149" r="5.49487" fill="black"/>
<circle cx="1286.47" cy="134.149" r="5.49487" fill="black"/>
<circle cx="134.51" cy="134.149" r="5.49487" fill="black"/>
<circle cx="70.4364" cy="133.946" r="5.49487" fill="black"/>
<circle cx="1350.48" cy="133.946" r="5.49487" fill="black"/>
<circle cx="1222.59" cy="133.946" r="5.49487" fill="black"/>
<circle cx="6.43396" cy="198.046" r="5.49487" fill="black"/>
<circle cx="1286.47" cy="198.046" r="5.49487" fill="black"/>
<circle cx="134.51" cy="198.046" r="5.49487" fill="black"/>
<circle cx="70.4364" cy="197.843" r="5.49487" fill="black"/>
<circle cx="1350.48" cy="197.843" r="5.49487" fill="black"/>
<circle cx="1222.59" cy="197.843" r="5.49487" fill="black"/>
<circle cx="6.43396" cy="262.046" r="5.49487" fill="black"/>
<circle cx="1286.47" cy="262.046" r="5.49487" fill="black"/>
<circle cx="134.51" cy="262.046" r="5.49487" fill="black"/>
<circle cx="70.4364" cy="261.843" r="5.49487" fill="black"/>
<circle cx="1350.48" cy="261.843" r="5.49487" fill="black"/>
<circle cx="1222.59" cy="261.843" r="5.49487" fill="black"/>
<circle cx="6.43396" cy="326.046" r="5.49487" fill="black"/>
<circle cx="1286.47" cy="326.046" r="5.49487" fill="black"/>
<circle cx="134.51" cy="326.046" r="5.49487" fill="black"/>
<circle cx="70.4364" cy="325.843" r="5.49487" fill="black"/>
<circle cx="1350.48" cy="325.843" r="5.49487" fill="black"/>
<circle cx="1222.59" cy="325.843" r="5.49487" fill="black"/>
<circle cx="6.43396" cy="390.046" r="5.49487" fill="black"/>
<circle cx="1286.47" cy="390.046" r="5.49487" fill="black"/>
<circle cx="134.51" cy="390.046" r="5.49487" fill="black"/>
<circle cx="70.4364" cy="389.843" r="5.49487" fill="black"/>
<circle cx="1350.48" cy="389.843" r="5.49487" fill="black"/>
<circle cx="1222.59" cy="389.843" r="5.49487" fill="black"/>
<circle cx="6.43396" cy="454.046" r="5.49487" fill="black"/>
<circle cx="518.474" cy="454.046" r="5.49487" fill="black"/>
<circle cx="1030.52" cy="454.046" r="5.49487" fill="black"/>
<circle cx="262.393" cy="454.046" r="5.49487" fill="black"/>
<circle cx="774.433" cy="454.046" r="5.49487" fill="black"/>
<circle cx="1286.47" cy="454.046" r="5.49487" fill="black"/>
<circle cx="134.51" cy="454.046" r="5.49487" fill="black"/>
<circle cx="646.551" cy="454.046" r="5.49487" fill="black"/>
<circle cx="1158.59" cy="454.046" r="5.49487" fill="black"/>
<circle cx="390.469" cy="454.046" r="5.49487" fill="black"/>
<circle cx="902.51" cy="454.046" r="5.49487" fill="black"/>
<circle cx="70.4364" cy="453.843" r="5.49487" fill="black"/>
<circle cx="582.477" cy="453.843" r="5.49487" fill="black"/>
<circle cx="1094.52" cy="453.843" r="5.49487" fill="black"/>
<circle cx="326.395" cy="453.843" r="5.49487" fill="black"/>
<circle cx="838.436" cy="453.843" r="5.49487" fill="black"/>
<circle cx="1350.48" cy="453.843" r="5.49487" fill="black"/>
<circle cx="198.513" cy="453.843" r="5.49487" fill="black"/>
<circle cx="710.553" cy="453.843" r="5.49487" fill="black"/>
<circle cx="1222.59" cy="453.843" r="5.49487" fill="black"/>
<circle cx="454.472" cy="453.843" r="5.49487" fill="black"/>
<circle cx="966.512" cy="453.843" r="5.49487" fill="black"/>
<circle cx="6.43396" cy="518.046" r="5.49487" fill="black"/>
<circle cx="518.474" cy="518.046" r="5.49487" fill="black"/>
<circle cx="1030.52" cy="518.046" r="5.49487" fill="black"/>
<circle cx="262.393" cy="518.046" r="5.49487" fill="black"/>
<circle cx="774.433" cy="518.046" r="5.49487" fill="black"/>
<circle cx="1286.47" cy="518.046" r="5.49487" fill="black"/>
<circle cx="134.51" cy="518.046" r="5.49487" fill="black"/>
<circle cx="646.551" cy="518.046" r="5.49487" fill="black"/>
<circle cx="1158.59" cy="518.046" r="5.49487" fill="black"/>
<circle cx="390.469" cy="518.046" r="5.49487" fill="black"/>
<circle cx="902.51" cy="518.046" r="5.49487" fill="black"/>
<circle cx="70.4364" cy="517.843" r="5.49487" fill="black"/>
<circle cx="582.477" cy="517.843" r="5.49487" fill="black"/>
<circle cx="1094.52" cy="517.843" r="5.49487" fill="black"/>
<circle cx="326.395" cy="517.843" r="5.49487" fill="black"/>
<circle cx="838.436" cy="517.843" r="5.49487" fill="black"/>
<circle cx="1350.48" cy="517.843" r="5.49487" fill="black"/>
<circle cx="198.513" cy="517.843" r="5.49487" fill="black"/>
<circle cx="710.553" cy="517.843" r="5.49487" fill="black"/>
<circle cx="1222.59" cy="517.843" r="5.49487" fill="black"/>
<circle cx="454.472" cy="517.843" r="5.49487" fill="black"/>
<circle cx="966.512" cy="517.843" r="5.49487" fill="black"/>
<path d="M230.572 237.102H262.572C279.34 237.102 294.956 230.446 294.956 211.118C294.956 200.878 288.94 193.71 278.06 190.766C286.508 187.438 291.628 180.526 291.628 170.926C291.628 153.902 277.164 147.502 261.42 147.502H230.572V237.102ZM261.164 160.558C271.788 160.558 276.652 164.526 276.652 172.334C276.652 180.91 271.788 185.134 261.164 185.134H245.164V160.558H261.164ZM263.34 198.19C274.732 198.19 279.98 202.414 279.98 211.118C279.98 220.206 274.732 224.046 263.34 224.046H245.164V198.19H263.34ZM383.615 238.638C406.399 238.638 420.991 222.894 420.991 192.302C420.991 162.094 406.399 145.966 383.615 145.966C360.831 145.966 346.239 161.582 346.239 192.302C346.239 222.382 360.831 238.638 383.615 238.638ZM385.151 159.79C398.079 159.79 406.015 169.774 406.015 192.302C406.015 214.446 398.079 224.814 385.151 224.814H382.079C369.151 224.814 361.215 214.446 361.215 192.302C361.215 169.774 369.151 159.79 382.079 159.79H385.151ZM508.464 160.558C521.008 160.558 526.64 164.782 526.64 174.894C526.64 185.006 521.008 189.23 508.464 189.23H491.824V160.558H508.464ZM527.152 237.102H544.048L523.312 199.342C533.552 196.27 541.232 188.718 541.232 174.894C541.232 154.926 526.128 147.502 509.488 147.502H477.232V237.102H491.824V202.286H508.976L527.152 237.102ZM598.397 237.102H629.757C652.541 237.102 667.133 221.87 667.133 192.302C667.133 163.118 652.541 147.502 629.757 147.502H598.397V237.102ZM629.757 160.558C643.709 160.558 652.157 170.286 652.157 192.302C652.157 213.934 643.709 224.046 629.757 224.046H612.989V160.558H629.757ZM723.672 237.102H779.864V224.046H738.264V198.062H773.976V185.006H738.264V160.558H779.864V147.502H723.672V237.102ZM877.157 205.614H852.453L864.741 165.55L877.157 205.614ZM886.885 237.102H902.501L872.805 147.502H857.189L827.493 237.102H842.853L848.613 218.414H881.125L886.885 237.102ZM965.278 147.502H950.686V205.23C950.686 223.662 959.646 238.638 983.71 238.638C1007.65 238.638 1016.73 223.662 1016.73 205.23V147.502H1002.14V205.23C1002.14 218.67 996.766 224.942 986.142 224.942H981.278C970.654 224.942 965.278 217.902 965.278 205.23V147.502ZM1121.29 237.102H1137.68L1110.67 190.766L1136.4 147.502H1120.65L1102.35 179.758L1084.43 147.502H1067.92L1093.39 191.534L1066.64 237.102H1082.89L1101.84 203.182L1121.29 237.102Z" fill="white"/>
<path d="M230.572 237.102H229.572V238.102H230.572V237.102ZM278.06 190.766L277.693 189.836L274.884 190.943L277.799 191.731L278.06 190.766ZM230.572 147.502V146.502H229.572V147.502H230.572ZM245.164 185.134H244.164V186.134H245.164V185.134ZM245.164 160.558V159.558H244.164V160.558H245.164ZM245.164 224.046H244.164V225.046H245.164V224.046ZM245.164 198.19V197.19H244.164V198.19H245.164ZM230.572 238.102H262.572V236.102H230.572V238.102ZM262.572 238.102C271.063 238.102 279.385 236.421 285.614 232.185C291.9 227.91 295.956 221.098 295.956 211.118H293.956C293.956 220.466 290.203 226.646 284.49 230.531C278.719 234.455 270.849 236.102 262.572 236.102V238.102ZM295.956 211.118C295.956 205.792 294.387 201.206 291.356 197.566C288.332 193.934 283.912 191.314 278.321 189.801L277.799 191.731C283.088 193.163 287.115 195.598 289.819 198.846C292.517 202.086 293.956 206.204 293.956 211.118H295.956ZM278.426 191.696C287.238 188.225 292.628 180.956 292.628 170.926H290.628C290.628 180.096 285.777 186.651 277.693 189.836L278.426 191.696ZM292.628 170.926C292.628 162.08 288.845 155.912 282.983 151.998C277.176 148.121 269.404 146.502 261.42 146.502V148.502C269.18 148.502 276.512 150.083 281.873 153.662C287.179 157.204 290.628 162.749 290.628 170.926H292.628ZM261.42 146.502H230.572V148.502H261.42V146.502ZM229.572 147.502V237.102H231.572V147.502H229.572ZM261.164 161.558C266.382 161.558 269.991 162.538 272.28 164.309C274.517 166.04 275.652 168.652 275.652 172.334H277.652C277.652 168.208 276.354 164.932 273.504 162.727C270.705 160.562 266.57 159.558 261.164 159.558V161.558ZM275.652 172.334C275.652 176.431 274.497 179.303 272.25 181.183C269.966 183.094 266.372 184.134 261.164 184.134V186.134C266.58 186.134 270.73 185.062 273.533 182.717C276.375 180.341 277.652 176.813 277.652 172.334H275.652ZM261.164 184.134H245.164V186.134H261.164V184.134ZM246.164 185.134V160.558H244.164V185.134H246.164ZM245.164 161.558H261.164V159.558H245.164V161.558ZM263.34 199.19C268.944 199.19 272.837 200.235 275.315 202.177C277.743 204.079 278.98 206.977 278.98 211.118H280.98C280.98 206.555 279.593 202.989 276.549 200.603C273.555 198.257 269.128 197.19 263.34 197.19V199.19ZM278.98 211.118C278.98 215.463 277.736 218.348 275.324 220.196C272.851 222.091 268.962 223.046 263.34 223.046V225.046C269.11 225.046 273.541 224.081 276.54 221.784C279.6 219.44 280.98 215.861 280.98 211.118H278.98ZM263.34 223.046H245.164V225.046H263.34V223.046ZM246.164 224.046V198.19H244.164V224.046H246.164ZM245.164 199.19H263.34V197.19H245.164V199.19ZM383.615 239.638C395.253 239.638 404.898 235.607 411.614 227.584C418.309 219.585 421.991 207.743 421.991 192.302H419.991C419.991 207.453 416.376 218.779 410.08 226.3C403.804 233.797 394.761 237.638 383.615 237.638V239.638ZM421.991 192.302C421.991 177.05 418.308 165.211 411.616 157.166C404.903 149.098 395.26 144.966 383.615 144.966V146.966C394.754 146.966 403.799 150.898 410.078 158.446C416.378 166.018 419.991 177.346 419.991 192.302H421.991ZM383.615 144.966C371.98 144.966 362.334 148.964 355.617 156.971C348.92 164.955 345.239 176.798 345.239 192.302H347.239C347.239 177.086 350.854 165.761 357.149 158.257C363.424 150.777 372.466 146.966 383.615 146.966V144.966ZM345.239 192.302C345.239 207.491 348.922 219.33 355.614 227.389C362.325 235.472 371.967 239.638 383.615 239.638V237.638C372.478 237.638 363.433 233.676 357.152 226.111C350.852 218.522 347.239 207.193 347.239 192.302H345.239ZM385.151 160.79C391.317 160.79 396.207 163.148 399.603 168.159C403.042 173.233 405.015 181.127 405.015 192.302H407.015C407.015 180.949 405.02 172.587 401.259 167.037C397.455 161.424 391.913 158.79 385.151 158.79V160.79ZM405.015 192.302C405.015 203.281 403.043 211.179 399.601 216.304C396.199 221.37 391.304 223.814 385.151 223.814V225.814C391.926 225.814 397.463 223.074 401.261 217.42C405.019 211.825 407.015 203.467 407.015 192.302H405.015ZM385.151 223.814H382.079V225.814H385.151V223.814ZM382.079 223.814C375.926 223.814 371.031 221.37 367.629 216.304C364.187 211.179 362.215 203.281 362.215 192.302H360.215C360.215 203.467 362.211 211.825 365.969 217.42C369.767 223.074 375.304 225.814 382.079 225.814V223.814ZM362.215 192.302C362.215 181.127 364.188 173.233 367.627 168.159C371.023 163.148 375.913 160.79 382.079 160.79V158.79C375.317 158.79 369.775 161.424 365.971 167.037C362.21 172.587 360.215 180.949 360.215 192.302H362.215ZM382.079 160.79H385.151V158.79H382.079V160.79ZM491.824 189.23H490.824V190.23H491.824V189.23ZM491.824 160.558V159.558H490.824V160.558H491.824ZM527.152 237.102L526.265 237.565L526.546 238.102H527.152V237.102ZM544.048 237.102V238.102H545.738L544.924 236.621L544.048 237.102ZM523.312 199.342L523.025 198.384L521.84 198.74L522.435 199.823L523.312 199.342ZM477.232 147.502V146.502H476.232V147.502H477.232ZM477.232 237.102H476.232V238.102H477.232V237.102ZM491.824 237.102V238.102H492.824V237.102H491.824ZM491.824 202.286V201.286H490.824V202.286H491.824ZM508.976 202.286L509.862 201.823L509.582 201.286H508.976V202.286ZM508.464 161.558C514.663 161.558 518.931 162.61 521.641 164.723C524.293 166.79 525.64 170.026 525.64 174.894H527.64C527.64 169.65 526.171 165.718 522.871 163.145C519.629 160.618 514.808 159.558 508.464 159.558V161.558ZM525.64 174.894C525.64 179.762 524.293 182.998 521.641 185.065C518.931 187.178 514.663 188.23 508.464 188.23V190.23C514.808 190.23 519.629 189.17 522.871 186.643C526.171 184.07 527.64 180.138 527.64 174.894H525.64ZM508.464 188.23H491.824V190.23H508.464V188.23ZM492.824 189.23V160.558H490.824V189.23H492.824ZM491.824 161.558H508.464V159.558H491.824V161.558ZM527.152 238.102H544.048V236.102H527.152V238.102ZM544.924 236.621L524.188 198.861L522.435 199.823L543.171 237.583L544.924 236.621ZM523.599 200.3C528.867 198.72 533.539 195.968 536.893 191.775C540.254 187.574 542.232 182.001 542.232 174.894H540.232C540.232 181.611 538.37 186.726 535.331 190.525C532.285 194.333 527.997 196.893 523.025 198.384L523.599 200.3ZM542.232 174.894C542.232 164.624 538.329 157.465 532.196 152.907C526.109 148.383 517.935 146.502 509.488 146.502V148.502C517.681 148.502 525.379 150.333 531.003 154.513C536.582 158.659 540.232 165.196 540.232 174.894H542.232ZM509.488 146.502H477.232V148.502H509.488V146.502ZM476.232 147.502V237.102H478.232V147.502H476.232ZM477.232 238.102H491.824V236.102H477.232V238.102ZM492.824 237.102V202.286H490.824V237.102H492.824ZM491.824 203.286H508.976V201.286H491.824V203.286ZM508.089 202.749L526.265 237.565L528.038 236.639L509.862 201.823L508.089 202.749ZM598.397 237.102H597.397V238.102H598.397V237.102ZM598.397 147.502V146.502H597.397V147.502H598.397ZM612.989 224.046H611.989V225.046H612.989V224.046ZM612.989 160.558V159.558H611.989V160.558H612.989ZM598.397 238.102H629.757V236.102H598.397V238.102ZM629.757 238.102C641.383 238.102 651.025 234.207 657.745 226.445C664.448 218.702 668.133 207.239 668.133 192.302H666.133C666.133 206.934 662.522 217.87 656.233 225.136C649.961 232.381 640.915 236.102 629.757 236.102V238.102ZM668.133 192.302C668.133 177.555 664.446 166.094 657.747 158.306C651.031 150.498 641.391 146.502 629.757 146.502V148.502C640.907 148.502 649.955 152.314 656.231 159.61C662.524 166.926 666.133 177.866 666.133 192.302H668.133ZM629.757 146.502H598.397V148.502H629.757V146.502ZM597.397 147.502V237.102H599.397V147.502H597.397ZM629.757 161.558C636.475 161.558 641.752 163.884 645.387 168.771C649.06 173.709 651.157 181.395 651.157 192.302H653.157C653.157 181.193 651.03 173.007 646.991 167.577C642.914 162.096 636.991 159.558 629.757 159.558V161.558ZM651.157 192.302C651.157 203.013 649.061 210.703 645.384 215.693C641.743 220.633 636.463 223.046 629.757 223.046V225.046C637.003 225.046 642.923 222.403 646.994 216.879C651.028 211.405 653.157 203.224 653.157 192.302H651.157ZM629.757 223.046H612.989V225.046H629.757V223.046ZM613.989 224.046V160.558H611.989V224.046H613.989ZM612.989 161.558H629.757V159.558H612.989V161.558ZM723.672 237.102H722.672V238.102H723.672V237.102ZM779.864 237.102V238.102H780.864V237.102H779.864ZM779.864 224.046H780.864V223.046H779.864V224.046ZM738.264 224.046H737.264V225.046H738.264V224.046ZM738.264 198.062V197.062H737.264V198.062H738.264ZM773.976 198.062V199.062H774.976V198.062H773.976ZM773.976 185.006H774.976V184.006H773.976V185.006ZM738.264 185.006H737.264V186.006H738.264V185.006ZM738.264 160.558V159.558H737.264V160.558H738.264ZM779.864 160.558V161.558H780.864V160.558H779.864ZM779.864 147.502H780.864V146.502H779.864V147.502ZM723.672 147.502V146.502H722.672V147.502H723.672ZM723.672 238.102H779.864V236.102H723.672V238.102ZM780.864 237.102V224.046H778.864V237.102H780.864ZM779.864 223.046H738.264V225.046H779.864V223.046ZM739.264 224.046V198.062H737.264V224.046H739.264ZM738.264 199.062H773.976V197.062H738.264V199.062ZM774.976 198.062V185.006H772.976V198.062H774.976ZM773.976 184.006H738.264V186.006H773.976V184.006ZM739.264 185.006V160.558H737.264V185.006H739.264ZM738.264 161.558H779.864V159.558H738.264V161.558ZM780.864 160.558V147.502H778.864V160.558H780.864ZM779.864 146.502H723.672V148.502H779.864V146.502ZM722.672 147.502V237.102H724.672V147.502H722.672ZM877.157 205.614V206.614H878.514L878.112 205.318L877.157 205.614ZM852.453 205.614L851.497 205.321L851.1 206.614H852.453V205.614ZM864.741 165.55L865.696 165.254L864.736 162.156L863.785 165.257L864.741 165.55ZM886.885 237.102L885.929 237.397L886.147 238.102H886.885V237.102ZM902.501 237.102V238.102H903.886L903.45 236.787L902.501 237.102ZM872.805 147.502L873.754 147.187L873.527 146.502H872.805V147.502ZM857.189 147.502V146.502H856.467L856.24 147.187L857.189 147.502ZM827.493 237.102L826.544 236.787L826.108 238.102H827.493V237.102ZM842.853 237.102V238.102H843.591L843.809 237.397L842.853 237.102ZM848.613 218.414V217.414H847.875L847.657 218.12L848.613 218.414ZM881.125 218.414L882.081 218.12L881.863 217.414H881.125V218.414ZM877.157 204.614H852.453V206.614H877.157V204.614ZM853.409 205.907L865.697 165.843L863.785 165.257L851.497 205.321L853.409 205.907ZM863.786 165.846L876.202 205.91L878.112 205.318L865.696 165.254L863.786 165.846ZM886.885 238.102H902.501V236.102H886.885V238.102ZM903.45 236.787L873.754 147.187L871.856 147.817L901.552 237.417L903.45 236.787ZM872.805 146.502H857.189V148.502H872.805V146.502ZM856.24 147.187L826.544 236.787L828.442 237.417L858.138 147.817L856.24 147.187ZM827.493 238.102H842.853V236.102H827.493V238.102ZM843.809 237.397L849.569 218.709L847.657 218.12L841.897 236.808L843.809 237.397ZM848.613 219.414H881.125V217.414H848.613V219.414ZM880.169 218.709L885.929 237.397L887.841 236.808L882.081 218.12L880.169 218.709ZM965.278 147.502H966.278V146.502H965.278V147.502ZM950.686 147.502V146.502H949.686V147.502H950.686ZM1016.73 147.502H1017.73V146.502H1016.73V147.502ZM1002.14 147.502V146.502H1001.14V147.502H1002.14ZM965.278 146.502H950.686V148.502H965.278V146.502ZM949.686 147.502V205.23H951.686V147.502H949.686ZM949.686 205.23C949.686 214.591 951.96 223.211 957.419 229.501C962.899 235.818 971.461 239.638 983.71 239.638V237.638C971.895 237.638 963.944 233.97 958.929 228.191C953.892 222.386 951.686 214.301 951.686 205.23H949.686ZM983.71 239.638C995.897 239.638 1004.46 235.817 1009.95 229.503C1015.43 223.213 1017.73 214.594 1017.73 205.23H1015.73C1015.73 214.298 1013.5 222.383 1008.44 228.19C1003.41 233.971 995.459 237.638 983.71 237.638V239.638ZM1017.73 205.23V147.502H1015.73V205.23H1017.73ZM1016.73 146.502H1002.14V148.502H1016.73V146.502ZM1001.14 147.502V205.23H1003.14V147.502H1001.14ZM1001.14 205.23C1001.14 211.844 999.814 216.499 997.354 219.491C994.925 222.443 991.251 223.942 986.142 223.942V225.942C991.657 225.942 995.983 224.305 998.898 220.761C1001.78 217.257 1003.14 212.056 1003.14 205.23H1001.14ZM986.142 223.942H981.278V225.942H986.142V223.942ZM981.278 223.942C976.204 223.942 972.52 222.273 970.075 219.214C967.6 216.116 966.278 211.447 966.278 205.23H964.278C964.278 211.685 965.644 216.872 968.513 220.462C971.412 224.091 975.728 225.942 981.278 225.942V223.942ZM966.278 205.23V147.502H964.278V205.23H966.278ZM1121.29 237.102L1120.43 237.6L1120.71 238.102H1121.29V237.102ZM1137.68 237.102V238.102H1139.42L1138.54 236.598L1137.68 237.102ZM1110.67 190.766L1109.81 190.255L1109.51 190.761L1109.81 191.27L1110.67 190.766ZM1136.4 147.502L1137.26 148.013L1138.16 146.502H1136.4V147.502ZM1120.65 147.502V146.502H1120.07L1119.78 147.009L1120.65 147.502ZM1102.35 179.758L1101.48 180.244L1102.34 181.801L1103.22 180.252L1102.35 179.758ZM1084.43 147.502L1085.3 147.016L1085.02 146.502H1084.43V147.502ZM1067.92 147.502V146.502H1066.18L1067.05 148.003L1067.92 147.502ZM1093.39 191.534L1094.25 192.04L1094.55 191.538L1094.26 191.033L1093.39 191.534ZM1066.64 237.102L1065.78 236.596L1064.89 238.102H1066.64V237.102ZM1082.89 237.102V238.102H1083.48L1083.77 237.59L1082.89 237.102ZM1101.84 203.182L1102.71 202.685L1101.83 201.152L1100.96 202.694L1101.84 203.182ZM1121.29 238.102H1137.68V236.102H1121.29V238.102ZM1138.54 236.598L1111.53 190.262L1109.81 191.27L1136.81 237.606L1138.54 236.598ZM1111.53 191.277L1137.26 148.013L1135.54 146.991L1109.81 190.255L1111.53 191.277ZM1136.4 146.502H1120.65V148.502H1136.4V146.502ZM1119.78 147.009L1101.48 179.265L1103.22 180.252L1121.52 147.996L1119.78 147.009ZM1103.22 179.272L1085.3 147.016L1083.56 147.988L1101.48 180.244L1103.22 179.272ZM1084.43 146.502H1067.92V148.502H1084.43V146.502ZM1067.05 148.003L1092.52 192.035L1094.26 191.033L1068.78 147.001L1067.05 148.003ZM1092.53 191.028L1065.78 236.596L1067.5 237.608L1094.25 192.04L1092.53 191.028ZM1066.64 238.102H1082.89V236.102H1066.64V238.102ZM1083.77 237.59L1102.71 203.67L1100.96 202.694L1082.02 236.614L1083.77 237.59ZM1100.97 203.68L1120.43 237.6L1122.16 236.605L1102.71 202.685L1100.97 203.68Z" fill="black"/>
<path d="M223.765 232.102H255.765C272.533 232.102 288.149 225.446 288.149 206.118C288.149 195.878 282.133 188.71 271.253 185.766C279.701 182.438 284.821 175.526 284.821 165.926C284.821 148.902 270.357 142.502 254.613 142.502H223.765V232.102ZM254.357 155.558C264.981 155.558 269.845 159.526 269.845 167.334C269.845 175.91 264.981 180.134 254.357 180.134H238.357V155.558H254.357ZM256.533 193.19C267.925 193.19 273.173 197.414 273.173 206.118C273.173 215.206 267.925 219.046 256.533 219.046H238.357V193.19H256.533ZM376.808 233.638C399.592 233.638 414.184 217.894 414.184 187.302C414.184 157.094 399.592 140.966 376.808 140.966C354.024 140.966 339.432 156.582 339.432 187.302C339.432 217.382 354.024 233.638 376.808 233.638ZM378.344 154.79C391.272 154.79 399.208 164.774 399.208 187.302C399.208 209.446 391.272 219.814 378.344 219.814H375.272C362.344 219.814 354.408 209.446 354.408 187.302C354.408 164.774 362.344 154.79 375.272 154.79H378.344ZM501.657 155.558C514.201 155.558 519.833 159.782 519.833 169.894C519.833 180.006 514.201 184.23 501.657 184.23H485.017V155.558H501.657ZM520.345 232.102H537.241L516.505 194.342C526.745 191.27 534.425 183.718 534.425 169.894C534.425 149.926 519.321 142.502 502.681 142.502H470.425V232.102H485.017V197.286H502.169L520.345 232.102ZM591.59 232.102H622.95C645.734 232.102 660.326 216.87 660.326 187.302C660.326 158.118 645.734 142.502 622.95 142.502H591.59V232.102ZM622.95 155.558C636.902 155.558 645.35 165.286 645.35 187.302C645.35 208.934 636.902 219.046 622.95 219.046H606.182V155.558H622.95ZM716.865 232.102H773.057V219.046H731.457V193.062H767.169V180.006H731.457V155.558H773.057V142.502H716.865V232.102ZM870.35 200.614H845.646L857.934 160.55L870.35 200.614ZM880.078 232.102H895.694L865.998 142.502H850.382L820.686 232.102H836.046L841.806 213.414H874.318L880.078 232.102ZM958.471 142.502H943.879V200.23C943.879 218.662 952.839 233.638 976.903 233.638C1000.84 233.638 1009.93 218.662 1009.93 200.23V142.502H995.335V200.23C995.335 213.67 989.959 219.942 979.335 219.942H974.471C963.847 219.942 958.471 212.902 958.471 200.23V142.502ZM1114.49 232.102H1130.87L1103.86 185.766L1129.59 142.502H1113.85L1095.54 174.758L1077.62 142.502H1061.11L1086.58 186.534L1059.83 232.102H1076.09L1095.03 198.182L1114.49 232.102Z" fill="#4247C6"/>
<path d="M223.765 232.102H222.765V233.102H223.765V232.102ZM271.253 185.766L270.887 184.836L268.077 185.943L270.992 186.731L271.253 185.766ZM223.765 142.502V141.502H222.765V142.502H223.765ZM238.357 180.134H237.357V181.134H238.357V180.134ZM238.357 155.558V154.558H237.357V155.558H238.357ZM238.357 219.046H237.357V220.046H238.357V219.046ZM238.357 193.19V192.19H237.357V193.19H238.357ZM223.765 233.102H255.765V231.102H223.765V233.102ZM255.765 233.102C264.257 233.102 272.578 231.421 278.808 227.185C285.094 222.91 289.149 216.098 289.149 206.118H287.149C287.149 215.466 283.397 221.646 277.683 225.531C271.912 229.455 264.042 231.102 255.765 231.102V233.102ZM289.149 206.118C289.149 200.792 287.58 196.206 284.55 192.566C281.526 188.934 277.105 186.314 271.514 184.801L270.992 186.731C276.281 188.163 280.309 190.598 283.013 193.846C285.71 197.086 287.149 201.204 287.149 206.118H289.149ZM271.62 186.696C280.432 183.225 285.821 175.956 285.821 165.926H283.821C283.821 175.096 278.971 181.651 270.887 184.836L271.62 186.696ZM285.821 165.926C285.821 157.08 282.038 150.912 276.176 146.998C270.369 143.121 262.597 141.502 254.613 141.502V143.502C262.373 143.502 269.706 145.083 275.066 148.662C280.372 152.204 283.821 157.749 283.821 165.926H285.821ZM254.613 141.502H223.765V143.502H254.613V141.502ZM222.765 142.502V232.102H224.765V142.502H222.765ZM254.357 156.558C259.575 156.558 263.184 157.538 265.473 159.309C267.711 161.04 268.845 163.652 268.845 167.334H270.845C270.845 163.208 269.548 159.932 266.697 157.727C263.898 155.562 259.763 154.558 254.357 154.558V156.558ZM268.845 167.334C268.845 171.431 267.691 174.303 265.444 176.183C263.159 178.094 259.566 179.134 254.357 179.134V181.134C259.773 181.134 263.923 180.062 266.727 177.717C269.568 175.341 270.845 171.813 270.845 167.334H268.845ZM254.357 179.134H238.357V181.134H254.357V179.134ZM239.357 180.134V155.558H237.357V180.134H239.357ZM238.357 156.558H254.357V154.558H238.357V156.558ZM256.533 194.19C262.138 194.19 266.03 195.235 268.508 197.177C270.936 199.079 272.173 201.977 272.173 206.118H274.173C274.173 201.555 272.787 197.989 269.742 195.603C266.749 193.257 262.321 192.19 256.533 192.19V194.19ZM272.173 206.118C272.173 210.463 270.929 213.348 268.517 215.196C266.044 217.091 262.156 218.046 256.533 218.046V220.046C262.303 220.046 266.734 219.081 269.733 216.784C272.793 214.44 274.173 210.861 274.173 206.118H272.173ZM256.533 218.046H238.357V220.046H256.533V218.046ZM239.357 219.046V193.19H237.357V219.046H239.357ZM238.357 194.19H256.533V192.19H238.357V194.19ZM376.808 234.638C388.446 234.638 398.091 230.607 404.807 222.584C411.503 214.585 415.184 202.743 415.184 187.302H413.184C413.184 202.453 409.57 213.779 403.273 221.3C396.998 228.797 387.955 232.638 376.808 232.638V234.638ZM415.184 187.302C415.184 172.05 411.501 160.211 404.809 152.166C398.097 144.098 388.453 139.966 376.808 139.966V141.966C387.947 141.966 396.992 145.898 403.272 153.446C409.571 161.018 413.184 172.346 413.184 187.302H415.184ZM376.808 139.966C365.173 139.966 355.527 143.964 348.81 151.971C342.113 159.955 338.432 171.798 338.432 187.302H340.432C340.432 172.086 344.047 160.761 350.342 153.257C356.617 145.777 365.659 141.966 376.808 141.966V139.966ZM338.432 187.302C338.432 202.491 342.116 214.33 348.807 222.389C355.518 230.472 365.161 234.638 376.808 234.638V232.638C365.672 232.638 356.626 228.676 350.346 221.111C344.045 213.522 340.432 202.193 340.432 187.302H338.432ZM378.344 155.79C384.51 155.79 389.401 158.148 392.796 163.159C396.235 168.233 398.208 176.127 398.208 187.302H400.208C400.208 175.949 398.214 167.587 394.452 162.037C390.648 156.424 385.106 153.79 378.344 153.79V155.79ZM398.208 187.302C398.208 198.281 396.236 206.179 392.794 211.304C389.392 216.37 384.497 218.814 378.344 218.814V220.814C385.119 220.814 390.657 218.074 394.454 212.42C398.212 206.825 400.208 198.467 400.208 187.302H398.208ZM378.344 218.814H375.272V220.814H378.344V218.814ZM375.272 218.814C369.119 218.814 364.225 216.37 360.822 211.304C357.38 206.179 355.408 198.281 355.408 187.302H353.408C353.408 198.467 355.404 206.825 359.162 212.42C362.96 218.074 368.497 220.814 375.272 220.814V218.814ZM355.408 187.302C355.408 176.127 357.381 168.233 360.82 163.159C364.216 158.148 369.106 155.79 375.272 155.79V153.79C368.51 153.79 362.969 156.424 359.164 162.037C355.403 167.587 353.408 175.949 353.408 187.302H355.408ZM375.272 155.79H378.344V153.79H375.272V155.79ZM485.017 184.23H484.017V185.23H485.017V184.23ZM485.017 155.558V154.558H484.017V155.558H485.017ZM520.345 232.102L519.459 232.565L519.739 233.102H520.345V232.102ZM537.241 232.102V233.102H538.931L538.118 231.621L537.241 232.102ZM516.505 194.342L516.218 193.384L515.034 193.74L515.629 194.823L516.505 194.342ZM470.425 142.502V141.502H469.425V142.502H470.425ZM470.425 232.102H469.425V233.102H470.425V232.102ZM485.017 232.102V233.102H486.017V232.102H485.017ZM485.017 197.286V196.286H484.017V197.286H485.017ZM502.169 197.286L503.056 196.823L502.775 196.286H502.169V197.286ZM501.657 156.558C507.857 156.558 512.124 157.61 514.834 159.723C517.486 161.79 518.833 165.026 518.833 169.894H520.833C520.833 164.65 519.364 160.718 516.064 158.145C512.822 155.618 508.002 154.558 501.657 154.558V156.558ZM518.833 169.894C518.833 174.762 517.486 177.998 514.834 180.065C512.124 182.178 507.857 183.23 501.657 183.23V185.23C508.002 185.23 512.822 184.17 516.064 181.643C519.364 179.07 520.833 175.138 520.833 169.894H518.833ZM501.657 183.23H485.017V185.23H501.657V183.23ZM486.017 184.23V155.558H484.017V184.23H486.017ZM485.017 156.558H501.657V154.558H485.017V156.558ZM520.345 233.102H537.241V231.102H520.345V233.102ZM538.118 231.621L517.382 193.861L515.629 194.823L536.365 232.583L538.118 231.621ZM516.793 195.3C522.06 193.72 526.732 190.968 530.086 186.775C533.447 182.574 535.425 177.001 535.425 169.894H533.425C533.425 176.611 531.563 181.726 528.524 185.525C525.479 189.333 521.19 191.893 516.218 193.384L516.793 195.3ZM535.425 169.894C535.425 159.624 531.523 152.465 525.39 147.907C519.302 143.383 511.129 141.502 502.681 141.502V143.502C510.874 143.502 518.572 145.333 524.197 149.513C529.776 153.659 533.425 160.196 533.425 169.894H535.425ZM502.681 141.502H470.425V143.502H502.681V141.502ZM469.425 142.502V232.102H471.425V142.502H469.425ZM470.425 233.102H485.017V231.102H470.425V233.102ZM486.017 232.102V197.286H484.017V232.102H486.017ZM485.017 198.286H502.169V196.286H485.017V198.286ZM501.283 197.749L519.459 232.565L521.232 231.639L503.056 196.823L501.283 197.749ZM591.59 232.102H590.59V233.102H591.59V232.102ZM591.59 142.502V141.502H590.59V142.502H591.59ZM606.182 219.046H605.182V220.046H606.182V219.046ZM606.182 155.558V154.558H605.182V155.558H606.182ZM591.59 233.102H622.95V231.102H591.59V233.102ZM622.95 233.102C634.577 233.102 644.219 229.207 650.938 221.445C657.641 213.702 661.326 202.239 661.326 187.302H659.326C659.326 201.934 655.716 212.87 649.426 220.136C643.154 227.381 634.108 231.102 622.95 231.102V233.102ZM661.326 187.302C661.326 172.555 657.64 161.094 650.94 153.306C644.224 145.498 634.584 141.502 622.95 141.502V143.502C634.1 143.502 643.148 147.314 649.424 154.61C655.717 161.926 659.326 172.866 659.326 187.302H661.326ZM622.95 141.502H591.59V143.502H622.95V141.502ZM590.59 142.502V232.102H592.59V142.502H590.59ZM622.95 156.558C629.669 156.558 634.945 158.884 638.58 163.771C642.253 168.709 644.35 176.395 644.35 187.302H646.35C646.35 176.193 644.223 168.007 640.185 162.577C636.108 157.096 630.184 154.558 622.95 154.558V156.558ZM644.35 187.302C644.35 198.013 642.255 205.703 638.577 210.693C634.936 215.633 629.656 218.046 622.95 218.046V220.046C630.196 220.046 636.116 217.403 640.187 211.879C644.222 206.405 646.35 198.224 646.35 187.302H644.35ZM622.95 218.046H606.182V220.046H622.95V218.046ZM607.182 219.046V155.558H605.182V219.046H607.182ZM606.182 156.558H622.95V154.558H606.182V156.558ZM716.865 232.102H715.865V233.102H716.865V232.102ZM773.057 232.102V233.102H774.057V232.102H773.057ZM773.057 219.046H774.057V218.046H773.057V219.046ZM731.457 219.046H730.457V220.046H731.457V219.046ZM731.457 193.062V192.062H730.457V193.062H731.457ZM767.169 193.062V194.062H768.169V193.062H767.169ZM767.169 180.006H768.169V179.006H767.169V180.006ZM731.457 180.006H730.457V181.006H731.457V180.006ZM731.457 155.558V154.558H730.457V155.558H731.457ZM773.057 155.558V156.558H774.057V155.558H773.057ZM773.057 142.502H774.057V141.502H773.057V142.502ZM716.865 142.502V141.502H715.865V142.502H716.865ZM716.865 233.102H773.057V231.102H716.865V233.102ZM774.057 232.102V219.046H772.057V232.102H774.057ZM773.057 218.046H731.457V220.046H773.057V218.046ZM732.457 219.046V193.062H730.457V219.046H732.457ZM731.457 194.062H767.169V192.062H731.457V194.062ZM768.169 193.062V180.006H766.169V193.062H768.169ZM767.169 179.006H731.457V181.006H767.169V179.006ZM732.457 180.006V155.558H730.457V180.006H732.457ZM731.457 156.558H773.057V154.558H731.457V156.558ZM774.057 155.558V142.502H772.057V155.558H774.057ZM773.057 141.502H716.865V143.502H773.057V141.502ZM715.865 142.502V232.102H717.865V142.502H715.865ZM870.35 200.614V201.614H871.707L871.305 200.318L870.35 200.614ZM845.646 200.614L844.69 200.321L844.294 201.614H845.646V200.614ZM857.934 160.55L858.889 160.254L857.929 157.156L856.978 160.257L857.934 160.55ZM880.078 232.102L879.123 232.397L879.34 233.102H880.078V232.102ZM895.694 232.102V233.102H897.079L896.643 231.787L895.694 232.102ZM865.998 142.502L866.947 142.187L866.72 141.502H865.998V142.502ZM850.382 142.502V141.502H849.66L849.433 142.187L850.382 142.502ZM820.686 232.102L819.737 231.787L819.301 233.102H820.686V232.102ZM836.046 232.102V233.102H836.784L837.002 232.397L836.046 232.102ZM841.806 213.414V212.414H841.068L840.851 213.12L841.806 213.414ZM874.318 213.414L875.274 213.12L875.056 212.414H874.318V213.414ZM870.35 199.614H845.646V201.614H870.35V199.614ZM846.602 200.907L858.89 160.843L856.978 160.257L844.69 200.321L846.602 200.907ZM856.979 160.846L869.395 200.91L871.305 200.318L858.889 160.254L856.979 160.846ZM880.078 233.102H895.694V231.102H880.078V233.102ZM896.643 231.787L866.947 142.187L865.049 142.817L894.745 232.417L896.643 231.787ZM865.998 141.502H850.382V143.502H865.998V141.502ZM849.433 142.187L819.737 231.787L821.635 232.417L851.331 142.817L849.433 142.187ZM820.686 233.102H836.046V231.102H820.686V233.102ZM837.002 232.397L842.762 213.709L840.851 213.12L835.091 231.808L837.002 232.397ZM841.806 214.414H874.318V212.414H841.806V214.414ZM873.363 213.709L879.123 232.397L881.034 231.808L875.274 213.12L873.363 213.709ZM958.471 142.502H959.471V141.502H958.471V142.502ZM943.879 142.502V141.502H942.879V142.502H943.879ZM1009.93 142.502H1010.93V141.502H1009.93V142.502ZM995.335 142.502V141.502H994.335V142.502H995.335ZM958.471 141.502H943.879V143.502H958.471V141.502ZM942.879 142.502V200.23H944.879V142.502H942.879ZM942.879 200.23C942.879 209.591 945.153 218.211 950.612 224.501C956.093 230.818 964.654 234.638 976.903 234.638V232.638C965.089 232.638 957.138 228.97 952.123 223.191C947.085 217.386 944.879 209.301 944.879 200.23H942.879ZM976.903 234.638C989.09 234.638 997.65 230.817 1003.15 224.503C1008.62 218.213 1010.93 209.594 1010.93 200.23H1008.93C1008.93 209.298 1006.69 217.383 1001.64 223.19C996.605 228.971 988.652 232.638 976.903 232.638V234.638ZM1010.93 200.23V142.502H1008.93V200.23H1010.93ZM1009.93 141.502H995.335V143.502H1009.93V141.502ZM994.335 142.502V200.23H996.335V142.502H994.335ZM994.335 200.23C994.335 206.844 993.008 211.499 990.547 214.491C988.119 217.443 984.444 218.942 979.335 218.942V220.942C984.85 220.942 989.176 219.305 992.092 215.761C994.975 212.257 996.335 207.056 996.335 200.23H994.335ZM979.335 218.942H974.471V220.942H979.335V218.942ZM974.471 218.942C969.397 218.942 965.713 217.273 963.268 214.214C960.793 211.116 959.471 206.447 959.471 200.23H957.471C957.471 206.685 958.837 211.872 961.706 215.462C964.605 219.091 968.921 220.942 974.471 220.942V218.942ZM959.471 200.23V142.502H957.471V200.23H959.471ZM1114.49 232.102L1113.62 232.6L1113.91 233.102H1114.49V232.102ZM1130.87 232.102V233.102H1132.61L1131.74 231.598L1130.87 232.102ZM1103.86 185.766L1103 185.255L1102.7 185.761L1103 186.27L1103.86 185.766ZM1129.59 142.502L1130.45 143.013L1131.35 141.502H1129.59V142.502ZM1113.85 142.502V141.502H1113.26L1112.98 142.009L1113.85 142.502ZM1095.54 174.758L1094.67 175.244L1095.53 176.801L1096.41 175.252L1095.54 174.758ZM1077.62 142.502L1078.5 142.016L1078.21 141.502H1077.62V142.502ZM1061.11 142.502V141.502H1059.38L1060.25 143.003L1061.11 142.502ZM1086.58 186.534L1087.45 187.04L1087.74 186.538L1087.45 186.033L1086.58 186.534ZM1059.83 232.102L1058.97 231.596L1058.08 233.102H1059.83V232.102ZM1076.09 232.102V233.102H1076.67L1076.96 232.59L1076.09 232.102ZM1095.03 198.182L1095.9 197.685L1095.02 196.152L1094.16 197.694L1095.03 198.182ZM1114.49 233.102H1130.87V231.102H1114.49V233.102ZM1131.74 231.598L1104.73 185.262L1103 186.27L1130.01 232.606L1131.74 231.598ZM1104.72 186.277L1130.45 143.013L1128.73 141.991L1103 185.255L1104.72 186.277ZM1129.59 141.502H1113.85V143.502H1129.59V141.502ZM1112.98 142.009L1094.67 174.265L1096.41 175.252L1114.72 142.996L1112.98 142.009ZM1096.42 174.272L1078.5 142.016L1076.75 142.988L1094.67 175.244L1096.42 174.272ZM1077.62 141.502H1061.11V143.502H1077.62V141.502ZM1060.25 143.003L1085.72 187.035L1087.45 186.033L1061.98 142.001L1060.25 143.003ZM1085.72 186.028L1058.97 231.596L1060.69 232.608L1087.45 187.04L1085.72 186.028ZM1059.83 233.102H1076.09V231.102H1059.83V233.102ZM1076.96 232.59L1095.9 198.67L1094.16 197.694L1075.21 231.614L1076.96 232.59ZM1094.16 198.68L1113.62 232.6L1115.35 231.605L1095.9 197.685L1094.16 198.68Z" fill="black"/>
<path d="M193.975 376H225.335C248.119 376 262.711 360.768 262.711 331.2C262.711 302.016 248.119 286.4 225.335 286.4H193.975V376ZM225.335 299.456C239.287 299.456 247.735 309.184 247.735 331.2C247.735 352.832 239.287 362.944 225.335 362.944H208.567V299.456H225.335ZM319.25 376H333.842V286.4H319.25V376ZM457.227 371.52V329.92H443.403V362.816C439.819 363.712 436.491 364.096 433.035 364.096C415.499 364.096 405.259 353.088 405.259 331.2C405.259 309.184 415.755 298.176 432.523 298.176C438.923 298.176 444.939 299.072 452.491 302.4V288.96C446.731 286.272 440.075 284.864 432.267 284.864C408.203 284.864 390.283 301.76 390.283 331.2C390.283 360.64 407.051 377.536 432.139 377.536C442.251 377.536 450.059 374.72 457.227 371.52ZM515.425 376H530.017V286.4H515.425V376ZM651.866 299.456V286.4H582.234V299.456H609.754V376H624.346V299.456H651.866ZM703.972 318.912C713.572 318.912 719.716 311.104 719.716 296.64C719.716 288.32 715.492 284.864 710.116 284.864C705.124 284.864 701.54 288.448 701.54 293.696C701.54 298.176 704.484 301.376 708.836 302.144C708.836 307.776 706.404 310.08 702.692 310.08C701.412 310.08 700.26 309.952 698.98 309.568V318.144C700.388 318.656 702.18 318.912 703.972 318.912ZM810.96 344.512H786.256L798.544 304.448L810.96 344.512ZM820.688 376H836.304L806.608 286.4H790.992L761.296 376H776.656L782.416 357.312H814.928L820.688 376ZM919.617 299.456C932.161 299.456 937.793 303.68 937.793 313.792C937.793 323.904 932.161 328.128 919.617 328.128H902.977V299.456H919.617ZM938.305 376H955.201L934.465 338.24C944.705 335.168 952.385 327.616 952.385 313.792C952.385 293.824 937.281 286.4 920.641 286.4H888.385V376H902.977V341.184H920.129L938.305 376ZM1069.97 299.456V286.4H1000.33V299.456H1027.85V376H1042.45V299.456H1069.97ZM1143.96 377.536C1164.7 377.536 1175.58 367.168 1175.58 350.912C1175.58 322.88 1132.95 326.592 1132.95 308.672C1132.95 302.528 1136.79 298.176 1147.29 298.176C1155.22 298.176 1163.54 300.352 1173.53 304.832V290.752C1165.21 286.528 1156.25 284.864 1147.29 284.864C1129.37 284.864 1118.36 295.104 1118.36 309.568C1118.36 339.008 1160.98 334.144 1160.98 352.064C1160.98 359.488 1156.12 364.224 1143.96 364.224C1137.05 364.224 1128.09 362.56 1117.72 357.696V371.776C1126.42 375.872 1136.15 377.536 1143.96 377.536Z" fill="#4247C6"/>
<path d="M193.975 376H192.975V377H193.975V376ZM193.975 286.4V285.4H192.975V286.4H193.975ZM208.567 362.944H207.567V363.944H208.567V362.944ZM208.567 299.456V298.456H207.567V299.456H208.567ZM193.975 377H225.335V375H193.975V377ZM225.335 377C236.962 377 246.604 373.105 253.323 365.343C260.026 357.6 263.711 346.137 263.711 331.2H261.711C261.711 345.832 258.1 356.769 251.811 364.034C245.539 371.28 236.493 375 225.335 375V377ZM263.711 331.2C263.711 316.453 260.025 304.993 253.325 297.204C246.609 289.397 236.969 285.4 225.335 285.4V287.4C236.485 287.4 245.533 291.212 251.809 298.509C258.102 305.824 261.711 316.764 261.711 331.2H263.711ZM225.335 285.4H193.975V287.4H225.335V285.4ZM192.975 286.4V376H194.975V286.4H192.975ZM225.335 300.456C232.053 300.456 237.33 302.782 240.965 307.669C244.638 312.608 246.735 320.294 246.735 331.2H248.735C248.735 320.091 246.608 311.905 242.57 306.476C238.493 300.995 232.569 298.456 225.335 298.456V300.456ZM246.735 331.2C246.735 341.911 244.64 349.601 240.962 354.591C237.321 359.531 232.041 361.944 225.335 361.944V363.944C232.581 363.944 238.501 361.302 242.572 355.778C246.607 350.304 248.735 342.122 248.735 331.2H246.735ZM225.335 361.944H208.567V363.944H225.335V361.944ZM209.567 362.944V299.456H207.567V362.944H209.567ZM208.567 300.456H225.335V298.456H208.567V300.456ZM319.25 376H318.25V377H319.25V376ZM333.842 376V377H334.842V376H333.842ZM333.842 286.4H334.842V285.4H333.842V286.4ZM319.25 286.4V285.4H318.25V286.4H319.25ZM319.25 377H333.842V375H319.25V377ZM334.842 376V286.4H332.842V376H334.842ZM333.842 285.4H319.25V287.4H333.842V285.4ZM318.25 286.4V376H320.25V286.4H318.25ZM457.227 371.52L457.635 372.434L458.227 372.169V371.52H457.227ZM457.227 329.92H458.227V328.92H457.227V329.92ZM443.403 329.92V328.92H442.403V329.92H443.403ZM443.403 362.816L443.646 363.787L444.403 363.597V362.816H443.403ZM452.491 302.4L452.088 303.316L453.491 303.934V302.4H452.491ZM452.491 288.96H453.491V288.324L452.914 288.054L452.491 288.96ZM458.227 371.52V329.92H456.227V371.52H458.227ZM457.227 328.92H443.403V330.92H457.227V328.92ZM442.403 329.92V362.816H444.403V329.92H442.403ZM443.161 361.846C439.658 362.722 436.412 363.096 433.035 363.096V365.096C436.571 365.096 439.98 364.703 443.646 363.787L443.161 361.846ZM433.035 363.096C424.485 363.096 417.846 360.421 413.327 355.202C408.788 349.96 406.259 342.005 406.259 331.2H404.259C404.259 342.284 406.85 350.777 411.815 356.511C416.8 362.268 424.05 365.096 433.035 365.096V363.096ZM406.259 331.2C406.259 320.337 408.85 312.346 413.362 307.083C417.855 301.844 424.369 299.176 432.523 299.176V297.176C423.909 297.176 416.791 300.013 411.844 305.782C406.917 311.527 404.259 320.048 404.259 331.2H406.259ZM432.523 299.176C438.803 299.176 444.679 300.05 452.088 303.316L452.894 301.485C445.2 298.094 439.044 297.176 432.523 297.176V299.176ZM453.491 302.4V288.96H451.491V302.4H453.491ZM452.914 288.054C447.002 285.295 440.198 283.864 432.267 283.864V285.864C439.952 285.864 446.46 287.25 452.068 289.867L452.914 288.054ZM432.267 283.864C419.994 283.864 409.224 288.178 401.525 296.305C393.829 304.429 389.283 316.276 389.283 331.2H391.283C391.283 316.685 395.698 305.364 402.977 297.68C410.254 289.999 420.476 285.864 432.267 285.864V283.864ZM389.283 331.2C389.283 346.107 393.531 357.957 401.07 366.088C408.616 374.228 419.363 378.536 432.139 378.536V376.536C419.828 376.536 409.646 372.397 402.537 364.729C395.42 357.052 391.283 345.734 391.283 331.2H389.283ZM432.139 378.536C442.454 378.536 450.412 375.658 457.635 372.434L456.82 370.607C449.707 373.783 442.048 376.536 432.139 376.536V378.536ZM515.425 376H514.425V377H515.425V376ZM530.017 376V377H531.017V376H530.017ZM530.017 286.4H531.017V285.4H530.017V286.4ZM515.425 286.4V285.4H514.425V286.4H515.425ZM515.425 377H530.017V375H515.425V377ZM531.017 376V286.4H529.017V376H531.017ZM530.017 285.4H515.425V287.4H530.017V285.4ZM514.425 286.4V376H516.425V286.4H514.425ZM651.866 299.456V300.456H652.866V299.456H651.866ZM651.866 286.4H652.866V285.4H651.866V286.4ZM582.234 286.4V285.4H581.234V286.4H582.234ZM582.234 299.456H581.234V300.456H582.234V299.456ZM609.754 299.456H610.754V298.456H609.754V299.456ZM609.754 376H608.754V377H609.754V376ZM624.346 376V377H625.346V376H624.346ZM624.346 299.456V298.456H623.346V299.456H624.346ZM652.866 299.456V286.4H650.866V299.456H652.866ZM651.866 285.4H582.234V287.4H651.866V285.4ZM581.234 286.4V299.456H583.234V286.4H581.234ZM582.234 300.456H609.754V298.456H582.234V300.456ZM608.754 299.456V376H610.754V299.456H608.754ZM609.754 377H624.346V375H609.754V377ZM625.346 376V299.456H623.346V376H625.346ZM624.346 300.456H651.866V298.456H624.346V300.456ZM708.836 302.144H709.836V301.306L709.01 301.16L708.836 302.144ZM698.98 309.568L699.268 308.611L697.98 308.224V309.568H698.98ZM698.98 318.144H697.98V318.845L698.638 319.084L698.98 318.144ZM703.972 319.912C709.078 319.912 713.32 317.819 716.253 313.789C719.157 309.798 720.716 303.996 720.716 296.64H718.716C718.716 303.749 717.204 309.083 714.636 312.612C712.096 316.102 708.466 317.912 703.972 317.912V319.912ZM720.716 296.64C720.716 292.32 719.619 289.105 717.673 286.96C715.716 284.805 713.023 283.864 710.116 283.864V285.864C712.586 285.864 714.692 286.652 716.192 288.305C717.702 289.968 718.716 292.641 718.716 296.64H720.716ZM710.116 283.864C707.374 283.864 704.965 284.853 703.242 286.613C701.519 288.371 700.54 290.84 700.54 293.696H702.54C702.54 291.305 703.353 289.358 704.671 288.012C705.988 286.668 707.867 285.864 710.116 285.864V283.864ZM700.54 293.696C700.54 298.701 703.873 302.284 708.662 303.129L709.01 301.16C705.096 300.469 702.54 297.652 702.54 293.696H700.54ZM707.836 302.144C707.836 304.838 707.252 306.553 706.39 307.582C705.554 308.58 704.333 309.08 702.692 309.08V311.08C704.764 311.08 706.615 310.428 707.923 308.867C709.205 307.336 709.836 305.083 709.836 302.144H707.836ZM702.692 309.08C701.488 309.08 700.436 308.961 699.268 308.611L698.693 310.526C700.084 310.944 701.336 311.08 702.692 311.08V309.08ZM697.98 309.568V318.144H699.98V309.568H697.98ZM698.638 319.084C700.185 319.647 702.099 319.912 703.972 319.912V317.912C702.261 317.912 700.591 317.666 699.322 317.205L698.638 319.084ZM810.96 344.512V345.512H812.317L811.915 344.216L810.96 344.512ZM786.256 344.512L785.3 344.219L784.904 345.512H786.256V344.512ZM798.544 304.448L799.499 304.152L798.539 301.054L797.588 304.155L798.544 304.448ZM820.688 376L819.733 376.295L819.95 377H820.688V376ZM836.304 376V377H837.689L837.253 375.686L836.304 376ZM806.608 286.4L807.557 286.086L807.33 285.4H806.608V286.4ZM790.992 286.4V285.4H790.27L790.043 286.086L790.992 286.4ZM761.296 376L760.347 375.686L759.911 377H761.296V376ZM776.656 376V377H777.394L777.612 376.295L776.656 376ZM782.416 357.312V356.312H781.678L781.461 357.018L782.416 357.312ZM814.928 357.312L815.884 357.018L815.666 356.312H814.928V357.312ZM810.96 343.512H786.256V345.512H810.96V343.512ZM787.212 344.806L799.5 304.742L797.588 304.155L785.3 344.219L787.212 344.806ZM797.589 304.745L810.005 344.809L811.915 344.216L799.499 304.152L797.589 304.745ZM820.688 377H836.304V375H820.688V377ZM837.253 375.686L807.557 286.086L805.659 286.715L835.355 376.315L837.253 375.686ZM806.608 285.4H790.992V287.4H806.608V285.4ZM790.043 286.086L760.347 375.686L762.245 376.315L791.941 286.715L790.043 286.086ZM761.296 377H776.656V375H761.296V377ZM777.612 376.295L783.372 357.607L781.461 357.018L775.701 375.706L777.612 376.295ZM782.416 358.312H814.928V356.312H782.416V358.312ZM813.973 357.607L819.733 376.295L821.644 375.706L815.884 357.018L813.973 357.607ZM902.977 328.128H901.977V329.128H902.977V328.128ZM902.977 299.456V298.456H901.977V299.456H902.977ZM938.305 376L937.419 376.463L937.699 377H938.305V376ZM955.201 376V377H956.891L956.078 375.519L955.201 376ZM934.465 338.24L934.178 337.283L932.993 337.638L933.589 338.722L934.465 338.24ZM888.385 286.4V285.4H887.385V286.4H888.385ZM888.385 376H887.385V377H888.385V376ZM902.977 376V377H903.977V376H902.977ZM902.977 341.184V340.184H901.977V341.184H902.977ZM920.129 341.184L921.016 340.722L920.735 340.184H920.129V341.184ZM919.617 300.456C925.817 300.456 930.084 301.508 932.794 303.621C935.446 305.688 936.793 308.924 936.793 313.792H938.793C938.793 308.549 937.324 304.617 934.024 302.044C930.782 299.517 925.962 298.456 919.617 298.456V300.456ZM936.793 313.792C936.793 318.661 935.446 321.897 932.794 323.964C930.084 326.077 925.817 327.128 919.617 327.128V329.128C925.962 329.128 930.782 328.068 934.024 325.541C937.324 322.968 938.793 319.036 938.793 313.792H936.793ZM919.617 327.128H902.977V329.128H919.617V327.128ZM903.977 328.128V299.456H901.977V328.128H903.977ZM902.977 300.456H919.617V298.456H902.977V300.456ZM938.305 377H955.201V375H938.305V377ZM956.078 375.519L935.342 337.759L933.589 338.722L954.325 376.482L956.078 375.519ZM934.753 339.198C940.02 337.618 944.692 334.866 948.046 330.673C951.407 326.472 953.385 320.899 953.385 313.792H951.385C951.385 320.51 949.523 325.625 946.484 329.424C943.439 333.231 939.15 335.791 934.178 337.283L934.753 339.198ZM953.385 313.792C953.385 303.522 949.483 296.364 943.35 291.806C937.262 287.282 929.089 285.4 920.641 285.4V287.4C928.834 287.4 936.532 289.231 942.157 293.411C947.736 297.557 951.385 304.095 951.385 313.792H953.385ZM920.641 285.4H888.385V287.4H920.641V285.4ZM887.385 286.4V376H889.385V286.4H887.385ZM888.385 377H902.977V375H888.385V377ZM903.977 376V341.184H901.977V376H903.977ZM902.977 342.184H920.129V340.184H902.977V342.184ZM919.243 341.647L937.419 376.463L939.192 375.538L921.016 340.722L919.243 341.647ZM1069.97 299.456V300.456H1070.97V299.456H1069.97ZM1069.97 286.4H1070.97V285.4H1069.97V286.4ZM1000.33 286.4V285.4H999.334V286.4H1000.33ZM1000.33 299.456H999.334V300.456H1000.33V299.456ZM1027.85 299.456H1028.85V298.456H1027.85V299.456ZM1027.85 376H1026.85V377H1027.85V376ZM1042.45 376V377H1043.45V376H1042.45ZM1042.45 299.456V298.456H1041.45V299.456H1042.45ZM1070.97 299.456V286.4H1068.97V299.456H1070.97ZM1069.97 285.4H1000.33V287.4H1069.97V285.4ZM999.334 286.4V299.456H1001.33V286.4H999.334ZM1000.33 300.456H1027.85V298.456H1000.33V300.456ZM1026.85 299.456V376H1028.85V299.456H1026.85ZM1027.85 377H1042.45V375H1027.85V377ZM1043.45 376V299.456H1041.45V376H1043.45ZM1042.45 300.456H1069.97V298.456H1042.45V300.456ZM1173.53 304.832L1173.12 305.745L1174.53 306.377V304.832H1173.53ZM1173.53 290.752H1174.53V290.139L1173.98 289.861L1173.53 290.752ZM1117.72 357.696L1118.14 356.791L1116.72 356.123V357.696H1117.72ZM1117.72 371.776H1116.72V372.411L1117.29 372.681L1117.72 371.776ZM1143.96 378.536C1154.48 378.536 1162.65 375.906 1168.2 371.075C1173.77 366.228 1176.58 359.275 1176.58 350.912H1174.58C1174.58 358.806 1171.94 365.165 1166.89 369.566C1161.81 373.983 1154.17 376.536 1143.96 376.536V378.536ZM1176.58 350.912C1176.58 343.607 1173.78 338.332 1169.61 334.289C1165.48 330.284 1160.01 327.501 1154.68 325.089C1149.27 322.646 1144.07 320.607 1140.16 318.053C1136.29 315.524 1133.95 312.661 1133.95 308.672H1131.95C1131.95 313.644 1134.95 317.037 1139.07 319.728C1143.15 322.394 1148.6 324.538 1153.85 326.912C1159.17 329.316 1164.36 331.981 1168.22 335.724C1172.04 339.429 1174.58 344.201 1174.58 350.912H1176.58ZM1133.95 308.672C1133.95 305.82 1134.83 303.515 1136.82 301.895C1138.84 300.245 1142.15 299.176 1147.29 299.176V297.176C1141.93 297.176 1138.08 298.284 1135.55 300.346C1132.99 302.438 1131.95 305.381 1131.95 308.672H1133.95ZM1147.29 299.176C1155.03 299.176 1163.21 301.299 1173.12 305.745L1173.94 303.92C1163.88 299.406 1155.41 297.176 1147.29 297.176V299.176ZM1174.53 304.832V290.752H1172.53V304.832H1174.53ZM1173.98 289.861C1165.49 285.552 1156.37 283.864 1147.29 283.864V285.864C1156.12 285.864 1164.92 287.505 1173.08 291.644L1173.98 289.861ZM1147.29 283.864C1138.14 283.864 1130.66 286.479 1125.45 291.04C1120.22 295.61 1117.36 302.067 1117.36 309.568H1119.36C1119.36 302.606 1122 296.711 1126.76 292.545C1131.53 288.37 1138.51 285.864 1147.29 285.864V283.864ZM1117.36 309.568C1117.36 317.21 1120.14 322.677 1124.32 326.818C1128.45 330.921 1133.93 333.693 1139.27 336.051C1144.68 338.441 1149.88 340.379 1153.79 342.85C1157.66 345.293 1159.98 348.083 1159.98 352.064H1161.98C1161.98 347.086 1158.98 343.764 1154.86 341.159C1150.78 338.582 1145.32 336.536 1140.08 334.222C1134.76 331.875 1129.58 329.224 1125.72 325.399C1121.91 321.612 1119.36 316.647 1119.36 309.568H1117.36ZM1159.98 352.064C1159.98 355.54 1158.86 358.255 1156.42 360.137C1153.94 362.056 1149.94 363.224 1143.96 363.224V365.224C1150.14 365.224 1154.66 364.025 1157.64 361.72C1160.68 359.378 1161.98 356.013 1161.98 352.064H1159.98ZM1143.96 363.224C1137.21 363.224 1128.39 361.598 1118.14 356.791L1117.3 358.602C1127.78 363.523 1136.89 365.224 1143.96 365.224V363.224ZM1116.72 357.696V371.776H1118.72V357.696H1116.72ZM1117.29 372.681C1126.15 376.849 1136.03 378.536 1143.96 378.536V376.536C1136.28 376.536 1126.7 374.896 1118.15 370.872L1117.29 372.681Z" fill="black"/>
<path d="M187.169 371H218.529C241.313 371 255.905 355.768 255.905 326.2C255.905 297.016 241.313 281.4 218.529 281.4H187.169V371ZM218.529 294.456C232.481 294.456 240.929 304.184 240.929 326.2C240.929 347.832 232.481 357.944 218.529 357.944H201.761V294.456H218.529ZM312.444 371H327.036V281.4H312.444V371ZM450.421 366.52V324.92H436.597V357.816C433.013 358.712 429.685 359.096 426.229 359.096C408.693 359.096 398.453 348.088 398.453 326.2C398.453 304.184 408.949 293.176 425.717 293.176C432.117 293.176 438.133 294.072 445.685 297.4V283.96C439.925 281.272 433.269 279.864 425.461 279.864C401.397 279.864 383.477 296.76 383.477 326.2C383.477 355.64 400.245 372.536 425.333 372.536C435.445 372.536 443.253 369.72 450.421 366.52ZM508.619 371H523.211V281.4H508.619V371ZM645.06 294.456V281.4H575.428V294.456H602.948V371H617.54V294.456H645.06ZM697.166 313.912C706.766 313.912 712.91 306.104 712.91 291.64C712.91 283.32 708.686 279.864 703.31 279.864C698.318 279.864 694.734 283.448 694.734 288.696C694.734 293.176 697.678 296.376 702.03 297.144C702.03 302.776 699.598 305.08 695.886 305.08C694.606 305.08 693.454 304.952 692.174 304.568V313.144C693.582 313.656 695.374 313.912 697.166 313.912ZM804.154 339.512H779.45L791.738 299.448L804.154 339.512ZM813.882 371H829.498L799.802 281.4H784.186L754.49 371H769.85L775.61 352.312H808.122L813.882 371ZM912.811 294.456C925.355 294.456 930.987 298.68 930.987 308.792C930.987 318.904 925.355 323.128 912.811 323.128H896.171V294.456H912.811ZM931.499 371H948.395L927.659 333.24C937.899 330.168 945.579 322.616 945.579 308.792C945.579 288.824 930.475 281.4 913.835 281.4H881.579V371H896.171V336.184H913.323L931.499 371ZM1063.16 294.456V281.4H993.528V294.456H1021.05V371H1035.64V294.456H1063.16ZM1137.15 372.536C1157.89 372.536 1168.77 362.168 1168.77 345.912C1168.77 317.88 1126.15 321.592 1126.15 303.672C1126.15 297.528 1129.99 293.176 1140.48 293.176C1148.42 293.176 1156.74 295.352 1166.72 299.832V285.752C1158.4 281.528 1149.44 279.864 1140.48 279.864C1122.56 279.864 1111.55 290.104 1111.55 304.568C1111.55 334.008 1154.18 329.144 1154.18 347.064C1154.18 354.488 1149.31 359.224 1137.15 359.224C1130.24 359.224 1121.28 357.56 1110.91 352.696V366.776C1119.62 370.872 1129.35 372.536 1137.15 372.536Z" fill="white"/>
<path d="M187.169 371H186.169V372H187.169V371ZM187.169 281.4V280.4H186.169V281.4H187.169ZM201.761 357.944H200.761V358.944H201.761V357.944ZM201.761 294.456V293.456H200.761V294.456H201.761ZM187.169 372H218.529V370H187.169V372ZM218.529 372C230.155 372 239.797 368.105 246.517 360.343C253.219 352.6 256.905 341.137 256.905 326.2H254.905C254.905 340.832 251.294 351.769 245.005 359.034C238.732 366.28 229.686 370 218.529 370V372ZM256.905 326.2C256.905 311.453 253.218 299.993 246.519 292.204C239.803 284.397 230.162 280.4 218.529 280.4V282.4C229.679 282.4 238.727 286.212 245.002 293.509C251.295 300.824 254.905 311.764 254.905 326.2H256.905ZM218.529 280.4H187.169V282.4H218.529V280.4ZM186.169 281.4V371H188.169V281.4H186.169ZM218.529 295.456C225.247 295.456 230.523 297.782 234.158 302.669C237.832 307.608 239.929 315.294 239.929 326.2H241.929C241.929 315.091 239.802 306.905 235.763 301.476C231.686 295.995 225.762 293.456 218.529 293.456V295.456ZM239.929 326.2C239.929 336.911 237.833 344.601 234.156 349.591C230.515 354.531 225.235 356.944 218.529 356.944V358.944C225.775 358.944 231.694 356.302 235.766 350.778C239.8 345.304 241.929 337.122 241.929 326.2H239.929ZM218.529 356.944H201.761V358.944H218.529V356.944ZM202.761 357.944V294.456H200.761V357.944H202.761ZM201.761 295.456H218.529V293.456H201.761V295.456ZM312.444 371H311.444V372H312.444V371ZM327.036 371V372H328.036V371H327.036ZM327.036 281.4H328.036V280.4H327.036V281.4ZM312.444 281.4V280.4H311.444V281.4H312.444ZM312.444 372H327.036V370H312.444V372ZM328.036 371V281.4H326.036V371H328.036ZM327.036 280.4H312.444V282.4H327.036V280.4ZM311.444 281.4V371H313.444V281.4H311.444ZM450.421 366.52L450.828 367.434L451.421 367.169V366.52H450.421ZM450.421 324.92H451.421V323.92H450.421V324.92ZM436.597 324.92V323.92H435.597V324.92H436.597ZM436.597 357.816L436.839 358.787L437.597 358.597V357.816H436.597ZM445.685 297.4L445.281 298.316L446.685 298.934V297.4H445.685ZM445.685 283.96H446.685V283.324L446.107 283.054L445.685 283.96ZM451.421 366.52V324.92H449.421V366.52H451.421ZM450.421 323.92H436.597V325.92H450.421V323.92ZM435.597 324.92V357.816H437.597V324.92H435.597ZM436.354 356.846C432.851 357.722 429.605 358.096 426.229 358.096V360.096C429.764 360.096 433.174 359.703 436.839 358.787L436.354 356.846ZM426.229 358.096C417.678 358.096 411.04 355.421 406.521 350.202C401.981 344.96 399.453 337.005 399.453 326.2H397.453C397.453 337.284 400.044 345.777 405.009 351.511C409.993 357.268 417.243 360.096 426.229 360.096V358.096ZM399.453 326.2C399.453 315.337 402.043 307.346 406.556 302.083C411.049 296.844 417.563 294.176 425.717 294.176V292.176C417.103 292.176 409.984 295.013 405.037 300.782C400.11 306.527 397.453 315.048 397.453 326.2H399.453ZM425.717 294.176C431.996 294.176 437.872 295.05 445.281 298.316L446.088 296.485C438.393 293.094 432.237 292.176 425.717 292.176V294.176ZM446.685 297.4V283.96H444.685V297.4H446.685ZM446.107 283.054C440.196 280.295 433.392 278.864 425.461 278.864V280.864C433.146 280.864 439.654 282.25 445.262 284.867L446.107 283.054ZM425.461 278.864C413.188 278.864 402.417 283.178 394.719 291.305C387.022 299.429 382.477 311.276 382.477 326.2H384.477C384.477 311.685 388.891 300.364 396.171 292.68C403.448 284.999 413.67 280.864 425.461 280.864V278.864ZM382.477 326.2C382.477 341.107 386.724 352.957 394.263 361.088C401.81 369.228 412.556 373.536 425.333 373.536V371.536C413.021 371.536 402.84 367.397 395.73 359.729C388.613 352.052 384.477 340.734 384.477 326.2H382.477ZM425.333 373.536C435.648 373.536 443.605 370.658 450.828 367.434L450.013 365.607C442.9 368.783 435.242 371.536 425.333 371.536V373.536ZM508.619 371H507.619V372H508.619V371ZM523.211 371V372H524.211V371H523.211ZM523.211 281.4H524.211V280.4H523.211V281.4ZM508.619 281.4V280.4H507.619V281.4H508.619ZM508.619 372H523.211V370H508.619V372ZM524.211 371V281.4H522.211V371H524.211ZM523.211 280.4H508.619V282.4H523.211V280.4ZM507.619 281.4V371H509.619V281.4H507.619ZM645.06 294.456V295.456H646.06V294.456H645.06ZM645.06 281.4H646.06V280.4H645.06V281.4ZM575.428 281.4V280.4H574.428V281.4H575.428ZM575.428 294.456H574.428V295.456H575.428V294.456ZM602.948 294.456H603.948V293.456H602.948V294.456ZM602.948 371H601.948V372H602.948V371ZM617.54 371V372H618.54V371H617.54ZM617.54 294.456V293.456H616.54V294.456H617.54ZM646.06 294.456V281.4H644.06V294.456H646.06ZM645.06 280.4H575.428V282.4H645.06V280.4ZM574.428 281.4V294.456H576.428V281.4H574.428ZM575.428 295.456H602.948V293.456H575.428V295.456ZM601.948 294.456V371H603.948V294.456H601.948ZM602.948 372H617.54V370H602.948V372ZM618.54 371V294.456H616.54V371H618.54ZM617.54 295.456H645.06V293.456H617.54V295.456ZM702.03 297.144H703.03V296.306L702.203 296.16L702.03 297.144ZM692.174 304.568L692.461 303.611L691.174 303.224V304.568H692.174ZM692.174 313.144H691.174V313.845L691.832 314.084L692.174 313.144ZM697.166 314.912C702.271 314.912 706.514 312.819 709.446 308.789C712.35 304.798 713.91 298.996 713.91 291.64H711.91C711.91 298.749 710.397 304.083 707.829 307.612C705.289 311.102 701.66 312.912 697.166 312.912V314.912ZM713.91 291.64C713.91 287.32 712.812 284.105 710.866 281.96C708.91 279.805 706.216 278.864 703.31 278.864V280.864C705.779 280.864 707.885 281.652 709.385 283.305C710.895 284.968 711.91 287.641 711.91 291.64H713.91ZM703.31 278.864C700.567 278.864 698.158 279.853 696.435 281.613C694.713 283.371 693.734 285.84 693.734 288.696H695.734C695.734 286.305 696.546 284.358 697.864 283.012C699.181 281.668 701.06 280.864 703.31 280.864V278.864ZM693.734 288.696C693.734 293.701 697.066 297.284 701.856 298.129L702.203 296.16C698.289 295.469 695.734 292.652 695.734 288.696H693.734ZM701.03 297.144C701.03 299.838 700.445 301.553 699.583 302.582C698.747 303.58 697.526 304.08 695.886 304.08V306.08C697.957 306.08 699.808 305.428 701.116 303.867C702.398 302.336 703.03 300.083 703.03 297.144H701.03ZM695.886 304.08C694.682 304.08 693.629 303.961 692.461 303.611L691.886 305.526C693.278 305.944 694.529 306.08 695.886 306.08V304.08ZM691.174 304.568V313.144H693.174V304.568H691.174ZM691.832 314.084C693.378 314.647 695.293 314.912 697.166 314.912V312.912C695.455 312.912 693.785 312.666 692.515 312.205L691.832 314.084ZM804.154 339.512V340.512H805.51L805.109 339.216L804.154 339.512ZM779.45 339.512L778.494 339.219L778.097 340.512H779.45V339.512ZM791.738 299.448L792.693 299.152L791.733 296.054L790.782 299.155L791.738 299.448ZM813.882 371L812.926 371.295L813.143 372H813.882V371ZM829.498 371V372H830.883L830.447 370.686L829.498 371ZM799.802 281.4L800.751 281.086L800.524 280.4H799.802V281.4ZM784.186 281.4V280.4H783.464L783.236 281.086L784.186 281.4ZM754.49 371L753.54 370.686L753.105 372H754.49V371ZM769.85 371V372H770.588L770.805 371.295L769.85 371ZM775.61 352.312V351.312H774.871L774.654 352.018L775.61 352.312ZM808.122 352.312L809.077 352.018L808.86 351.312H808.122V352.312ZM804.154 338.512H779.45V340.512H804.154V338.512ZM780.406 339.806L792.694 299.742L790.782 299.155L778.494 339.219L780.406 339.806ZM790.782 299.745L803.198 339.809L805.109 339.216L792.693 299.152L790.782 299.745ZM813.882 372H829.498V370H813.882V372ZM830.447 370.686L800.751 281.086L798.852 281.715L828.548 371.315L830.447 370.686ZM799.802 280.4H784.186V282.4H799.802V280.4ZM783.236 281.086L753.54 370.686L755.439 371.315L785.135 281.715L783.236 281.086ZM754.49 372H769.85V370H754.49V372ZM770.805 371.295L776.565 352.607L774.654 352.018L768.894 370.706L770.805 371.295ZM775.61 353.312H808.122V351.312H775.61V353.312ZM807.166 352.607L812.926 371.295L814.837 370.706L809.077 352.018L807.166 352.607ZM896.171 323.128H895.171V324.128H896.171V323.128ZM896.171 294.456V293.456H895.171V294.456H896.171ZM931.499 371L930.612 371.463L930.893 372H931.499V371ZM948.395 371V372H950.085L949.271 370.519L948.395 371ZM927.659 333.24L927.371 332.283L926.187 332.638L926.782 333.722L927.659 333.24ZM881.579 281.4V280.4H880.579V281.4H881.579ZM881.579 371H880.579V372H881.579V371ZM896.171 371V372H897.171V371H896.171ZM896.171 336.184V335.184H895.171V336.184H896.171ZM913.323 336.184L914.209 335.722L913.929 335.184H913.323V336.184ZM912.811 295.456C919.01 295.456 923.277 296.508 925.988 298.621C928.639 300.688 929.987 303.924 929.987 308.792H931.987C931.987 303.549 930.518 299.617 927.217 297.044C923.976 294.517 919.155 293.456 912.811 293.456V295.456ZM929.987 308.792C929.987 313.661 928.639 316.897 925.988 318.964C923.277 321.077 919.01 322.128 912.811 322.128V324.128C919.155 324.128 923.976 323.068 927.217 320.541C930.518 317.968 931.987 314.036 931.987 308.792H929.987ZM912.811 322.128H896.171V324.128H912.811V322.128ZM897.171 323.128V294.456H895.171V323.128H897.171ZM896.171 295.456H912.811V293.456H896.171V295.456ZM931.499 372H948.395V370H931.499V372ZM949.271 370.519L928.535 332.759L926.782 333.722L947.518 371.482L949.271 370.519ZM927.946 334.198C933.214 332.618 937.885 329.866 941.239 325.673C944.6 321.472 946.579 315.899 946.579 308.792H944.579C944.579 315.51 942.717 320.625 939.678 324.424C936.632 328.231 932.343 330.791 927.371 332.283L927.946 334.198ZM946.579 308.792C946.579 298.522 942.676 291.364 936.543 286.806C930.456 282.282 922.282 280.4 913.835 280.4V282.4C922.027 282.4 929.726 284.231 935.35 288.411C940.929 292.557 944.579 299.095 944.579 308.792H946.579ZM913.835 280.4H881.579V282.4H913.835V280.4ZM880.579 281.4V371H882.579V281.4H880.579ZM881.579 372H896.171V370H881.579V372ZM897.171 371V336.184H895.171V371H897.171ZM896.171 337.184H913.323V335.184H896.171V337.184ZM912.436 336.647L930.612 371.463L932.385 370.538L914.209 335.722L912.436 336.647ZM1063.16 294.456V295.456H1064.16V294.456H1063.16ZM1063.16 281.4H1064.16V280.4H1063.16V281.4ZM993.528 281.4V280.4H992.528V281.4H993.528ZM993.528 294.456H992.528V295.456H993.528V294.456ZM1021.05 294.456H1022.05V293.456H1021.05V294.456ZM1021.05 371H1020.05V372H1021.05V371ZM1035.64 371V372H1036.64V371H1035.64ZM1035.64 294.456V293.456H1034.64V294.456H1035.64ZM1064.16 294.456V281.4H1062.16V294.456H1064.16ZM1063.16 280.4H993.528V282.4H1063.16V280.4ZM992.528 281.4V294.456H994.528V281.4H992.528ZM993.528 295.456H1021.05V293.456H993.528V295.456ZM1020.05 294.456V371H1022.05V294.456H1020.05ZM1021.05 372H1035.64V370H1021.05V372ZM1036.64 371V294.456H1034.64V371H1036.64ZM1035.64 295.456H1063.16V293.456H1035.64V295.456ZM1166.72 299.832L1166.31 300.745L1167.72 301.377V299.832H1166.72ZM1166.72 285.752H1167.72V285.139L1167.17 284.861L1166.72 285.752ZM1110.91 352.696L1111.34 351.791L1109.91 351.123V352.696H1110.91ZM1110.91 366.776H1109.91V367.411L1110.49 367.681L1110.91 366.776ZM1137.15 373.536C1147.68 373.536 1155.84 370.906 1161.39 366.075C1166.96 361.228 1169.77 354.275 1169.77 345.912H1167.77C1167.77 353.806 1165.14 360.165 1160.08 364.566C1155.01 368.983 1147.37 371.536 1137.15 371.536V373.536ZM1169.77 345.912C1169.77 338.607 1166.98 333.332 1162.81 329.289C1158.67 325.284 1153.21 322.501 1147.87 320.089C1142.46 317.646 1137.26 315.607 1133.35 313.053C1129.48 310.524 1127.15 307.661 1127.15 303.672H1125.15C1125.15 308.644 1128.14 312.037 1132.26 314.728C1136.34 317.394 1141.79 319.538 1147.05 321.912C1152.37 324.316 1157.55 326.981 1161.41 330.724C1165.24 334.429 1167.77 339.201 1167.77 345.912H1169.77ZM1127.15 303.672C1127.15 300.82 1128.03 298.515 1130.01 296.895C1132.03 295.245 1135.35 294.176 1140.48 294.176V292.176C1135.12 292.176 1131.27 293.284 1128.74 295.346C1126.18 297.438 1125.15 300.381 1125.15 303.672H1127.15ZM1140.48 294.176C1148.23 294.176 1156.4 296.299 1166.31 300.745L1167.13 298.92C1157.07 294.406 1148.61 292.176 1140.48 292.176V294.176ZM1167.72 299.832V285.752H1165.72V299.832H1167.72ZM1167.17 284.861C1158.69 280.552 1149.57 278.864 1140.48 278.864V280.864C1149.32 280.864 1158.12 282.505 1166.27 286.644L1167.17 284.861ZM1140.48 278.864C1131.33 278.864 1123.85 281.479 1118.64 286.04C1113.42 290.61 1110.55 297.067 1110.55 304.568H1112.55C1112.55 297.606 1115.2 291.711 1119.96 287.545C1124.73 283.37 1131.71 280.864 1140.48 280.864V278.864ZM1110.55 304.568C1110.55 312.21 1113.33 317.677 1117.51 321.818C1121.65 325.921 1127.12 328.693 1132.46 331.051C1137.88 333.441 1143.07 335.379 1146.98 337.85C1150.85 340.293 1153.18 343.083 1153.18 347.064H1155.18C1155.18 342.086 1152.18 338.764 1148.05 336.159C1143.97 333.582 1138.51 331.536 1133.27 329.222C1127.95 326.875 1122.77 324.224 1118.92 320.399C1115.1 316.612 1112.55 311.647 1112.55 304.568H1110.55ZM1153.18 347.064C1153.18 350.54 1152.05 353.255 1149.61 355.137C1147.13 357.056 1143.13 358.224 1137.15 358.224V360.224C1143.34 360.224 1147.85 359.025 1150.84 356.72C1153.87 354.378 1155.18 351.013 1155.18 347.064H1153.18ZM1137.15 358.224C1130.4 358.224 1121.59 356.598 1111.34 351.791L1110.49 353.602C1120.98 358.523 1130.08 360.224 1137.15 360.224V358.224ZM1109.91 352.696V366.776H1111.91V352.696H1109.91ZM1110.49 367.681C1119.34 371.849 1129.22 373.536 1137.15 373.536V371.536C1129.47 371.536 1119.89 369.896 1111.34 365.872L1110.49 367.681Z" fill="black"/>
<path d="M680.734 467.509C680.734 466.404 679.839 465.509 678.734 465.509C677.63 465.509 676.734 466.404 676.734 467.509H680.734ZM677.32 513.461C678.101 514.242 679.368 514.242 680.149 513.461L692.877 500.733C693.658 499.952 693.658 498.686 692.877 497.905C692.096 497.124 690.829 497.124 690.048 497.905L678.734 509.218L667.421 497.905C666.64 497.124 665.373 497.124 664.592 497.905C663.811 498.686 663.811 499.952 664.592 500.733L677.32 513.461ZM676.734 467.509V512.047H680.734V467.509H676.734Z" fill="black"/>
<rect x="656.274" y="461.963" width="44.7364" height="55.6299" rx="22.3682" stroke="black" stroke-width="0.5"/>
</svg>
