<svg width="394" height="97" viewBox="0 0 394 97" fill="none" xmlns="http://www.w3.org/2000/svg">
<path d="M15.8885 76.8281H51.0085V68.6681H25.0085V52.4281H47.3285V44.2681H25.0085V28.9881H51.0085V20.8281H15.8885V76.8281ZM92.4566 48.8281C92.4566 35.0681 98.6966 28.1881 108.697 28.1881C112.457 28.1881 115.897 28.8281 120.377 30.8281V22.4281C116.937 20.8281 113.097 19.8681 108.537 19.8681C93.9766 19.8681 83.0966 30.4281 83.0966 48.8281C83.0966 67.2281 93.5766 77.7881 109.257 77.7881C114.057 77.7881 117.817 76.7481 121.177 75.2281V66.8281C116.777 68.7481 113.497 69.3881 109.817 69.3881C98.8566 69.3881 92.4566 62.5081 92.4566 48.8281ZM174.727 28.9881C182.567 28.9881 186.087 31.6281 186.087 37.9481C186.087 44.2681 182.567 46.9081 174.727 46.9081H164.327V28.9881H174.727ZM186.407 76.8281H196.967L184.007 53.2281C190.407 51.3081 195.207 46.5881 195.207 37.9481C195.207 25.4681 185.767 20.8281 175.367 20.8281H155.207V76.8281H164.327V55.0681H175.047L186.407 76.8281ZM230.935 76.8281H240.055V20.8281H230.935V76.8281ZM297.571 28.9881C305.411 28.9881 308.931 31.6281 308.931 37.9481C308.931 44.2681 305.411 46.9081 297.571 46.9081H287.171V28.9881H297.571ZM309.251 76.8281H319.811L306.851 53.2281C313.251 51.3081 318.051 46.5881 318.051 37.9481C318.051 25.4681 308.611 20.8281 298.211 20.8281H278.051V76.8281H287.171V55.0681H297.891L309.251 76.8281ZM353.779 76.8281H388.899V68.6681H362.899V52.4281H385.219V44.2681H362.899V28.9881H388.899V20.8281H353.779V76.8281Z" fill="white"/>
<path d="M15.8885 76.8281H14.8885V77.8281H15.8885V76.8281ZM51.0085 76.8281V77.8281H52.0085V76.8281H51.0085ZM51.0085 68.6681H52.0085V67.6681H51.0085V68.6681ZM25.0085 68.6681H24.0085V69.6681H25.0085V68.6681ZM25.0085 52.4281V51.4281H24.0085V52.4281H25.0085ZM47.3285 52.4281V53.4281H48.3285V52.4281H47.3285ZM47.3285 44.2681H48.3285V43.2681H47.3285V44.2681ZM25.0085 44.2681H24.0085V45.2681H25.0085V44.2681ZM25.0085 28.9881V27.9881H24.0085V28.9881H25.0085ZM51.0085 28.9881V29.9881H52.0085V28.9881H51.0085ZM51.0085 20.8281H52.0085V19.8281H51.0085V20.8281ZM15.8885 20.8281V19.8281H14.8885V20.8281H15.8885ZM15.8885 77.8281H51.0085V75.8281H15.8885V77.8281ZM52.0085 76.8281V68.6681H50.0085V76.8281H52.0085ZM51.0085 67.6681H25.0085V69.6681H51.0085V67.6681ZM26.0085 68.6681V52.4281H24.0085V68.6681H26.0085ZM25.0085 53.4281H47.3285V51.4281H25.0085V53.4281ZM48.3285 52.4281V44.2681H46.3285V52.4281H48.3285ZM47.3285 43.2681H25.0085V45.2681H47.3285V43.2681ZM26.0085 44.2681V28.9881H24.0085V44.2681H26.0085ZM25.0085 29.9881H51.0085V27.9881H25.0085V29.9881ZM52.0085 28.9881V20.8281H50.0085V28.9881H52.0085ZM51.0085 19.8281H15.8885V21.8281H51.0085V19.8281ZM14.8885 20.8281V76.8281H16.8885V20.8281H14.8885ZM120.377 30.8281L119.969 31.7413L121.377 32.3697V30.8281H120.377ZM120.377 22.4281H121.377V21.7904L120.798 21.5214L120.377 22.4281ZM121.177 75.2281L121.589 76.1392L122.177 75.8733V75.2281H121.177ZM121.177 66.8281H122.177V65.3007L120.777 65.9116L121.177 66.8281ZM93.4566 48.8281C93.4566 42.0822 94.9881 37.1795 97.6011 33.9807C100.189 30.812 103.943 29.1881 108.697 29.1881V27.1881C103.45 27.1881 99.0837 29.0042 96.0521 32.7155C93.0451 36.3967 91.4566 41.814 91.4566 48.8281H93.4566ZM108.697 29.1881C112.311 29.1881 115.613 29.7965 119.969 31.7413L120.784 29.915C116.181 27.8598 112.602 27.1881 108.697 27.1881V29.1881ZM121.377 30.8281V22.4281H119.377V30.8281H121.377ZM120.798 21.5214C117.23 19.8618 113.247 18.8681 108.537 18.8681V20.8681C112.947 20.8681 116.643 21.7945 119.955 23.3348L120.798 21.5214ZM108.537 18.8681C101.005 18.8681 94.3682 21.6053 89.6203 26.7715C84.8774 31.9323 82.0966 39.4315 82.0966 48.8281H84.0966C84.0966 39.8247 86.7558 32.844 91.0929 28.1248C95.425 23.411 101.508 20.8681 108.537 20.8681V18.8681ZM82.0966 48.8281C82.0966 58.2149 84.7721 65.7202 89.5633 70.888C94.3615 76.0634 101.184 78.7881 109.257 78.7881V76.7881C101.649 76.7881 95.3917 74.2328 91.0299 69.5282C86.6611 64.8161 84.0966 57.8414 84.0966 48.8281H82.0966ZM109.257 78.7881C114.216 78.7881 118.116 77.7101 121.589 76.1392L120.764 74.317C117.517 75.7861 113.897 76.7881 109.257 76.7881V78.7881ZM122.177 75.2281V66.8281H120.177V75.2281H122.177ZM120.777 65.9116C116.491 67.7818 113.346 68.3881 109.817 68.3881V70.3881C113.647 70.3881 117.062 69.7144 121.577 67.7447L120.777 65.9116ZM109.817 68.3881C104.554 68.3881 100.52 66.7446 97.7826 63.5835C95.0253 60.3992 93.4566 55.5284 93.4566 48.8281H91.4566C91.4566 55.8078 93.0879 61.217 96.2706 64.8927C99.4735 68.5916 104.119 70.3881 109.817 70.3881V68.3881ZM164.327 46.9081H163.327V47.9081H164.327V46.9081ZM164.327 28.9881V27.9881H163.327V28.9881H164.327ZM186.407 76.8281L185.521 77.2909L185.801 77.8281H186.407V76.8281ZM196.967 76.8281V77.8281H198.657L197.844 76.3468L196.967 76.8281ZM184.007 53.2281L183.72 52.2703L182.535 52.6256L183.131 53.7095L184.007 53.2281ZM155.207 20.8281V19.8281H154.207V20.8281H155.207ZM155.207 76.8281H154.207V77.8281H155.207V76.8281ZM164.327 76.8281V77.8281H165.327V76.8281H164.327ZM164.327 55.0681V54.0681H163.327V55.0681H164.327ZM175.047 55.0681L175.934 54.6053L175.653 54.0681H175.047V55.0681ZM174.727 29.9881C178.575 29.9881 181.138 30.6439 182.732 31.8868C184.268 33.0839 185.087 34.976 185.087 37.9481H187.087C187.087 34.6002 186.146 32.0123 183.962 30.3095C181.836 28.6523 178.72 27.9881 174.727 27.9881V29.9881ZM185.087 37.9481C185.087 40.9202 184.268 42.8123 182.732 44.0095C181.138 45.2523 178.575 45.9081 174.727 45.9081V47.9081C178.72 47.9081 181.836 47.2439 183.962 45.5868C186.146 43.8839 187.087 41.296 187.087 37.9481H185.087ZM174.727 45.9081H164.327V47.9081H174.727V45.9081ZM165.327 46.9081V28.9881H163.327V46.9081H165.327ZM164.327 29.9881H174.727V27.9881H164.327V29.9881ZM186.407 77.8281H196.967V75.8281H186.407V77.8281ZM197.844 76.3468L184.884 52.7468L183.131 53.7095L196.091 77.3095L197.844 76.3468ZM184.295 54.1859C187.642 53.1816 190.634 51.4256 192.788 48.7328C194.949 46.0317 196.207 42.4627 196.207 37.9481H194.207C194.207 42.0736 193.065 45.1846 191.226 47.4834C189.381 49.7906 186.772 51.3546 183.72 52.2703L184.295 54.1859ZM196.207 37.9481C196.207 31.4218 193.721 26.8314 189.784 23.9055C185.892 21.0135 180.695 19.8281 175.367 19.8281V21.8281C180.44 21.8281 185.162 22.9628 188.591 25.5107C191.974 28.0249 194.207 31.9945 194.207 37.9481H196.207ZM175.367 19.8281H155.207V21.8281H175.367V19.8281ZM154.207 20.8281V76.8281H156.207V20.8281H154.207ZM155.207 77.8281H164.327V75.8281H155.207V77.8281ZM165.327 76.8281V55.0681H163.327V76.8281H165.327ZM164.327 56.0681H175.047V54.0681H164.327V56.0681ZM174.161 55.5309L185.521 77.2909L187.294 76.3653L175.934 54.6053L174.161 55.5309ZM230.935 76.8281H229.935V77.8281H230.935V76.8281ZM240.055 76.8281V77.8281H241.055V76.8281H240.055ZM240.055 20.8281H241.055V19.8281H240.055V20.8281ZM230.935 20.8281V19.8281H229.935V20.8281H230.935ZM230.935 77.8281H240.055V75.8281H230.935V77.8281ZM241.055 76.8281V20.8281H239.055V76.8281H241.055ZM240.055 19.8281H230.935V21.8281H240.055V19.8281ZM229.935 20.8281V76.8281H231.935V20.8281H229.935ZM287.171 46.9081H286.171V47.9081H287.171V46.9081ZM287.171 28.9881V27.9881H286.171V28.9881H287.171ZM309.251 76.8281L308.365 77.2909L308.645 77.8281H309.251V76.8281ZM319.811 76.8281V77.8281H321.501L320.688 76.3468L319.811 76.8281ZM306.851 53.2281L306.564 52.2703L305.379 52.6256L305.974 53.7095L306.851 53.2281ZM278.051 20.8281V19.8281H277.051V20.8281H278.051ZM278.051 76.8281H277.051V77.8281H278.051V76.8281ZM287.171 76.8281V77.8281H288.171V76.8281H287.171ZM287.171 55.0681V54.0681H286.171V55.0681H287.171ZM297.891 55.0681L298.777 54.6053L298.497 54.0681H297.891V55.0681ZM297.571 29.9881C301.419 29.9881 303.982 30.6439 305.576 31.8868C307.112 33.0839 307.931 34.976 307.931 37.9481H309.931C309.931 34.6002 308.99 32.0123 306.806 30.3095C304.68 28.6523 301.563 27.9881 297.571 27.9881V29.9881ZM307.931 37.9481C307.931 40.9202 307.112 42.8123 305.576 44.0095C303.982 45.2523 301.419 45.9081 297.571 45.9081V47.9081C301.563 47.9081 304.68 47.2439 306.806 45.5868C308.99 43.8839 309.931 41.296 309.931 37.9481H307.931ZM297.571 45.9081H287.171V47.9081H297.571V45.9081ZM288.171 46.9081V28.9881H286.171V46.9081H288.171ZM287.171 29.9881H297.571V27.9881H287.171V29.9881ZM309.251 77.8281H319.811V75.8281H309.251V77.8281ZM320.688 76.3468L307.728 52.7468L305.974 53.7095L318.934 77.3095L320.688 76.3468ZM307.138 54.1859C310.486 53.1816 313.478 51.4256 315.632 48.7328C317.793 46.0317 319.051 42.4627 319.051 37.9481H317.051C317.051 42.0736 315.909 45.1846 314.07 47.4834C312.224 49.7906 309.616 51.3546 306.564 52.2703L307.138 54.1859ZM319.051 37.9481C319.051 31.4218 316.564 26.8314 312.627 23.9055C308.736 21.0135 303.538 19.8281 298.211 19.8281V21.8281C303.284 21.8281 308.006 22.9628 311.434 25.5107C314.817 28.0249 317.051 31.9945 317.051 37.9481H319.051ZM298.211 19.8281H278.051V21.8281H298.211V19.8281ZM277.051 20.8281V76.8281H279.051V20.8281H277.051ZM278.051 77.8281H287.171V75.8281H278.051V77.8281ZM288.171 76.8281V55.0681H286.171V76.8281H288.171ZM287.171 56.0681H297.891V54.0681H287.171V56.0681ZM297.005 55.5309L308.365 77.2909L310.137 76.3653L298.777 54.6053L297.005 55.5309ZM353.779 76.8281H352.779V77.8281H353.779V76.8281ZM388.899 76.8281V77.8281H389.899V76.8281H388.899ZM388.899 68.6681H389.899V67.6681H388.899V68.6681ZM362.899 68.6681H361.899V69.6681H362.899V68.6681ZM362.899 52.4281V51.4281H361.899V52.4281H362.899ZM385.219 52.4281V53.4281H386.219V52.4281H385.219ZM385.219 44.2681H386.219V43.2681H385.219V44.2681ZM362.899 44.2681H361.899V45.2681H362.899V44.2681ZM362.899 28.9881V27.9881H361.899V28.9881H362.899ZM388.899 28.9881V29.9881H389.899V28.9881H388.899ZM388.899 20.8281H389.899V19.8281H388.899V20.8281ZM353.779 20.8281V19.8281H352.779V20.8281H353.779ZM353.779 77.8281H388.899V75.8281H353.779V77.8281ZM389.899 76.8281V68.6681H387.899V76.8281H389.899ZM388.899 67.6681H362.899V69.6681H388.899V67.6681ZM363.899 68.6681V52.4281H361.899V68.6681H363.899ZM362.899 53.4281H385.219V51.4281H362.899V53.4281ZM386.219 52.4281V44.2681H384.219V52.4281H386.219ZM385.219 43.2681H362.899V45.2681H385.219V43.2681ZM363.899 44.2681V28.9881H361.899V44.2681H363.899ZM362.899 29.9881H388.899V27.9881H362.899V29.9881ZM389.899 28.9881V20.8281H387.899V28.9881H389.899ZM388.899 19.8281H353.779V21.8281H388.899V19.8281ZM352.779 20.8281V76.8281H354.779V20.8281H352.779Z" fill="black"/>
<path d="M8.08184 76.8281H43.2018V68.6681H17.2018V52.4281H39.5218V44.2681H17.2018V28.9881H43.2018V20.8281H8.08184V76.8281ZM84.65 48.8281C84.65 35.0681 90.89 28.1881 100.89 28.1881C104.65 28.1881 108.09 28.8281 112.57 30.8281V22.4281C109.13 20.8281 105.29 19.8681 100.73 19.8681C86.17 19.8681 75.29 30.4281 75.29 48.8281C75.29 67.2281 85.77 77.7881 101.45 77.7881C106.25 77.7881 110.01 76.7481 113.37 75.2281V66.8281C108.97 68.7481 105.69 69.3881 102.01 69.3881C91.05 69.3881 84.65 62.5081 84.65 48.8281ZM166.921 28.9881C174.761 28.9881 178.281 31.6281 178.281 37.9481C178.281 44.2681 174.761 46.9081 166.921 46.9081H156.521V28.9881H166.921ZM178.601 76.8281H189.161L176.201 53.2281C182.601 51.3081 187.401 46.5881 187.401 37.9481C187.401 25.4681 177.961 20.8281 167.561 20.8281H147.401V76.8281H156.521V55.0681H167.241L178.601 76.8281ZM223.129 76.8281H232.249V20.8281H223.129V76.8281ZM289.764 28.9881C297.604 28.9881 301.124 31.6281 301.124 37.9481C301.124 44.2681 297.604 46.9081 289.764 46.9081H279.364V28.9881H289.764ZM301.444 76.8281H312.004L299.044 53.2281C305.444 51.3081 310.244 46.5881 310.244 37.9481C310.244 25.4681 300.804 20.8281 290.404 20.8281H270.244V76.8281H279.364V55.0681H290.084L301.444 76.8281ZM345.972 76.8281H381.092V68.6681H355.092V52.4281H377.412V44.2681H355.092V28.9881H381.092V20.8281H345.972V76.8281Z" fill="#4247C6"/>
<path d="M8.08184 76.8281H7.08184V77.8281H8.08184V76.8281ZM43.2018 76.8281V77.8281H44.2018V76.8281H43.2018ZM43.2018 68.6681H44.2018V67.6681H43.2018V68.6681ZM17.2018 68.6681H16.2018V69.6681H17.2018V68.6681ZM17.2018 52.4281V51.4281H16.2018V52.4281H17.2018ZM39.5218 52.4281V53.4281H40.5218V52.4281H39.5218ZM39.5218 44.2681H40.5218V43.2681H39.5218V44.2681ZM17.2018 44.2681H16.2018V45.2681H17.2018V44.2681ZM17.2018 28.9881V27.9881H16.2018V28.9881H17.2018ZM43.2018 28.9881V29.9881H44.2018V28.9881H43.2018ZM43.2018 20.8281H44.2018V19.8281H43.2018V20.8281ZM8.08184 20.8281V19.8281H7.08184V20.8281H8.08184ZM8.08184 77.8281H43.2018V75.8281H8.08184V77.8281ZM44.2018 76.8281V68.6681H42.2018V76.8281H44.2018ZM43.2018 67.6681H17.2018V69.6681H43.2018V67.6681ZM18.2018 68.6681V52.4281H16.2018V68.6681H18.2018ZM17.2018 53.4281H39.5218V51.4281H17.2018V53.4281ZM40.5218 52.4281V44.2681H38.5218V52.4281H40.5218ZM39.5218 43.2681H17.2018V45.2681H39.5218V43.2681ZM18.2018 44.2681V28.9881H16.2018V44.2681H18.2018ZM17.2018 29.9881H43.2018V27.9881H17.2018V29.9881ZM44.2018 28.9881V20.8281H42.2018V28.9881H44.2018ZM43.2018 19.8281H8.08184V21.8281H43.2018V19.8281ZM7.08184 20.8281V76.8281H9.08184V20.8281H7.08184ZM112.57 30.8281L112.162 31.7413L113.57 32.3697V30.8281H112.57ZM112.57 22.4281H113.57V21.7904L112.992 21.5214L112.57 22.4281ZM113.37 75.2281L113.782 76.1392L114.37 75.8733V75.2281H113.37ZM113.37 66.8281H114.37V65.3007L112.97 65.9116L113.37 66.8281ZM85.65 48.8281C85.65 42.0822 87.1815 37.1795 89.7944 33.9807C92.3828 30.812 96.1363 29.1881 100.89 29.1881V27.1881C95.6437 27.1881 91.2771 29.0042 88.2455 32.7155C85.2385 36.3967 83.65 41.814 83.65 48.8281H85.65ZM100.89 29.1881C104.505 29.1881 107.806 29.7965 112.162 31.7413L112.978 29.915C108.374 27.8598 104.795 27.1881 100.89 27.1881V29.1881ZM113.57 30.8281V22.4281H111.57V30.8281H113.57ZM112.992 21.5214C109.424 19.8618 105.44 18.8681 100.73 18.8681V20.8681C105.14 20.8681 108.836 21.7945 112.148 23.3348L112.992 21.5214ZM100.73 18.8681C93.1986 18.8681 86.5615 21.6053 81.8137 26.7715C77.0708 31.9323 74.29 39.4315 74.29 48.8281H76.29C76.29 39.8247 78.9492 32.844 83.2862 28.1248C87.6184 23.411 93.7013 20.8681 100.73 20.8681V18.8681ZM74.29 48.8281C74.29 58.2149 76.9654 65.7202 81.7566 70.888C86.5549 76.0634 93.3774 78.7881 101.45 78.7881V76.7881C93.8425 76.7881 87.585 74.2328 83.2233 69.5282C78.8545 64.8161 76.29 57.8414 76.29 48.8281H74.29ZM101.45 78.7881C106.41 78.7881 110.31 77.7101 113.782 76.1392L112.958 74.317C109.71 75.7861 106.09 76.7881 101.45 76.7881V78.7881ZM114.37 75.2281V66.8281H112.37V75.2281H114.37ZM112.97 65.9116C108.684 67.7818 105.54 68.3881 102.01 68.3881V70.3881C105.84 70.3881 109.256 69.7144 113.77 67.7447L112.97 65.9116ZM102.01 68.3881C96.7475 68.3881 92.7131 66.7446 89.9759 63.5835C87.2187 60.3992 85.65 55.5284 85.65 48.8281H83.65C83.65 55.8078 85.2813 61.217 88.464 64.8927C91.6668 68.5916 96.3125 70.3881 102.01 70.3881V68.3881ZM156.521 46.9081H155.521V47.9081H156.521V46.9081ZM156.521 28.9881V27.9881H155.521V28.9881H156.521ZM178.601 76.8281L177.714 77.2909L177.995 77.8281H178.601V76.8281ZM189.161 76.8281V77.8281H190.851L190.037 76.3468L189.161 76.8281ZM176.201 53.2281L175.913 52.2703L174.729 52.6256L175.324 53.7095L176.201 53.2281ZM147.401 20.8281V19.8281H146.401V20.8281H147.401ZM147.401 76.8281H146.401V77.8281H147.401V76.8281ZM156.521 76.8281V77.8281H157.521V76.8281H156.521ZM156.521 55.0681V54.0681H155.521V55.0681H156.521ZM167.241 55.0681L168.127 54.6053L167.847 54.0681H167.241V55.0681ZM166.921 29.9881C170.768 29.9881 173.331 30.6439 174.926 31.8868C176.461 33.0839 177.281 34.976 177.281 37.9481H179.281C179.281 34.6002 178.34 32.0123 176.155 30.3095C174.03 28.6523 170.913 27.9881 166.921 27.9881V29.9881ZM177.281 37.9481C177.281 40.9202 176.461 42.8123 174.926 44.0095C173.331 45.2523 170.768 45.9081 166.921 45.9081V47.9081C170.913 47.9081 174.03 47.2439 176.155 45.5868C178.34 43.8839 179.281 41.296 179.281 37.9481H177.281ZM166.921 45.9081H156.521V47.9081H166.921V45.9081ZM157.521 46.9081V28.9881H155.521V46.9081H157.521ZM156.521 29.9881H166.921V27.9881H156.521V29.9881ZM178.601 77.8281H189.161V75.8281H178.601V77.8281ZM190.037 76.3468L177.077 52.7468L175.324 53.7095L188.284 77.3095L190.037 76.3468ZM176.488 54.1859C179.836 53.1816 182.827 51.4256 184.981 48.7328C187.142 46.0317 188.401 42.4627 188.401 37.9481H186.401C186.401 42.0736 185.259 45.1846 183.42 47.4834C181.574 49.7906 178.965 51.3546 175.913 52.2703L176.488 54.1859ZM188.401 37.9481C188.401 31.4218 185.914 26.8314 181.977 23.9055C178.086 21.0135 172.888 19.8281 167.561 19.8281V21.8281C172.633 21.8281 177.356 22.9628 180.784 25.5107C184.167 28.0249 186.401 31.9945 186.401 37.9481H188.401ZM167.561 19.8281H147.401V21.8281H167.561V19.8281ZM146.401 20.8281V76.8281H148.401V20.8281H146.401ZM147.401 77.8281H156.521V75.8281H147.401V77.8281ZM157.521 76.8281V55.0681H155.521V76.8281H157.521ZM156.521 56.0681H167.241V54.0681H156.521V56.0681ZM166.354 55.5309L177.714 77.2909L179.487 76.3653L168.127 54.6053L166.354 55.5309ZM223.129 76.8281H222.129V77.8281H223.129V76.8281ZM232.249 76.8281V77.8281H233.249V76.8281H232.249ZM232.249 20.8281H233.249V19.8281H232.249V20.8281ZM223.129 20.8281V19.8281H222.129V20.8281H223.129ZM223.129 77.8281H232.249V75.8281H223.129V77.8281ZM233.249 76.8281V20.8281H231.249V76.8281H233.249ZM232.249 19.8281H223.129V21.8281H232.249V19.8281ZM222.129 20.8281V76.8281H224.129V20.8281H222.129ZM279.364 46.9081H278.364V47.9081H279.364V46.9081ZM279.364 28.9881V27.9881H278.364V28.9881H279.364ZM301.444 76.8281L300.558 77.2909L300.838 77.8281H301.444V76.8281ZM312.004 76.8281V77.8281H313.694L312.881 76.3468L312.004 76.8281ZM299.044 53.2281L298.757 52.2703L297.573 52.6256L298.168 53.7095L299.044 53.2281ZM270.244 20.8281V19.8281H269.244V20.8281H270.244ZM270.244 76.8281H269.244V77.8281H270.244V76.8281ZM279.364 76.8281V77.8281H280.364V76.8281H279.364ZM279.364 55.0681V54.0681H278.364V55.0681H279.364ZM290.084 55.0681L290.971 54.6053L290.69 54.0681H290.084V55.0681ZM289.764 29.9881C293.612 29.9881 296.175 30.6439 297.77 31.8868C299.305 33.0839 300.124 34.976 300.124 37.9481H302.124C302.124 34.6002 301.184 32.0123 298.999 30.3095C296.873 28.6523 293.757 27.9881 289.764 27.9881V29.9881ZM300.124 37.9481C300.124 40.9202 299.305 42.8123 297.77 44.0095C296.175 45.2523 293.612 45.9081 289.764 45.9081V47.9081C293.757 47.9081 296.873 47.2439 298.999 45.5868C301.184 43.8839 302.124 41.296 302.124 37.9481H300.124ZM289.764 45.9081H279.364V47.9081H289.764V45.9081ZM280.364 46.9081V28.9881H278.364V46.9081H280.364ZM279.364 29.9881H289.764V27.9881H279.364V29.9881ZM301.444 77.8281H312.004V75.8281H301.444V77.8281ZM312.881 76.3468L299.921 52.7468L298.168 53.7095L311.128 77.3095L312.881 76.3468ZM299.332 54.1859C302.679 53.1816 305.671 51.4256 307.825 48.7328C309.986 46.0317 311.244 42.4627 311.244 37.9481H309.244C309.244 42.0736 308.103 45.1846 306.263 47.4834C304.418 49.7906 301.809 51.3546 298.757 52.2703L299.332 54.1859ZM311.244 37.9481C311.244 31.4218 308.758 26.8314 304.821 23.9055C300.929 21.0135 295.732 19.8281 290.404 19.8281V21.8281C295.477 21.8281 300.199 22.9628 303.628 25.5107C307.011 28.0249 309.244 31.9945 309.244 37.9481H311.244ZM290.404 19.8281H270.244V21.8281H290.404V19.8281ZM269.244 20.8281V76.8281H271.244V20.8281H269.244ZM270.244 77.8281H279.364V75.8281H270.244V77.8281ZM280.364 76.8281V55.0681H278.364V76.8281H280.364ZM279.364 56.0681H290.084V54.0681H279.364V56.0681ZM289.198 55.5309L300.558 77.2909L302.331 76.3653L290.971 54.6053L289.198 55.5309ZM345.972 76.8281H344.972V77.8281H345.972V76.8281ZM381.092 76.8281V77.8281H382.092V76.8281H381.092ZM381.092 68.6681H382.092V67.6681H381.092V68.6681ZM355.092 68.6681H354.092V69.6681H355.092V68.6681ZM355.092 52.4281V51.4281H354.092V52.4281H355.092ZM377.412 52.4281V53.4281H378.412V52.4281H377.412ZM377.412 44.2681H378.412V43.2681H377.412V44.2681ZM355.092 44.2681H354.092V45.2681H355.092V44.2681ZM355.092 28.9881V27.9881H354.092V28.9881H355.092ZM381.092 28.9881V29.9881H382.092V28.9881H381.092ZM381.092 20.8281H382.092V19.8281H381.092V20.8281ZM345.972 20.8281V19.8281H344.972V20.8281H345.972ZM345.972 77.8281H381.092V75.8281H345.972V77.8281ZM382.092 76.8281V68.6681H380.092V76.8281H382.092ZM381.092 67.6681H355.092V69.6681H381.092V67.6681ZM356.092 68.6681V52.4281H354.092V68.6681H356.092ZM355.092 53.4281H377.412V51.4281H355.092V53.4281ZM378.412 52.4281V44.2681H376.412V52.4281H378.412ZM377.412 43.2681H355.092V45.2681H377.412V43.2681ZM356.092 44.2681V28.9881H354.092V44.2681H356.092ZM355.092 29.9881H381.092V27.9881H355.092V29.9881ZM382.092 28.9881V20.8281H380.092V28.9881H382.092ZM381.092 19.8281H345.972V21.8281H381.092V19.8281ZM344.972 20.8281V76.8281H346.972V20.8281H344.972Z" fill="black"/>
</svg>
