<?xml version="1.0" encoding="utf-8"?>
<!-- Generator: Adobe Illustrator 25.2.3, SVG Export Plug-In . SVG Version: 6.00 Build 0)  -->
<svg version="1.1" id="Layer_1" xmlns="http://www.w3.org/2000/svg" xmlns:xlink="http://www.w3.org/1999/xlink" x="0px" y="0px"
	 viewBox="0 0 606 48" style="enable-background:new 0 0 606 48;" xml:space="preserve">
<style type="text/css">
	.st0{fill:#4247C6;}
	.st1{fill:#FFFFFF;stroke:#4247C6;stroke-width:2;}
</style>
<path class="st0" d="M27.6,5.3h556.6c11.7,0,21.1,9.5,21.1,21.1v0c0,11.7-9.5,21.1-21.1,21.1H27.6c-11.7,0-21.1-9.5-21.1-21.1v0
	C6.4,14.8,15.9,5.3,27.6,5.3z"/>
<path class="st1" d="M21.1,1.8h556.6c11.1,0,20.1,9,20.1,20.1v0c0,11.1-9,20.1-20.1,20.1H21.1C10,42.1,1,33.1,1,21.9v0
	C1,10.8,10,1.8,21.1,1.8z"/>
<path class="st0" d="M570.1,23.3c0.6-0.6,0.6-1.5,0-2.1l-9.5-9.5c-0.6-0.6-1.5-0.6-2.1,0c-0.6,0.6-0.6,1.5,0,2.1l8.5,8.5l-8.5,8.5
	c-0.6,0.6-0.6,1.5,0,2.1c0.6,0.6,1.5,0.6,2.1,0L570.1,23.3z M543.9,23.7H569v-3h-25.2V23.7z"/>
</svg>
