<svg width="729" height="97" viewBox="0 0 729 97" fill="none" xmlns="http://www.w3.org/2000/svg">
<path d="M15.0066 76.9824H50.1266V68.8224H24.1266V52.5824H46.4466V44.4224H24.1266V29.1424H50.1266V20.9824H15.0066V76.9824ZM108.215 76.9824L126.775 20.9824H117.175L103.495 65.8624L89.5748 20.9824H79.8948L98.4548 76.9824H108.215ZM159.725 76.9824H194.845V68.8224H168.845V52.5824H191.165V44.4224H168.845V29.1424H194.845V20.9824H159.725V76.9824ZM261.334 76.9824H271.574V20.9824H263.094V63.5424L240.294 20.9824H230.054V76.9824H238.534V34.4224L261.334 76.9824ZM309.991 76.9824H345.111V68.8224H319.111V52.5824H341.431V44.4224H319.111V29.1424H345.111V20.9824H309.991V76.9824ZM402.159 59.1424H409.599L422.639 36.1824V76.9824H431.439V20.9824H422.239L405.919 49.7024L389.519 20.9824H380.319V76.9824H389.119V36.1824L402.159 59.1424ZM469.866 76.9824H504.986V68.8224H478.986V52.5824H501.306V44.4224H478.986V29.1424H504.986V20.9824H469.866V76.9824ZM571.474 76.9824H581.714V20.9824H573.234V63.5424L550.434 20.9824H540.194V76.9824H548.674V34.4224L571.474 76.9824ZM657.892 29.1424V20.9824H614.372V29.1424H631.572V76.9824H640.692V29.1424H657.892ZM704.138 77.9424C717.098 77.9424 723.898 71.4624 723.898 61.3024C723.898 43.7824 697.258 46.1024 697.258 34.9024C697.258 31.0624 699.658 28.3424 706.218 28.3424C711.178 28.3424 716.378 29.7024 722.618 32.5024V23.7024C717.418 21.0624 711.818 20.0224 706.218 20.0224C695.018 20.0224 688.138 26.4224 688.138 35.4624C688.138 53.8624 714.778 50.8224 714.778 62.0224C714.778 66.6624 711.738 69.6224 704.138 69.6224C699.818 69.6224 694.218 68.5824 687.738 65.5424V74.3424C693.178 76.9024 699.258 77.9424 704.138 77.9424Z" fill="white"/>
<path d="M15.0066 76.9824H13.0066V78.9824H15.0066V76.9824ZM50.1266 76.9824V78.9824H52.1266V76.9824H50.1266ZM50.1266 68.8224H52.1266V66.8224H50.1266V68.8224ZM24.1266 68.8224H22.1266V70.8224H24.1266V68.8224ZM24.1266 52.5824V50.5824H22.1266V52.5824H24.1266ZM46.4466 52.5824V54.5824H48.4466V52.5824H46.4466ZM46.4466 44.4224H48.4466V42.4224H46.4466V44.4224ZM24.1266 44.4224H22.1266V46.4224H24.1266V44.4224ZM24.1266 29.1424V27.1424H22.1266V29.1424H24.1266ZM50.1266 29.1424V31.1424H52.1266V29.1424H50.1266ZM50.1266 20.9824H52.1266V18.9824H50.1266V20.9824ZM15.0066 20.9824V18.9824H13.0066V20.9824H15.0066ZM15.0066 78.9824H50.1266V74.9824H15.0066V78.9824ZM52.1266 76.9824V68.8224H48.1266V76.9824H52.1266ZM50.1266 66.8224H24.1266V70.8224H50.1266V66.8224ZM26.1266 68.8224V52.5824H22.1266V68.8224H26.1266ZM24.1266 54.5824H46.4466V50.5824H24.1266V54.5824ZM48.4466 52.5824V44.4224H44.4466V52.5824H48.4466ZM46.4466 42.4224H24.1266V46.4224H46.4466V42.4224ZM26.1266 44.4224V29.1424H22.1266V44.4224H26.1266ZM24.1266 31.1424H50.1266V27.1424H24.1266V31.1424ZM52.1266 29.1424V20.9824H48.1266V29.1424H52.1266ZM50.1266 18.9824H15.0066V22.9824H50.1266V18.9824ZM13.0066 20.9824V76.9824H17.0066V20.9824H13.0066ZM108.215 76.9824V78.9824H109.659L110.113 77.6116L108.215 76.9824ZM126.775 20.9824L128.673 21.6116L129.545 18.9824H126.775V20.9824ZM117.175 20.9824V18.9824H115.694L115.262 20.3993L117.175 20.9824ZM103.495 65.8624L101.585 66.4549L103.511 72.6673L105.408 66.4456L103.495 65.8624ZM89.5748 20.9824L91.485 20.3899L91.0484 18.9824H89.5748V20.9824ZM79.8948 20.9824V18.9824H77.1249L77.9963 21.6116L79.8948 20.9824ZM98.4548 76.9824L96.5563 77.6116L97.0106 78.9824H98.4548V76.9824ZM110.113 77.6116L128.673 21.6116L124.876 20.3532L106.316 76.3532L110.113 77.6116ZM126.775 18.9824H117.175V22.9824H126.775V18.9824ZM115.262 20.3993L101.582 65.2793L105.408 66.4456L119.088 21.5656L115.262 20.3993ZM105.405 65.2699L91.485 20.3899L87.6645 21.5749L101.585 66.4549L105.405 65.2699ZM89.5748 18.9824H79.8948V22.9824H89.5748V18.9824ZM77.9963 21.6116L96.5563 77.6116L100.353 76.3532L81.7932 20.3532L77.9963 21.6116ZM98.4548 78.9824H108.215V74.9824H98.4548V78.9824ZM159.725 76.9824H157.725V78.9824H159.725V76.9824ZM194.845 76.9824V78.9824H196.845V76.9824H194.845ZM194.845 68.8224H196.845V66.8224H194.845V68.8224ZM168.845 68.8224H166.845V70.8224H168.845V68.8224ZM168.845 52.5824V50.5824H166.845V52.5824H168.845ZM191.165 52.5824V54.5824H193.165V52.5824H191.165ZM191.165 44.4224H193.165V42.4224H191.165V44.4224ZM168.845 44.4224H166.845V46.4224H168.845V44.4224ZM168.845 29.1424V27.1424H166.845V29.1424H168.845ZM194.845 29.1424V31.1424H196.845V29.1424H194.845ZM194.845 20.9824H196.845V18.9824H194.845V20.9824ZM159.725 20.9824V18.9824H157.725V20.9824H159.725ZM159.725 78.9824H194.845V74.9824H159.725V78.9824ZM196.845 76.9824V68.8224H192.845V76.9824H196.845ZM194.845 66.8224H168.845V70.8224H194.845V66.8224ZM170.845 68.8224V52.5824H166.845V68.8224H170.845ZM168.845 54.5824H191.165V50.5824H168.845V54.5824ZM193.165 52.5824V44.4224H189.165V52.5824H193.165ZM191.165 42.4224H168.845V46.4224H191.165V42.4224ZM170.845 44.4224V29.1424H166.845V44.4224H170.845ZM168.845 31.1424H194.845V27.1424H168.845V31.1424ZM196.845 29.1424V20.9824H192.845V29.1424H196.845ZM194.845 18.9824H159.725V22.9824H194.845V18.9824ZM157.725 20.9824V76.9824H161.725V20.9824H157.725ZM261.334 76.9824L259.571 77.9269L260.136 78.9824H261.334V76.9824ZM271.574 76.9824V78.9824H273.574V76.9824H271.574ZM271.574 20.9824H273.574V18.9824H271.574V20.9824ZM263.094 20.9824V18.9824H261.094V20.9824H263.094ZM263.094 63.5424L261.331 64.4869L265.094 63.5424H263.094ZM240.294 20.9824L242.056 20.038L241.491 18.9824H240.294V20.9824ZM230.054 20.9824V18.9824H228.054V20.9824H230.054ZM230.054 76.9824H228.054V78.9824H230.054V76.9824ZM238.534 76.9824V78.9824H240.534V76.9824H238.534ZM238.534 34.4224L240.296 33.478L236.534 34.4224H238.534ZM261.334 78.9824H271.574V74.9824H261.334V78.9824ZM273.574 76.9824V20.9824H269.574V76.9824H273.574ZM271.574 18.9824H263.094V22.9824H271.574V18.9824ZM261.094 20.9824V63.5424H265.094V20.9824H261.094ZM264.856 62.598L242.056 20.038L238.531 21.9269L261.331 64.4869L264.856 62.598ZM240.294 18.9824H230.054V22.9824H240.294V18.9824ZM228.054 20.9824V76.9824H232.054V20.9824H228.054ZM230.054 78.9824H238.534V74.9824H230.054V78.9824ZM240.534 76.9824V34.4224H236.534V76.9824H240.534ZM236.771 35.3669L259.571 77.9269L263.096 76.038L240.296 33.478L236.771 35.3669ZM309.991 76.9824H307.991V78.9824H309.991V76.9824ZM345.111 76.9824V78.9824H347.111V76.9824H345.111ZM345.111 68.8224H347.111V66.8224H345.111V68.8224ZM319.111 68.8224H317.111V70.8224H319.111V68.8224ZM319.111 52.5824V50.5824H317.111V52.5824H319.111ZM341.431 52.5824V54.5824H343.431V52.5824H341.431ZM341.431 44.4224H343.431V42.4224H341.431V44.4224ZM319.111 44.4224H317.111V46.4224H319.111V44.4224ZM319.111 29.1424V27.1424H317.111V29.1424H319.111ZM345.111 29.1424V31.1424H347.111V29.1424H345.111ZM345.111 20.9824H347.111V18.9824H345.111V20.9824ZM309.991 20.9824V18.9824H307.991V20.9824H309.991ZM309.991 78.9824H345.111V74.9824H309.991V78.9824ZM347.111 76.9824V68.8224H343.111V76.9824H347.111ZM345.111 66.8224H319.111V70.8224H345.111V66.8224ZM321.111 68.8224V52.5824H317.111V68.8224H321.111ZM319.111 54.5824H341.431V50.5824H319.111V54.5824ZM343.431 52.5824V44.4224H339.431V52.5824H343.431ZM341.431 42.4224H319.111V46.4224H341.431V42.4224ZM321.111 44.4224V29.1424H317.111V44.4224H321.111ZM319.111 31.1424H345.111V27.1424H319.111V31.1424ZM347.111 29.1424V20.9824H343.111V29.1424H347.111ZM345.111 18.9824H309.991V22.9824H345.111V18.9824ZM307.991 20.9824V76.9824H311.991V20.9824H307.991ZM402.159 59.1424L400.42 60.1301L400.995 61.1424H402.159V59.1424ZM409.599 59.1424V61.1424H410.763L411.338 60.1301L409.599 59.1424ZM422.639 36.1824H424.639V28.6112L420.9 35.1947L422.639 36.1824ZM422.639 76.9824H420.639V78.9824H422.639V76.9824ZM431.439 76.9824V78.9824H433.439V76.9824H431.439ZM431.439 20.9824H433.439V18.9824H431.439V20.9824ZM422.239 20.9824V18.9824H421.075L420.5 19.9943L422.239 20.9824ZM405.919 49.7024L404.182 50.6942L405.923 53.7431L407.658 50.6905L405.919 49.7024ZM389.519 20.9824L391.256 19.9907L390.68 18.9824H389.519V20.9824ZM380.319 20.9824V18.9824H378.319V20.9824H380.319ZM380.319 76.9824H378.319V78.9824H380.319V76.9824ZM389.119 76.9824V78.9824H391.119V76.9824H389.119ZM389.119 36.1824L390.858 35.1947L387.119 28.6112V36.1824H389.119ZM402.159 61.1424H409.599V57.1424H402.159V61.1424ZM411.338 60.1301L424.378 37.1701L420.9 35.1947L407.86 58.1547L411.338 60.1301ZM420.639 36.1824V76.9824H424.639V36.1824H420.639ZM422.639 78.9824H431.439V74.9824H422.639V78.9824ZM433.439 76.9824V20.9824H429.439V76.9824H433.439ZM431.439 18.9824H422.239V22.9824H431.439V18.9824ZM420.5 19.9943L404.18 48.7143L407.658 50.6905L423.978 21.9705L420.5 19.9943ZM407.656 48.7107L391.256 19.9907L387.782 21.9742L404.182 50.6942L407.656 48.7107ZM389.519 18.9824H380.319V22.9824H389.519V18.9824ZM378.319 20.9824V76.9824H382.319V20.9824H378.319ZM380.319 78.9824H389.119V74.9824H380.319V78.9824ZM391.119 76.9824V36.1824H387.119V76.9824H391.119ZM387.38 37.1701L400.42 60.1301L403.898 58.1547L390.858 35.1947L387.38 37.1701ZM469.866 76.9824H467.866V78.9824H469.866V76.9824ZM504.986 76.9824V78.9824H506.986V76.9824H504.986ZM504.986 68.8224H506.986V66.8224H504.986V68.8224ZM478.986 68.8224H476.986V70.8224H478.986V68.8224ZM478.986 52.5824V50.5824H476.986V52.5824H478.986ZM501.306 52.5824V54.5824H503.306V52.5824H501.306ZM501.306 44.4224H503.306V42.4224H501.306V44.4224ZM478.986 44.4224H476.986V46.4224H478.986V44.4224ZM478.986 29.1424V27.1424H476.986V29.1424H478.986ZM504.986 29.1424V31.1424H506.986V29.1424H504.986ZM504.986 20.9824H506.986V18.9824H504.986V20.9824ZM469.866 20.9824V18.9824H467.866V20.9824H469.866ZM469.866 78.9824H504.986V74.9824H469.866V78.9824ZM506.986 76.9824V68.8224H502.986V76.9824H506.986ZM504.986 66.8224H478.986V70.8224H504.986V66.8224ZM480.986 68.8224V52.5824H476.986V68.8224H480.986ZM478.986 54.5824H501.306V50.5824H478.986V54.5824ZM503.306 52.5824V44.4224H499.306V52.5824H503.306ZM501.306 42.4224H478.986V46.4224H501.306V42.4224ZM480.986 44.4224V29.1424H476.986V44.4224H480.986ZM478.986 31.1424H504.986V27.1424H478.986V31.1424ZM506.986 29.1424V20.9824H502.986V29.1424H506.986ZM504.986 18.9824H469.866V22.9824H504.986V18.9824ZM467.866 20.9824V76.9824H471.866V20.9824H467.866ZM571.474 76.9824L569.711 77.9269L570.277 78.9824H571.474V76.9824ZM581.714 76.9824V78.9824H583.714V76.9824H581.714ZM581.714 20.9824H583.714V18.9824H581.714V20.9824ZM573.234 20.9824V18.9824H571.234V20.9824H573.234ZM573.234 63.5424L571.471 64.4869L575.234 63.5424H573.234ZM550.434 20.9824L552.197 20.038L551.632 18.9824H550.434V20.9824ZM540.194 20.9824V18.9824H538.194V20.9824H540.194ZM540.194 76.9824H538.194V78.9824H540.194V76.9824ZM548.674 76.9824V78.9824H550.674V76.9824H548.674ZM548.674 34.4224L550.437 33.478L546.674 34.4224H548.674ZM571.474 78.9824H581.714V74.9824H571.474V78.9824ZM583.714 76.9824V20.9824H579.714V76.9824H583.714ZM581.714 18.9824H573.234V22.9824H581.714V18.9824ZM571.234 20.9824V63.5424H575.234V20.9824H571.234ZM574.997 62.598L552.197 20.038L548.671 21.9269L571.471 64.4869L574.997 62.598ZM550.434 18.9824H540.194V22.9824H550.434V18.9824ZM538.194 20.9824V76.9824H542.194V20.9824H538.194ZM540.194 78.9824H548.674V74.9824H540.194V78.9824ZM550.674 76.9824V34.4224H546.674V76.9824H550.674ZM546.911 35.3669L569.711 77.9269L573.237 76.038L550.437 33.478L546.911 35.3669ZM657.892 29.1424V31.1424H659.892V29.1424H657.892ZM657.892 20.9824H659.892V18.9824H657.892V20.9824ZM614.372 20.9824V18.9824H612.372V20.9824H614.372ZM614.372 29.1424H612.372V31.1424H614.372V29.1424ZM631.572 29.1424H633.572V27.1424H631.572V29.1424ZM631.572 76.9824H629.572V78.9824H631.572V76.9824ZM640.692 76.9824V78.9824H642.692V76.9824H640.692ZM640.692 29.1424V27.1424H638.692V29.1424H640.692ZM659.892 29.1424V20.9824H655.892V29.1424H659.892ZM657.892 18.9824H614.372V22.9824H657.892V18.9824ZM612.372 20.9824V29.1424H616.372V20.9824H612.372ZM614.372 31.1424H631.572V27.1424H614.372V31.1424ZM629.572 29.1424V76.9824H633.572V29.1424H629.572ZM631.572 78.9824H640.692V74.9824H631.572V78.9824ZM642.692 76.9824V29.1424H638.692V76.9824H642.692ZM640.692 31.1424H657.892V27.1424H640.692V31.1424ZM722.618 32.5024L721.799 34.3271L724.618 35.592V32.5024H722.618ZM722.618 23.7024H724.618V22.4748L723.523 21.9191L722.618 23.7024ZM687.738 65.5424L688.587 63.7318L685.738 62.395V65.5424H687.738ZM687.738 74.3424H685.738V75.6116L686.886 76.1521L687.738 74.3424ZM704.138 79.9424C710.929 79.9424 716.395 78.2449 720.191 74.9409C724.024 71.6046 725.898 66.8513 725.898 61.3024H721.898C721.898 65.9136 720.372 69.4803 717.565 71.9239C714.72 74.3999 710.307 75.9424 704.138 75.9424V79.9424ZM725.898 61.3024C725.898 56.3284 723.974 52.6847 721.128 49.9252C718.36 47.2421 714.747 45.4221 711.402 43.9099C707.918 42.3354 704.84 41.1333 702.514 39.6142C700.264 38.1444 699.258 36.7192 699.258 34.9024H695.258C695.258 38.6857 697.582 41.1705 700.327 42.9631C702.996 44.7065 706.578 46.1194 709.754 47.5549C713.068 49.0528 716.116 50.6377 718.343 52.7971C720.492 54.8801 721.898 57.5164 721.898 61.3024H725.898ZM699.258 34.9024C699.258 33.4205 699.701 32.4195 700.543 31.7313C701.46 30.9825 703.166 30.3424 706.218 30.3424V26.3424C702.71 26.3424 699.936 27.0623 698.013 28.6335C696.015 30.2654 695.258 32.5443 695.258 34.9024H699.258ZM706.218 30.3424C710.798 30.3424 715.71 31.5948 721.799 34.3271L723.437 30.6777C717.046 27.8101 711.557 26.3424 706.218 26.3424V30.3424ZM724.618 32.5024V23.7024H720.618V32.5024H724.618ZM723.523 21.9191C717.988 19.1089 712.065 18.0224 706.218 18.0224V22.0224C711.571 22.0224 716.848 23.016 721.713 25.4858L723.523 21.9191ZM706.218 18.0224C700.245 18.0224 695.221 19.732 691.661 22.8473C688.079 25.9817 686.138 30.4042 686.138 35.4624H690.138C690.138 31.4806 691.637 28.1831 694.295 25.8576C696.975 23.5128 700.991 22.0224 706.218 22.0224V18.0224ZM686.138 35.4624C686.138 40.6247 688.037 44.3878 690.892 47.2198C693.669 49.9745 697.294 51.7904 700.65 53.2721C704.153 54.8181 707.217 55.9536 709.547 57.4259C711.789 58.8416 712.778 60.2198 712.778 62.0224H716.778C716.778 58.2251 714.437 55.7833 711.683 54.044C709.019 52.3612 705.423 51.0067 702.266 49.6128C698.962 48.1544 695.927 46.5803 693.709 44.38C691.569 42.2571 690.138 39.5001 690.138 35.4624H686.138ZM712.778 62.0224C712.778 63.8693 712.2 65.1193 711.086 65.9792C709.876 66.9133 707.732 67.6224 704.138 67.6224V71.6224C708.143 71.6224 711.32 70.8516 713.53 69.1456C715.836 67.3655 716.778 64.8155 716.778 62.0224H712.778ZM704.138 67.6224C700.136 67.6224 694.825 66.6581 688.587 63.7318L686.888 67.3531C693.611 70.5067 699.499 71.6224 704.138 71.6224V67.6224ZM685.738 65.5424V74.3424H689.738V65.5424H685.738ZM686.886 76.1521C692.632 78.8558 699.01 79.9424 704.138 79.9424V75.9424C699.506 75.9424 693.724 74.9491 688.589 72.5328L686.886 76.1521Z" fill="black"/>
<path d="M7.2 76.9824H42.32V68.8224H16.32V52.5824H38.64V44.4224H16.32V29.1424H42.32V20.9824H7.2V76.9824ZM100.408 76.9824L118.968 20.9824H109.368L95.6881 65.8624L81.7681 20.9824H72.0881L90.6481 76.9824H100.408ZM151.919 76.9824H187.039V68.8224H161.039V52.5824H183.359V44.4224H161.039V29.1424H187.039V20.9824H151.919V76.9824ZM253.527 76.9824H263.767V20.9824H255.287V63.5424L232.487 20.9824H222.247V76.9824H230.727V34.4224L253.527 76.9824ZM302.184 76.9824H337.304V68.8224H311.304V52.5824H333.624V44.4224H311.304V29.1424H337.304V20.9824H302.184V76.9824ZM394.353 59.1424H401.793L414.833 36.1824V76.9824H423.633V20.9824H414.433L398.113 49.7024L381.713 20.9824H372.513V76.9824H381.313V36.1824L394.353 59.1424ZM462.059 76.9824H497.179V68.8224H471.179V52.5824H493.499V44.4224H471.179V29.1424H497.179V20.9824H462.059V76.9824ZM563.668 76.9824H573.908V20.9824H565.428V63.5424L542.628 20.9824H532.388V76.9824H540.868V34.4224L563.668 76.9824ZM650.085 29.1424V20.9824H606.565V29.1424H623.765V76.9824H632.885V29.1424H650.085ZM696.331 77.9424C709.291 77.9424 716.091 71.4624 716.091 61.3024C716.091 43.7824 689.451 46.1024 689.451 34.9024C689.451 31.0624 691.851 28.3424 698.411 28.3424C703.371 28.3424 708.571 29.7024 714.811 32.5024V23.7024C709.611 21.0624 704.011 20.0224 698.411 20.0224C687.211 20.0224 680.331 26.4224 680.331 35.4624C680.331 53.8624 706.971 50.8224 706.971 62.0224C706.971 66.6624 703.931 69.6224 696.331 69.6224C692.011 69.6224 686.411 68.5824 679.931 65.5424V74.3424C685.371 76.9024 691.451 77.9424 696.331 77.9424Z" fill="#4247C6"/>
<path d="M7.2 76.9824H5.2V78.9824H7.2V76.9824ZM42.32 76.9824V78.9824H44.32V76.9824H42.32ZM42.32 68.8224H44.32V66.8224H42.32V68.8224ZM16.32 68.8224H14.32V70.8224H16.32V68.8224ZM16.32 52.5824V50.5824H14.32V52.5824H16.32ZM38.64 52.5824V54.5824H40.64V52.5824H38.64ZM38.64 44.4224H40.64V42.4224H38.64V44.4224ZM16.32 44.4224H14.32V46.4224H16.32V44.4224ZM16.32 29.1424V27.1424H14.32V29.1424H16.32ZM42.32 29.1424V31.1424H44.32V29.1424H42.32ZM42.32 20.9824H44.32V18.9824H42.32V20.9824ZM7.2 20.9824V18.9824H5.2V20.9824H7.2ZM7.2 78.9824H42.32V74.9824H7.2V78.9824ZM44.32 76.9824V68.8224H40.32V76.9824H44.32ZM42.32 66.8224H16.32V70.8224H42.32V66.8224ZM18.32 68.8224V52.5824H14.32V68.8224H18.32ZM16.32 54.5824H38.64V50.5824H16.32V54.5824ZM40.64 52.5824V44.4224H36.64V52.5824H40.64ZM38.64 42.4224H16.32V46.4224H38.64V42.4224ZM18.32 44.4224V29.1424H14.32V44.4224H18.32ZM16.32 31.1424H42.32V27.1424H16.32V31.1424ZM44.32 29.1424V20.9824H40.32V29.1424H44.32ZM42.32 18.9824H7.2V22.9824H42.32V18.9824ZM5.2 20.9824V76.9824H9.2V20.9824H5.2ZM100.408 76.9824V78.9824H101.852L102.307 77.6116L100.408 76.9824ZM118.968 20.9824L120.867 21.6116L121.738 18.9824H118.968V20.9824ZM109.368 20.9824V18.9824H107.887L107.455 20.3993L109.368 20.9824ZM95.6881 65.8624L93.7779 66.4549L95.7048 72.6673L97.6012 66.4456L95.6881 65.8624ZM81.7681 20.9824L83.6784 20.3899L83.2418 18.9824H81.7681V20.9824ZM72.0881 20.9824V18.9824H69.3183L70.1897 21.6116L72.0881 20.9824ZM90.6481 76.9824L88.7497 77.6116L89.204 78.9824H90.6481V76.9824ZM102.307 77.6116L120.867 21.6116L117.07 20.3532L98.5097 76.3532L102.307 77.6116ZM118.968 18.9824H109.368V22.9824H118.968V18.9824ZM107.455 20.3993L93.775 65.2793L97.6012 66.4456L111.281 21.5656L107.455 20.3993ZM97.5984 65.2699L83.6784 20.3899L79.8579 21.5749L93.7779 66.4549L97.5984 65.2699ZM81.7681 18.9824H72.0881V22.9824H81.7681V18.9824ZM70.1897 21.6116L88.7497 77.6116L92.5466 76.3532L73.9866 20.3532L70.1897 21.6116ZM90.6481 78.9824H100.408V74.9824H90.6481V78.9824ZM151.919 76.9824H149.919V78.9824H151.919V76.9824ZM187.039 76.9824V78.9824H189.039V76.9824H187.039ZM187.039 68.8224H189.039V66.8224H187.039V68.8224ZM161.039 68.8224H159.039V70.8224H161.039V68.8224ZM161.039 52.5824V50.5824H159.039V52.5824H161.039ZM183.359 52.5824V54.5824H185.359V52.5824H183.359ZM183.359 44.4224H185.359V42.4224H183.359V44.4224ZM161.039 44.4224H159.039V46.4224H161.039V44.4224ZM161.039 29.1424V27.1424H159.039V29.1424H161.039ZM187.039 29.1424V31.1424H189.039V29.1424H187.039ZM187.039 20.9824H189.039V18.9824H187.039V20.9824ZM151.919 20.9824V18.9824H149.919V20.9824H151.919ZM151.919 78.9824H187.039V74.9824H151.919V78.9824ZM189.039 76.9824V68.8224H185.039V76.9824H189.039ZM187.039 66.8224H161.039V70.8224H187.039V66.8224ZM163.039 68.8224V52.5824H159.039V68.8224H163.039ZM161.039 54.5824H183.359V50.5824H161.039V54.5824ZM185.359 52.5824V44.4224H181.359V52.5824H185.359ZM183.359 42.4224H161.039V46.4224H183.359V42.4224ZM163.039 44.4224V29.1424H159.039V44.4224H163.039ZM161.039 31.1424H187.039V27.1424H161.039V31.1424ZM189.039 29.1424V20.9824H185.039V29.1424H189.039ZM187.039 18.9824H151.919V22.9824H187.039V18.9824ZM149.919 20.9824V76.9824H153.919V20.9824H149.919ZM253.527 76.9824L251.764 77.9269L252.329 78.9824H253.527V76.9824ZM263.767 76.9824V78.9824H265.767V76.9824H263.767ZM263.767 20.9824H265.767V18.9824H263.767V20.9824ZM255.287 20.9824V18.9824H253.287V20.9824H255.287ZM255.287 63.5424L253.524 64.4869L257.287 63.5424H255.287ZM232.487 20.9824L234.25 20.038L233.684 18.9824H232.487V20.9824ZM222.247 20.9824V18.9824H220.247V20.9824H222.247ZM222.247 76.9824H220.247V78.9824H222.247V76.9824ZM230.727 76.9824V78.9824H232.727V76.9824H230.727ZM230.727 34.4224L232.49 33.478L228.727 34.4224H230.727ZM253.527 78.9824H263.767V74.9824H253.527V78.9824ZM265.767 76.9824V20.9824H261.767V76.9824H265.767ZM263.767 18.9824H255.287V22.9824H263.767V18.9824ZM253.287 20.9824V63.5424H257.287V20.9824H253.287ZM257.05 62.598L234.25 20.038L230.724 21.9269L253.524 64.4869L257.05 62.598ZM232.487 18.9824H222.247V22.9824H232.487V18.9824ZM220.247 20.9824V76.9824H224.247V20.9824H220.247ZM222.247 78.9824H230.727V74.9824H222.247V78.9824ZM232.727 76.9824V34.4224H228.727V76.9824H232.727ZM228.964 35.3669L251.764 77.9269L255.29 76.038L232.49 33.478L228.964 35.3669ZM302.184 76.9824H300.184V78.9824H302.184V76.9824ZM337.304 76.9824V78.9824H339.304V76.9824H337.304ZM337.304 68.8224H339.304V66.8224H337.304V68.8224ZM311.304 68.8224H309.304V70.8224H311.304V68.8224ZM311.304 52.5824V50.5824H309.304V52.5824H311.304ZM333.624 52.5824V54.5824H335.624V52.5824H333.624ZM333.624 44.4224H335.624V42.4224H333.624V44.4224ZM311.304 44.4224H309.304V46.4224H311.304V44.4224ZM311.304 29.1424V27.1424H309.304V29.1424H311.304ZM337.304 29.1424V31.1424H339.304V29.1424H337.304ZM337.304 20.9824H339.304V18.9824H337.304V20.9824ZM302.184 20.9824V18.9824H300.184V20.9824H302.184ZM302.184 78.9824H337.304V74.9824H302.184V78.9824ZM339.304 76.9824V68.8224H335.304V76.9824H339.304ZM337.304 66.8224H311.304V70.8224H337.304V66.8224ZM313.304 68.8224V52.5824H309.304V68.8224H313.304ZM311.304 54.5824H333.624V50.5824H311.304V54.5824ZM335.624 52.5824V44.4224H331.624V52.5824H335.624ZM333.624 42.4224H311.304V46.4224H333.624V42.4224ZM313.304 44.4224V29.1424H309.304V44.4224H313.304ZM311.304 31.1424H337.304V27.1424H311.304V31.1424ZM339.304 29.1424V20.9824H335.304V29.1424H339.304ZM337.304 18.9824H302.184V22.9824H337.304V18.9824ZM300.184 20.9824V76.9824H304.184V20.9824H300.184ZM394.353 59.1424L392.613 60.1301L393.188 61.1424H394.353V59.1424ZM401.793 59.1424V61.1424H402.957L403.532 60.1301L401.793 59.1424ZM414.832 36.1824H416.832V28.6112L413.093 35.1947L414.832 36.1824ZM414.832 76.9824H412.832V78.9824H414.832V76.9824ZM423.633 76.9824V78.9824H425.633V76.9824H423.633ZM423.633 20.9824H425.633V18.9824H423.633V20.9824ZM414.432 20.9824V18.9824H413.269L412.694 19.9943L414.432 20.9824ZM398.112 49.7024L396.376 50.6942L398.117 53.7431L399.851 50.6905L398.112 49.7024ZM381.712 20.9824L383.449 19.9907L382.874 18.9824H381.712V20.9824ZM372.513 20.9824V18.9824H370.513V20.9824H372.513ZM372.513 76.9824H370.513V78.9824H372.513V76.9824ZM381.312 76.9824V78.9824H383.312V76.9824H381.312ZM381.312 36.1824L383.052 35.1947L379.312 28.6112V36.1824H381.312ZM394.353 61.1424H401.793V57.1424H394.353V61.1424ZM403.532 60.1301L416.572 37.1701L413.093 35.1947L400.053 58.1547L403.532 60.1301ZM412.832 36.1824V76.9824H416.832V36.1824H412.832ZM414.832 78.9824H423.633V74.9824H414.832V78.9824ZM425.633 76.9824V20.9824H421.633V76.9824H425.633ZM423.633 18.9824H414.432V22.9824H423.633V18.9824ZM412.694 19.9943L396.374 48.7143L399.851 50.6905L416.171 21.9705L412.694 19.9943ZM399.849 48.7107L383.449 19.9907L379.976 21.9742L396.376 50.6942L399.849 48.7107ZM381.712 18.9824H372.513V22.9824H381.712V18.9824ZM370.513 20.9824V76.9824H374.513V20.9824H370.513ZM372.513 78.9824H381.312V74.9824H372.513V78.9824ZM383.312 76.9824V36.1824H379.312V76.9824H383.312ZM379.573 37.1701L392.613 60.1301L396.092 58.1547L383.052 35.1947L379.573 37.1701ZM462.059 76.9824H460.059V78.9824H462.059V76.9824ZM497.179 76.9824V78.9824H499.179V76.9824H497.179ZM497.179 68.8224H499.179V66.8224H497.179V68.8224ZM471.179 68.8224H469.179V70.8224H471.179V68.8224ZM471.179 52.5824V50.5824H469.179V52.5824H471.179ZM493.499 52.5824V54.5824H495.499V52.5824H493.499ZM493.499 44.4224H495.499V42.4224H493.499V44.4224ZM471.179 44.4224H469.179V46.4224H471.179V44.4224ZM471.179 29.1424V27.1424H469.179V29.1424H471.179ZM497.179 29.1424V31.1424H499.179V29.1424H497.179ZM497.179 20.9824H499.179V18.9824H497.179V20.9824ZM462.059 20.9824V18.9824H460.059V20.9824H462.059ZM462.059 78.9824H497.179V74.9824H462.059V78.9824ZM499.179 76.9824V68.8224H495.179V76.9824H499.179ZM497.179 66.8224H471.179V70.8224H497.179V66.8224ZM473.179 68.8224V52.5824H469.179V68.8224H473.179ZM471.179 54.5824H493.499V50.5824H471.179V54.5824ZM495.499 52.5824V44.4224H491.499V52.5824H495.499ZM493.499 42.4224H471.179V46.4224H493.499V42.4224ZM473.179 44.4224V29.1424H469.179V44.4224H473.179ZM471.179 31.1424H497.179V27.1424H471.179V31.1424ZM499.179 29.1424V20.9824H495.179V29.1424H499.179ZM497.179 18.9824H462.059V22.9824H497.179V18.9824ZM460.059 20.9824V76.9824H464.059V20.9824H460.059ZM563.667 76.9824L561.905 77.9269L562.47 78.9824H563.667V76.9824ZM573.908 76.9824V78.9824H575.908V76.9824H573.908ZM573.908 20.9824H575.908V18.9824H573.908V20.9824ZM565.427 20.9824V18.9824H563.427V20.9824H565.427ZM565.427 63.5424L563.665 64.4869L567.427 63.5424H565.427ZM542.628 20.9824L544.39 20.038L543.825 18.9824H542.628V20.9824ZM532.388 20.9824V18.9824H530.388V20.9824H532.388ZM532.388 76.9824H530.388V78.9824H532.388V76.9824ZM540.867 76.9824V78.9824H542.867V76.9824H540.867ZM540.867 34.4224L542.63 33.478L538.867 34.4224H540.867ZM563.667 78.9824H573.908V74.9824H563.667V78.9824ZM575.908 76.9824V20.9824H571.908V76.9824H575.908ZM573.908 18.9824H565.427V22.9824H573.908V18.9824ZM563.427 20.9824V63.5424H567.427V20.9824H563.427ZM567.19 62.598L544.39 20.038L540.865 21.9269L563.665 64.4869L567.19 62.598ZM542.628 18.9824H532.388V22.9824H542.628V18.9824ZM530.388 20.9824V76.9824H534.388V20.9824H530.388ZM532.388 78.9824H540.867V74.9824H532.388V78.9824ZM542.867 76.9824V34.4224H538.867V76.9824H542.867ZM539.105 35.3669L561.905 77.9269L565.43 76.038L542.63 33.478L539.105 35.3669ZM650.085 29.1424V31.1424H652.085V29.1424H650.085ZM650.085 20.9824H652.085V18.9824H650.085V20.9824ZM606.565 20.9824V18.9824H604.565V20.9824H606.565ZM606.565 29.1424H604.565V31.1424H606.565V29.1424ZM623.765 29.1424H625.765V27.1424H623.765V29.1424ZM623.765 76.9824H621.765V78.9824H623.765V76.9824ZM632.885 76.9824V78.9824H634.885V76.9824H632.885ZM632.885 29.1424V27.1424H630.885V29.1424H632.885ZM652.085 29.1424V20.9824H648.085V29.1424H652.085ZM650.085 18.9824H606.565V22.9824H650.085V18.9824ZM604.565 20.9824V29.1424H608.565V20.9824H604.565ZM606.565 31.1424H623.765V27.1424H606.565V31.1424ZM621.765 29.1424V76.9824H625.765V29.1424H621.765ZM623.765 78.9824H632.885V74.9824H623.765V78.9824ZM634.885 76.9824V29.1424H630.885V76.9824H634.885ZM632.885 31.1424H650.085V27.1424H632.885V31.1424ZM714.811 32.5024L713.992 34.3271L716.811 35.592V32.5024H714.811ZM714.811 23.7024H716.811V22.4748L715.717 21.9191L714.811 23.7024ZM679.931 65.5424L680.781 63.7318L677.931 62.395V65.5424H679.931ZM679.931 74.3424H677.931V75.6116L679.08 76.1521L679.931 74.3424ZM696.331 79.9424C703.122 79.9424 708.589 78.2449 712.384 74.9409C716.217 71.6046 718.091 66.8513 718.091 61.3024H714.091C714.091 65.9136 712.565 69.4803 709.758 71.9239C706.914 74.3999 702.5 75.9424 696.331 75.9424V79.9424ZM718.091 61.3024C718.091 56.3284 716.167 52.6847 713.321 49.9252C710.553 47.2421 706.941 45.4221 703.595 43.9099C700.111 42.3354 697.033 41.1333 694.707 39.6142C692.457 38.1444 691.451 36.7192 691.451 34.9024H687.451C687.451 38.6857 689.775 41.1705 692.52 42.9631C695.189 44.7065 698.771 46.1194 701.948 47.5549C705.262 49.0528 708.309 50.6377 710.537 52.7971C712.685 54.8801 714.091 57.5164 714.091 61.3024H718.091ZM691.451 34.9024C691.451 33.4205 691.894 32.4195 692.737 31.7313C693.653 30.9825 695.359 30.3424 698.411 30.3424V26.3424C694.903 26.3424 692.129 27.0623 690.206 28.6335C688.208 30.2654 687.451 32.5443 687.451 34.9024H691.451ZM698.411 30.3424C702.992 30.3424 707.903 31.5948 713.992 34.3271L715.63 30.6777C709.239 27.8101 703.751 26.3424 698.411 26.3424V30.3424ZM716.811 32.5024V23.7024H712.811V32.5024H716.811ZM715.717 21.9191C710.181 19.1089 704.258 18.0224 698.411 18.0224V22.0224C703.764 22.0224 709.041 23.016 713.906 25.4858L715.717 21.9191ZM698.411 18.0224C692.438 18.0224 687.415 19.732 683.854 22.8473C680.272 25.9817 678.331 30.4042 678.331 35.4624H682.331C682.331 31.4806 683.831 28.1831 686.488 25.8576C689.168 23.5128 693.185 22.0224 698.411 22.0224V18.0224ZM678.331 35.4624C678.331 40.6247 680.23 44.3878 683.085 47.2198C685.862 49.9745 689.487 51.7904 692.844 53.2721C696.346 54.8181 699.41 55.9536 701.741 57.4259C703.982 58.8416 704.971 60.2198 704.971 62.0224H708.971C708.971 58.2251 706.63 55.7833 703.877 54.044C701.213 52.3612 697.617 51.0067 694.459 49.6128C691.155 48.1544 688.12 46.5803 685.902 44.38C683.762 42.2571 682.331 39.5001 682.331 35.4624H678.331ZM704.971 62.0224C704.971 63.8693 704.393 65.1193 703.279 65.9792C702.069 66.9133 699.926 67.6224 696.331 67.6224V71.6224C700.337 71.6224 703.513 70.8516 705.723 69.1456C708.029 67.3655 708.971 64.8155 708.971 62.0224H704.971ZM696.331 67.6224C692.33 67.6224 687.018 66.6581 680.781 63.7318L679.082 67.3531C685.804 70.5067 691.693 71.6224 696.331 71.6224V67.6224ZM677.931 65.5424V74.3424H681.931V65.5424H677.931ZM679.08 76.1521C684.825 78.8558 691.203 79.9424 696.331 79.9424V75.9424C691.699 75.9424 685.917 74.9491 680.783 72.5328L679.08 76.1521Z" fill="black"/>
</svg>
