<svg width="729" height="97" viewBox="0 0 729 97" fill="none" xmlns="http://www.w3.org/2000/svg">
<path d="M15.0066 76.9824H50.1266V68.8224H24.1266V52.5824H46.4466V44.4224H24.1266V29.1424H50.1266V20.9824H15.0066V76.9824ZM108.215 76.9824L126.775 20.9824H117.175L103.495 65.8624L89.5748 20.9824H79.8948L98.4548 76.9824H108.215ZM159.725 76.9824H194.845V68.8224H168.845V52.5824H191.165V44.4224H168.845V29.1424H194.845V20.9824H159.725V76.9824ZM261.334 76.9824H271.574V20.9824H263.094V63.5424L240.294 20.9824H230.054V76.9824H238.534V34.4224L261.334 76.9824ZM309.991 76.9824H345.111V68.8224H319.111V52.5824H341.431V44.4224H319.111V29.1424H345.111V20.9824H309.991V76.9824ZM402.159 59.1424H409.599L422.639 36.1824V76.9824H431.439V20.9824H422.239L405.919 49.7024L389.519 20.9824H380.319V76.9824H389.119V36.1824L402.159 59.1424ZM469.866 76.9824H504.986V68.8224H478.986V52.5824H501.306V44.4224H478.986V29.1424H504.986V20.9824H469.866V76.9824ZM571.474 76.9824H581.714V20.9824H573.234V63.5424L550.434 20.9824H540.194V76.9824H548.674V34.4224L571.474 76.9824ZM657.892 29.1424V20.9824H614.372V29.1424H631.572V76.9824H640.692V29.1424H657.892ZM704.138 77.9424C717.098 77.9424 723.898 71.4624 723.898 61.3024C723.898 43.7824 697.258 46.1024 697.258 34.9024C697.258 31.0624 699.658 28.3424 706.218 28.3424C711.178 28.3424 716.378 29.7024 722.618 32.5024V23.7024C717.418 21.0624 711.818 20.0224 706.218 20.0224C695.018 20.0224 688.138 26.4224 688.138 35.4624C688.138 53.8624 714.778 50.8224 714.778 62.0224C714.778 66.6624 711.738 69.6224 704.138 69.6224C699.818 69.6224 694.218 68.5824 687.738 65.5424V74.3424C693.178 76.9024 699.258 77.9424 704.138 77.9424Z" fill="white"/>
<path d="M15.0066 76.9824H14.0066V77.9824H15.0066V76.9824ZM50.1266 76.9824V77.9824H51.1266V76.9824H50.1266ZM50.1266 68.8224H51.1266V67.8224H50.1266V68.8224ZM24.1266 68.8224H23.1266V69.8224H24.1266V68.8224ZM24.1266 52.5824V51.5824H23.1266V52.5824H24.1266ZM46.4466 52.5824V53.5824H47.4466V52.5824H46.4466ZM46.4466 44.4224H47.4466V43.4224H46.4466V44.4224ZM24.1266 44.4224H23.1266V45.4224H24.1266V44.4224ZM24.1266 29.1424V28.1424H23.1266V29.1424H24.1266ZM50.1266 29.1424V30.1424H51.1266V29.1424H50.1266ZM50.1266 20.9824H51.1266V19.9824H50.1266V20.9824ZM15.0066 20.9824V19.9824H14.0066V20.9824H15.0066ZM15.0066 77.9824H50.1266V75.9824H15.0066V77.9824ZM51.1266 76.9824V68.8224H49.1266V76.9824H51.1266ZM50.1266 67.8224H24.1266V69.8224H50.1266V67.8224ZM25.1266 68.8224V52.5824H23.1266V68.8224H25.1266ZM24.1266 53.5824H46.4466V51.5824H24.1266V53.5824ZM47.4466 52.5824V44.4224H45.4466V52.5824H47.4466ZM46.4466 43.4224H24.1266V45.4224H46.4466V43.4224ZM25.1266 44.4224V29.1424H23.1266V44.4224H25.1266ZM24.1266 30.1424H50.1266V28.1424H24.1266V30.1424ZM51.1266 29.1424V20.9824H49.1266V29.1424H51.1266ZM50.1266 19.9824H15.0066V21.9824H50.1266V19.9824ZM14.0066 20.9824V76.9824H16.0066V20.9824H14.0066ZM108.215 76.9824V77.9824H108.937L109.164 77.297L108.215 76.9824ZM126.775 20.9824L127.724 21.297L128.16 19.9824H126.775V20.9824ZM117.175 20.9824V19.9824H116.434L116.218 20.6908L117.175 20.9824ZM103.495 65.8624L102.54 66.1587L103.503 69.2649L104.451 66.154L103.495 65.8624ZM89.5748 20.9824L90.5299 20.6862L90.3116 19.9824H89.5748V20.9824ZM79.8948 20.9824V19.9824H78.5098L78.9455 21.297L79.8948 20.9824ZM98.4548 76.9824L97.5055 77.297L97.7327 77.9824H98.4548V76.9824ZM109.164 77.297L127.724 21.297L125.826 20.6678L107.266 76.6678L109.164 77.297ZM126.775 19.9824H117.175V21.9824H126.775V19.9824ZM116.218 20.6908L102.538 65.5709L104.451 66.154L118.131 21.274L116.218 20.6908ZM104.45 65.5662L90.5299 20.6862L88.6197 21.2787L102.54 66.1587L104.45 65.5662ZM89.5748 19.9824H79.8948V21.9824H89.5748V19.9824ZM78.9455 21.297L97.5055 77.297L99.404 76.6678L80.844 20.6678L78.9455 21.297ZM98.4548 77.9824H108.215V75.9824H98.4548V77.9824ZM159.725 76.9824H158.725V77.9824H159.725V76.9824ZM194.845 76.9824V77.9824H195.845V76.9824H194.845ZM194.845 68.8224H195.845V67.8224H194.845V68.8224ZM168.845 68.8224H167.845V69.8224H168.845V68.8224ZM168.845 52.5824V51.5824H167.845V52.5824H168.845ZM191.165 52.5824V53.5824H192.165V52.5824H191.165ZM191.165 44.4224H192.165V43.4224H191.165V44.4224ZM168.845 44.4224H167.845V45.4224H168.845V44.4224ZM168.845 29.1424V28.1424H167.845V29.1424H168.845ZM194.845 29.1424V30.1424H195.845V29.1424H194.845ZM194.845 20.9824H195.845V19.9824H194.845V20.9824ZM159.725 20.9824V19.9824H158.725V20.9824H159.725ZM159.725 77.9824H194.845V75.9824H159.725V77.9824ZM195.845 76.9824V68.8224H193.845V76.9824H195.845ZM194.845 67.8224H168.845V69.8224H194.845V67.8224ZM169.845 68.8224V52.5824H167.845V68.8224H169.845ZM168.845 53.5824H191.165V51.5824H168.845V53.5824ZM192.165 52.5824V44.4224H190.165V52.5824H192.165ZM191.165 43.4224H168.845V45.4224H191.165V43.4224ZM169.845 44.4224V29.1424H167.845V44.4224H169.845ZM168.845 30.1424H194.845V28.1424H168.845V30.1424ZM195.845 29.1424V20.9824H193.845V29.1424H195.845ZM194.845 19.9824H159.725V21.9824H194.845V19.9824ZM158.725 20.9824V76.9824H160.725V20.9824H158.725ZM261.334 76.9824L260.452 77.4546L260.735 77.9824H261.334V76.9824ZM271.574 76.9824V77.9824H272.574V76.9824H271.574ZM271.574 20.9824H272.574V19.9824H271.574V20.9824ZM263.094 20.9824V19.9824H262.094V20.9824H263.094ZM263.094 63.5424L262.212 64.0146L264.094 63.5424H263.094ZM240.294 20.9824L241.175 20.5102L240.892 19.9824H240.294V20.9824ZM230.054 20.9824V19.9824H229.054V20.9824H230.054ZM230.054 76.9824H229.054V77.9824H230.054V76.9824ZM238.534 76.9824V77.9824H239.534V76.9824H238.534ZM238.534 34.4224L239.415 33.9502L237.534 34.4224H238.534ZM261.334 77.9824H271.574V75.9824H261.334V77.9824ZM272.574 76.9824V20.9824H270.574V76.9824H272.574ZM271.574 19.9824H263.094V21.9824H271.574V19.9824ZM262.094 20.9824V63.5424H264.094V20.9824H262.094ZM263.975 63.0702L241.175 20.5102L239.412 21.4546L262.212 64.0146L263.975 63.0702ZM240.294 19.9824H230.054V21.9824H240.294V19.9824ZM229.054 20.9824V76.9824H231.054V20.9824H229.054ZM230.054 77.9824H238.534V75.9824H230.054V77.9824ZM239.534 76.9824V34.4224H237.534V76.9824H239.534ZM237.652 34.8946L260.452 77.4546L262.215 76.5102L239.415 33.9502L237.652 34.8946ZM309.991 76.9824H308.991V77.9824H309.991V76.9824ZM345.111 76.9824V77.9824H346.111V76.9824H345.111ZM345.111 68.8224H346.111V67.8224H345.111V68.8224ZM319.111 68.8224H318.111V69.8224H319.111V68.8224ZM319.111 52.5824V51.5824H318.111V52.5824H319.111ZM341.431 52.5824V53.5824H342.431V52.5824H341.431ZM341.431 44.4224H342.431V43.4224H341.431V44.4224ZM319.111 44.4224H318.111V45.4224H319.111V44.4224ZM319.111 29.1424V28.1424H318.111V29.1424H319.111ZM345.111 29.1424V30.1424H346.111V29.1424H345.111ZM345.111 20.9824H346.111V19.9824H345.111V20.9824ZM309.991 20.9824V19.9824H308.991V20.9824H309.991ZM309.991 77.9824H345.111V75.9824H309.991V77.9824ZM346.111 76.9824V68.8224H344.111V76.9824H346.111ZM345.111 67.8224H319.111V69.8224H345.111V67.8224ZM320.111 68.8224V52.5824H318.111V68.8224H320.111ZM319.111 53.5824H341.431V51.5824H319.111V53.5824ZM342.431 52.5824V44.4224H340.431V52.5824H342.431ZM341.431 43.4224H319.111V45.4224H341.431V43.4224ZM320.111 44.4224V29.1424H318.111V44.4224H320.111ZM319.111 30.1424H345.111V28.1424H319.111V30.1424ZM346.111 29.1424V20.9824H344.111V29.1424H346.111ZM345.111 19.9824H309.991V21.9824H345.111V19.9824ZM308.991 20.9824V76.9824H310.991V20.9824H308.991ZM402.159 59.1424L401.29 59.6363L401.577 60.1424H402.159V59.1424ZM409.599 59.1424V60.1424H410.181L410.469 59.6363L409.599 59.1424ZM422.639 36.1824H423.639V32.3968L421.77 35.6886L422.639 36.1824ZM422.639 76.9824H421.639V77.9824H422.639V76.9824ZM431.439 76.9824V77.9824H432.439V76.9824H431.439ZM431.439 20.9824H432.439V19.9824H431.439V20.9824ZM422.239 20.9824V19.9824H421.657L421.37 20.4884L422.239 20.9824ZM405.919 49.7024L405.051 50.1983L405.921 51.7228L406.789 50.1965L405.919 49.7024ZM389.519 20.9824L390.388 20.4865L390.1 19.9824H389.519V20.9824ZM380.319 20.9824V19.9824H379.319V20.9824H380.319ZM380.319 76.9824H379.319V77.9824H380.319V76.9824ZM389.119 76.9824V77.9824H390.119V76.9824H389.119ZM389.119 36.1824L389.989 35.6886L388.119 32.3968V36.1824H389.119ZM402.159 60.1424H409.599V58.1424H402.159V60.1424ZM410.469 59.6363L423.509 36.6763L421.77 35.6886L408.73 58.6486L410.469 59.6363ZM421.639 36.1824V76.9824H423.639V36.1824H421.639ZM422.639 77.9824H431.439V75.9824H422.639V77.9824ZM432.439 76.9824V20.9824H430.439V76.9824H432.439ZM431.439 19.9824H422.239V21.9824H431.439V19.9824ZM421.37 20.4884L405.05 49.2084L406.789 50.1965L423.109 21.4765L421.37 20.4884ZM406.788 49.2065L390.388 20.4865L388.651 21.4783L405.051 50.1983L406.788 49.2065ZM389.519 19.9824H380.319V21.9824H389.519V19.9824ZM379.319 20.9824V76.9824H381.319V20.9824H379.319ZM380.319 77.9824H389.119V75.9824H380.319V77.9824ZM390.119 76.9824V36.1824H388.119V76.9824H390.119ZM388.25 36.6763L401.29 59.6363L403.029 58.6486L389.989 35.6886L388.25 36.6763ZM469.866 76.9824H468.866V77.9824H469.866V76.9824ZM504.986 76.9824V77.9824H505.986V76.9824H504.986ZM504.986 68.8224H505.986V67.8224H504.986V68.8224ZM478.986 68.8224H477.986V69.8224H478.986V68.8224ZM478.986 52.5824V51.5824H477.986V52.5824H478.986ZM501.306 52.5824V53.5824H502.306V52.5824H501.306ZM501.306 44.4224H502.306V43.4224H501.306V44.4224ZM478.986 44.4224H477.986V45.4224H478.986V44.4224ZM478.986 29.1424V28.1424H477.986V29.1424H478.986ZM504.986 29.1424V30.1424H505.986V29.1424H504.986ZM504.986 20.9824H505.986V19.9824H504.986V20.9824ZM469.866 20.9824V19.9824H468.866V20.9824H469.866ZM469.866 77.9824H504.986V75.9824H469.866V77.9824ZM505.986 76.9824V68.8224H503.986V76.9824H505.986ZM504.986 67.8224H478.986V69.8224H504.986V67.8224ZM479.986 68.8224V52.5824H477.986V68.8224H479.986ZM478.986 53.5824H501.306V51.5824H478.986V53.5824ZM502.306 52.5824V44.4224H500.306V52.5824H502.306ZM501.306 43.4224H478.986V45.4224H501.306V43.4224ZM479.986 44.4224V29.1424H477.986V44.4224H479.986ZM478.986 30.1424H504.986V28.1424H478.986V30.1424ZM505.986 29.1424V20.9824H503.986V29.1424H505.986ZM504.986 19.9824H469.866V21.9824H504.986V19.9824ZM468.866 20.9824V76.9824H470.866V20.9824H468.866ZM571.474 76.9824L570.593 77.4546L570.875 77.9824H571.474V76.9824ZM581.714 76.9824V77.9824H582.714V76.9824H581.714ZM581.714 20.9824H582.714V19.9824H581.714V20.9824ZM573.234 20.9824V19.9824H572.234V20.9824H573.234ZM573.234 63.5424L572.353 64.0146L574.234 63.5424H573.234ZM550.434 20.9824L551.316 20.5102L551.033 19.9824H550.434V20.9824ZM540.194 20.9824V19.9824H539.194V20.9824H540.194ZM540.194 76.9824H539.194V77.9824H540.194V76.9824ZM548.674 76.9824V77.9824H549.674V76.9824H548.674ZM548.674 34.4224L549.556 33.9502L547.674 34.4224H548.674ZM571.474 77.9824H581.714V75.9824H571.474V77.9824ZM582.714 76.9824V20.9824H580.714V76.9824H582.714ZM581.714 19.9824H573.234V21.9824H581.714V19.9824ZM572.234 20.9824V63.5424H574.234V20.9824H572.234ZM574.116 63.0702L551.316 20.5102L549.553 21.4546L572.353 64.0146L574.116 63.0702ZM550.434 19.9824H540.194V21.9824H550.434V19.9824ZM539.194 20.9824V76.9824H541.194V20.9824H539.194ZM540.194 77.9824H548.674V75.9824H540.194V77.9824ZM549.674 76.9824V34.4224H547.674V76.9824H549.674ZM547.793 34.8946L570.593 77.4546L572.356 76.5102L549.556 33.9502L547.793 34.8946ZM657.892 29.1424V30.1424H658.892V29.1424H657.892ZM657.892 20.9824H658.892V19.9824H657.892V20.9824ZM614.372 20.9824V19.9824H613.372V20.9824H614.372ZM614.372 29.1424H613.372V30.1424H614.372V29.1424ZM631.572 29.1424H632.572V28.1424H631.572V29.1424ZM631.572 76.9824H630.572V77.9824H631.572V76.9824ZM640.692 76.9824V77.9824H641.692V76.9824H640.692ZM640.692 29.1424V28.1424H639.692V29.1424H640.692ZM658.892 29.1424V20.9824H656.892V29.1424H658.892ZM657.892 19.9824H614.372V21.9824H657.892V19.9824ZM613.372 20.9824V29.1424H615.372V20.9824H613.372ZM614.372 30.1424H631.572V28.1424H614.372V30.1424ZM630.572 29.1424V76.9824H632.572V29.1424H630.572ZM631.572 77.9824H640.692V75.9824H631.572V77.9824ZM641.692 76.9824V29.1424H639.692V76.9824H641.692ZM640.692 30.1424H657.892V28.1424H640.692V30.1424ZM722.618 32.5024L722.209 33.4148L723.618 34.0472V32.5024H722.618ZM722.618 23.7024H723.618V23.0886L723.071 22.8108L722.618 23.7024ZM687.738 65.5424L688.163 64.6371L686.738 63.9687V65.5424H687.738ZM687.738 74.3424H686.738V74.977L687.312 75.2472L687.738 74.3424ZM704.138 78.9424C710.773 78.9424 715.977 77.2837 719.534 74.1867C723.111 71.0735 724.898 66.6168 724.898 61.3024H722.898C722.898 66.148 721.285 70.0113 718.221 72.6782C715.139 75.3612 710.462 76.9424 704.138 76.9424V78.9424ZM724.898 61.3024C724.898 56.6254 723.103 53.2336 720.431 50.6432C717.799 48.091 714.328 46.3297 710.99 44.8212C707.583 43.2814 704.379 42.0266 701.967 40.4514C699.593 38.9009 698.258 37.2108 698.258 34.9024H696.258C696.258 38.194 698.252 40.414 700.874 42.1259C703.457 43.8132 706.913 45.1734 710.166 46.6437C713.488 48.1451 716.677 49.7888 719.039 52.0792C721.362 54.3313 722.898 57.2194 722.898 61.3024H724.898ZM698.258 34.9024C698.258 33.2015 698.779 31.881 699.911 30.9569C701.079 30.0025 703.052 29.3424 706.218 29.3424V27.3424C702.824 27.3424 700.317 28.0424 698.645 29.408C696.936 30.8039 696.258 32.7634 696.258 34.9024H698.258ZM706.218 29.3424C710.988 29.3424 716.044 30.6486 722.209 33.4148L723.027 31.5901C716.712 28.7562 711.368 27.3424 706.218 27.3424V29.3424ZM723.618 32.5024V23.7024H721.618V32.5024H723.618ZM723.071 22.8108C717.703 20.0856 711.941 19.0224 706.218 19.0224V21.0224C711.694 21.0224 717.133 22.0392 722.165 24.5941L723.071 22.8108ZM706.218 19.0224C700.431 19.0224 695.66 20.6772 692.319 23.5998C688.968 26.5321 687.138 30.6733 687.138 35.4624H689.138C689.138 31.2115 690.748 27.6328 693.636 25.105C696.536 22.5676 700.805 21.0224 706.218 21.0224V19.0224ZM687.138 35.4624C687.138 40.3436 688.92 43.8551 691.596 46.5099C694.233 49.126 697.711 50.8814 701.054 52.3572C704.47 53.8653 707.667 55.0555 710.081 56.5804C712.451 58.077 713.778 59.7211 713.778 62.0224H715.778C715.778 58.7237 713.775 56.5478 711.149 54.8895C708.569 53.2593 705.106 51.9596 701.862 50.5276C698.545 49.0634 695.362 47.4289 693.005 45.09C690.686 42.7898 689.138 39.7813 689.138 35.4624H687.138ZM713.778 62.0224C713.778 64.1059 713.109 65.6809 711.697 66.7708C710.237 67.8978 707.835 68.6224 704.138 68.6224V70.6224C708.041 70.6224 710.959 69.867 712.919 68.354C714.927 66.804 715.778 64.579 715.778 62.0224H713.778ZM704.138 68.6224C699.977 68.6224 694.521 67.6203 688.163 64.6371L687.313 66.4477C693.914 69.5446 699.659 70.6224 704.138 70.6224V68.6224ZM686.738 65.5424V74.3424H688.738V65.5424H686.738ZM687.312 75.2472C692.905 77.8791 699.134 78.9424 704.138 78.9424V76.9424C699.382 76.9424 693.451 75.9257 688.164 73.4376L687.312 75.2472Z" fill="black"/>
<path d="M7.2 76.9824H42.32V68.8224H16.32V52.5824H38.64V44.4224H16.32V29.1424H42.32V20.9824H7.2V76.9824ZM100.408 76.9824L118.968 20.9824H109.368L95.6881 65.8624L81.7681 20.9824H72.0881L90.6481 76.9824H100.408ZM151.919 76.9824H187.039V68.8224H161.039V52.5824H183.359V44.4224H161.039V29.1424H187.039V20.9824H151.919V76.9824ZM253.527 76.9824H263.767V20.9824H255.287V63.5424L232.487 20.9824H222.247V76.9824H230.727V34.4224L253.527 76.9824ZM302.184 76.9824H337.304V68.8224H311.304V52.5824H333.624V44.4224H311.304V29.1424H337.304V20.9824H302.184V76.9824ZM394.353 59.1424H401.793L414.833 36.1824V76.9824H423.633V20.9824H414.433L398.113 49.7024L381.713 20.9824H372.513V76.9824H381.313V36.1824L394.353 59.1424ZM462.059 76.9824H497.179V68.8224H471.179V52.5824H493.499V44.4224H471.179V29.1424H497.179V20.9824H462.059V76.9824ZM563.668 76.9824H573.908V20.9824H565.428V63.5424L542.628 20.9824H532.388V76.9824H540.868V34.4224L563.668 76.9824ZM650.085 29.1424V20.9824H606.565V29.1424H623.765V76.9824H632.885V29.1424H650.085ZM696.331 77.9424C709.291 77.9424 716.091 71.4624 716.091 61.3024C716.091 43.7824 689.451 46.1024 689.451 34.9024C689.451 31.0624 691.851 28.3424 698.411 28.3424C703.371 28.3424 708.571 29.7024 714.811 32.5024V23.7024C709.611 21.0624 704.011 20.0224 698.411 20.0224C687.211 20.0224 680.331 26.4224 680.331 35.4624C680.331 53.8624 706.971 50.8224 706.971 62.0224C706.971 66.6624 703.931 69.6224 696.331 69.6224C692.011 69.6224 686.411 68.5824 679.931 65.5424V74.3424C685.371 76.9024 691.451 77.9424 696.331 77.9424Z" fill="#4247C6"/>
<path d="M7.2 76.9824H6.2V77.9824H7.2V76.9824ZM42.32 76.9824V77.9824H43.32V76.9824H42.32ZM42.32 68.8224H43.32V67.8224H42.32V68.8224ZM16.32 68.8224H15.32V69.8224H16.32V68.8224ZM16.32 52.5824V51.5824H15.32V52.5824H16.32ZM38.64 52.5824V53.5824H39.64V52.5824H38.64ZM38.64 44.4224H39.64V43.4224H38.64V44.4224ZM16.32 44.4224H15.32V45.4224H16.32V44.4224ZM16.32 29.1424V28.1424H15.32V29.1424H16.32ZM42.32 29.1424V30.1424H43.32V29.1424H42.32ZM42.32 20.9824H43.32V19.9824H42.32V20.9824ZM7.2 20.9824V19.9824H6.2V20.9824H7.2ZM7.2 77.9824H42.32V75.9824H7.2V77.9824ZM43.32 76.9824V68.8224H41.32V76.9824H43.32ZM42.32 67.8224H16.32V69.8224H42.32V67.8224ZM17.32 68.8224V52.5824H15.32V68.8224H17.32ZM16.32 53.5824H38.64V51.5824H16.32V53.5824ZM39.64 52.5824V44.4224H37.64V52.5824H39.64ZM38.64 43.4224H16.32V45.4224H38.64V43.4224ZM17.32 44.4224V29.1424H15.32V44.4224H17.32ZM16.32 30.1424H42.32V28.1424H16.32V30.1424ZM43.32 29.1424V20.9824H41.32V29.1424H43.32ZM42.32 19.9824H7.2V21.9824H42.32V19.9824ZM6.2 20.9824V76.9824H8.2V20.9824H6.2ZM100.408 76.9824V77.9824H101.13L101.357 77.297L100.408 76.9824ZM118.968 20.9824L119.917 21.297L120.353 19.9824H118.968V20.9824ZM109.368 20.9824V19.9824H108.628L108.412 20.6908L109.368 20.9824ZM95.6881 65.8624L94.733 66.1587L95.6964 69.2649L96.6447 66.154L95.6881 65.8624ZM81.7681 20.9824L82.7232 20.6862L82.505 19.9824H81.7681V20.9824ZM72.0881 20.9824V19.9824H70.7032L71.1389 21.297L72.0881 20.9824ZM90.6481 76.9824L89.6989 77.297L89.9261 77.9824H90.6481V76.9824ZM101.357 77.297L119.917 21.297L118.019 20.6678L99.4589 76.6678L101.357 77.297ZM118.968 19.9824H109.368V21.9824H118.968V19.9824ZM108.412 20.6908L94.7316 65.5709L96.6447 66.154L110.325 21.274L108.412 20.6908ZM96.6432 65.5662L82.7232 20.6862L80.813 21.2787L94.733 66.1587L96.6432 65.5662ZM81.7681 19.9824H72.0881V21.9824H81.7681V19.9824ZM71.1389 21.297L89.6989 77.297L91.5973 76.6678L73.0373 20.6678L71.1389 21.297ZM90.6481 77.9824H100.408V75.9824H90.6481V77.9824ZM151.919 76.9824H150.919V77.9824H151.919V76.9824ZM187.039 76.9824V77.9824H188.039V76.9824H187.039ZM187.039 68.8224H188.039V67.8224H187.039V68.8224ZM161.039 68.8224H160.039V69.8224H161.039V68.8224ZM161.039 52.5824V51.5824H160.039V52.5824H161.039ZM183.359 52.5824V53.5824H184.359V52.5824H183.359ZM183.359 44.4224H184.359V43.4224H183.359V44.4224ZM161.039 44.4224H160.039V45.4224H161.039V44.4224ZM161.039 29.1424V28.1424H160.039V29.1424H161.039ZM187.039 29.1424V30.1424H188.039V29.1424H187.039ZM187.039 20.9824H188.039V19.9824H187.039V20.9824ZM151.919 20.9824V19.9824H150.919V20.9824H151.919ZM151.919 77.9824H187.039V75.9824H151.919V77.9824ZM188.039 76.9824V68.8224H186.039V76.9824H188.039ZM187.039 67.8224H161.039V69.8224H187.039V67.8224ZM162.039 68.8224V52.5824H160.039V68.8224H162.039ZM161.039 53.5824H183.359V51.5824H161.039V53.5824ZM184.359 52.5824V44.4224H182.359V52.5824H184.359ZM183.359 43.4224H161.039V45.4224H183.359V43.4224ZM162.039 44.4224V29.1424H160.039V44.4224H162.039ZM161.039 30.1424H187.039V28.1424H161.039V30.1424ZM188.039 29.1424V20.9824H186.039V29.1424H188.039ZM187.039 19.9824H151.919V21.9824H187.039V19.9824ZM150.919 20.9824V76.9824H152.919V20.9824H150.919ZM253.527 76.9824L252.645 77.4546L252.928 77.9824H253.527V76.9824ZM263.767 76.9824V77.9824H264.767V76.9824H263.767ZM263.767 20.9824H264.767V19.9824H263.767V20.9824ZM255.287 20.9824V19.9824H254.287V20.9824H255.287ZM255.287 63.5424L254.405 64.0146L256.287 63.5424H255.287ZM232.487 20.9824L233.368 20.5102L233.086 19.9824H232.487V20.9824ZM222.247 20.9824V19.9824H221.247V20.9824H222.247ZM222.247 76.9824H221.247V77.9824H222.247V76.9824ZM230.727 76.9824V77.9824H231.727V76.9824H230.727ZM230.727 34.4224L231.608 33.9502L229.727 34.4224H230.727ZM253.527 77.9824H263.767V75.9824H253.527V77.9824ZM264.767 76.9824V20.9824H262.767V76.9824H264.767ZM263.767 19.9824H255.287V21.9824H263.767V19.9824ZM254.287 20.9824V63.5424H256.287V20.9824H254.287ZM256.168 63.0702L233.368 20.5102L231.605 21.4546L254.405 64.0146L256.168 63.0702ZM232.487 19.9824H222.247V21.9824H232.487V19.9824ZM221.247 20.9824V76.9824H223.247V20.9824H221.247ZM222.247 77.9824H230.727V75.9824H222.247V77.9824ZM231.727 76.9824V34.4224H229.727V76.9824H231.727ZM229.845 34.8946L252.645 77.4546L254.408 76.5102L231.608 33.9502L229.845 34.8946ZM302.184 76.9824H301.184V77.9824H302.184V76.9824ZM337.304 76.9824V77.9824H338.304V76.9824H337.304ZM337.304 68.8224H338.304V67.8224H337.304V68.8224ZM311.304 68.8224H310.304V69.8224H311.304V68.8224ZM311.304 52.5824V51.5824H310.304V52.5824H311.304ZM333.624 52.5824V53.5824H334.624V52.5824H333.624ZM333.624 44.4224H334.624V43.4224H333.624V44.4224ZM311.304 44.4224H310.304V45.4224H311.304V44.4224ZM311.304 29.1424V28.1424H310.304V29.1424H311.304ZM337.304 29.1424V30.1424H338.304V29.1424H337.304ZM337.304 20.9824H338.304V19.9824H337.304V20.9824ZM302.184 20.9824V19.9824H301.184V20.9824H302.184ZM302.184 77.9824H337.304V75.9824H302.184V77.9824ZM338.304 76.9824V68.8224H336.304V76.9824H338.304ZM337.304 67.8224H311.304V69.8224H337.304V67.8224ZM312.304 68.8224V52.5824H310.304V68.8224H312.304ZM311.304 53.5824H333.624V51.5824H311.304V53.5824ZM334.624 52.5824V44.4224H332.624V52.5824H334.624ZM333.624 43.4224H311.304V45.4224H333.624V43.4224ZM312.304 44.4224V29.1424H310.304V44.4224H312.304ZM311.304 30.1424H337.304V28.1424H311.304V30.1424ZM338.304 29.1424V20.9824H336.304V29.1424H338.304ZM337.304 19.9824H302.184V21.9824H337.304V19.9824ZM301.184 20.9824V76.9824H303.184V20.9824H301.184ZM394.353 59.1424L393.483 59.6363L393.77 60.1424H394.353V59.1424ZM401.793 59.1424V60.1424H402.375L402.662 59.6363L401.793 59.1424ZM414.833 36.1824H415.833V32.3968L413.963 35.6886L414.833 36.1824ZM414.833 76.9824H413.833V77.9824H414.833V76.9824ZM423.633 76.9824V77.9824H424.633V76.9824H423.633ZM423.633 20.9824H424.633V19.9824H423.633V20.9824ZM414.433 20.9824V19.9824H413.851L413.563 20.4884L414.433 20.9824ZM398.113 49.7024L397.244 50.1983L398.115 51.7228L398.982 50.1965L398.113 49.7024ZM381.713 20.9824L382.581 20.4865L382.293 19.9824H381.713V20.9824ZM372.513 20.9824V19.9824H371.513V20.9824H372.513ZM372.513 76.9824H371.513V77.9824H372.513V76.9824ZM381.313 76.9824V77.9824H382.313V76.9824H381.313ZM381.313 36.1824L382.182 35.6886L380.313 32.3968V36.1824H381.313ZM394.353 60.1424H401.793V58.1424H394.353V60.1424ZM402.662 59.6363L415.702 36.6763L413.963 35.6886L400.923 58.6486L402.662 59.6363ZM413.833 36.1824V76.9824H415.833V36.1824H413.833ZM414.833 77.9824H423.633V75.9824H414.833V77.9824ZM424.633 76.9824V20.9824H422.633V76.9824H424.633ZM423.633 19.9824H414.433V21.9824H423.633V19.9824ZM413.563 20.4884L397.243 49.2084L398.982 50.1965L415.302 21.4765L413.563 20.4884ZM398.981 49.2065L382.581 20.4865L380.844 21.4783L397.244 50.1983L398.981 49.2065ZM381.713 19.9824H372.513V21.9824H381.713V19.9824ZM371.513 20.9824V76.9824H373.513V20.9824H371.513ZM372.513 77.9824H381.313V75.9824H372.513V77.9824ZM382.313 76.9824V36.1824H380.313V76.9824H382.313ZM380.443 36.6763L393.483 59.6363L395.222 58.6486L382.182 35.6886L380.443 36.6763ZM462.059 76.9824H461.059V77.9824H462.059V76.9824ZM497.179 76.9824V77.9824H498.179V76.9824H497.179ZM497.179 68.8224H498.179V67.8224H497.179V68.8224ZM471.179 68.8224H470.179V69.8224H471.179V68.8224ZM471.179 52.5824V51.5824H470.179V52.5824H471.179ZM493.499 52.5824V53.5824H494.499V52.5824H493.499ZM493.499 44.4224H494.499V43.4224H493.499V44.4224ZM471.179 44.4224H470.179V45.4224H471.179V44.4224ZM471.179 29.1424V28.1424H470.179V29.1424H471.179ZM497.179 29.1424V30.1424H498.179V29.1424H497.179ZM497.179 20.9824H498.179V19.9824H497.179V20.9824ZM462.059 20.9824V19.9824H461.059V20.9824H462.059ZM462.059 77.9824H497.179V75.9824H462.059V77.9824ZM498.179 76.9824V68.8224H496.179V76.9824H498.179ZM497.179 67.8224H471.179V69.8224H497.179V67.8224ZM472.179 68.8224V52.5824H470.179V68.8224H472.179ZM471.179 53.5824H493.499V51.5824H471.179V53.5824ZM494.499 52.5824V44.4224H492.499V52.5824H494.499ZM493.499 43.4224H471.179V45.4224H493.499V43.4224ZM472.179 44.4224V29.1424H470.179V44.4224H472.179ZM471.179 30.1424H497.179V28.1424H471.179V30.1424ZM498.179 29.1424V20.9824H496.179V29.1424H498.179ZM497.179 19.9824H462.059V21.9824H497.179V19.9824ZM461.059 20.9824V76.9824H463.059V20.9824H461.059ZM563.668 76.9824L562.786 77.4546L563.069 77.9824H563.668V76.9824ZM573.908 76.9824V77.9824H574.908V76.9824H573.908ZM573.908 20.9824H574.908V19.9824H573.908V20.9824ZM565.428 20.9824V19.9824H564.428V20.9824H565.428ZM565.428 63.5424L564.546 64.0146L566.428 63.5424H565.428ZM542.628 20.9824L543.509 20.5102L543.226 19.9824H542.628V20.9824ZM532.388 20.9824V19.9824H531.388V20.9824H532.388ZM532.388 76.9824H531.388V77.9824H532.388V76.9824ZM540.868 76.9824V77.9824H541.868V76.9824H540.868ZM540.868 34.4224L541.749 33.9502L539.868 34.4224H540.868ZM563.668 77.9824H573.908V75.9824H563.668V77.9824ZM574.908 76.9824V20.9824H572.908V76.9824H574.908ZM573.908 19.9824H565.428V21.9824H573.908V19.9824ZM564.428 20.9824V63.5424H566.428V20.9824H564.428ZM566.309 63.0702L543.509 20.5102L541.746 21.4546L564.546 64.0146L566.309 63.0702ZM542.628 19.9824H532.388V21.9824H542.628V19.9824ZM531.388 20.9824V76.9824H533.388V20.9824H531.388ZM532.388 77.9824H540.868V75.9824H532.388V77.9824ZM541.868 76.9824V34.4224H539.868V76.9824H541.868ZM539.986 34.8946L562.786 77.4546L564.549 76.5102L541.749 33.9502L539.986 34.8946ZM650.085 29.1424V30.1424H651.085V29.1424H650.085ZM650.085 20.9824H651.085V19.9824H650.085V20.9824ZM606.565 20.9824V19.9824H605.565V20.9824H606.565ZM606.565 29.1424H605.565V30.1424H606.565V29.1424ZM623.765 29.1424H624.765V28.1424H623.765V29.1424ZM623.765 76.9824H622.765V77.9824H623.765V76.9824ZM632.885 76.9824V77.9824H633.885V76.9824H632.885ZM632.885 29.1424V28.1424H631.885V29.1424H632.885ZM651.085 29.1424V20.9824H649.085V29.1424H651.085ZM650.085 19.9824H606.565V21.9824H650.085V19.9824ZM605.565 20.9824V29.1424H607.565V20.9824H605.565ZM606.565 30.1424H623.765V28.1424H606.565V30.1424ZM622.765 29.1424V76.9824H624.765V29.1424H622.765ZM623.765 77.9824H632.885V75.9824H623.765V77.9824ZM633.885 76.9824V29.1424H631.885V76.9824H633.885ZM632.885 30.1424H650.085V28.1424H632.885V30.1424ZM714.811 32.5024L714.402 33.4148L715.811 34.0472V32.5024H714.811ZM714.811 23.7024H715.811V23.0886L715.264 22.8108L714.811 23.7024ZM679.931 65.5424L680.356 64.6371L678.931 63.9687V65.5424H679.931ZM679.931 74.3424H678.931V74.977L679.505 75.2472L679.931 74.3424ZM696.331 78.9424C702.967 78.9424 708.17 77.2837 711.728 74.1867C715.304 71.0735 717.091 66.6168 717.091 61.3024H715.091C715.091 66.148 713.478 70.0113 710.415 72.6782C707.332 75.3612 702.656 76.9424 696.331 76.9424V78.9424ZM717.091 61.3024C717.091 56.6254 715.297 53.2336 712.625 50.6432C709.992 48.091 706.521 46.3297 703.183 44.8212C699.776 43.2814 696.572 42.0266 694.161 40.4514C691.787 38.9009 690.451 37.2108 690.451 34.9024H688.451C688.451 38.194 690.446 40.414 693.067 42.1259C695.65 43.8132 699.106 45.1734 702.359 46.6437C705.681 48.1451 708.87 49.7888 711.233 52.0792C713.556 54.3313 715.091 57.2194 715.091 61.3024H717.091ZM690.451 34.9024C690.451 33.2015 690.973 31.881 692.104 30.9569C693.272 30.0025 695.245 29.3424 698.411 29.3424V27.3424C695.017 27.3424 692.51 28.0424 690.839 29.408C689.13 30.8039 688.451 32.7634 688.451 34.9024H690.451ZM698.411 29.3424C703.181 29.3424 708.237 30.6486 714.402 33.4148L715.221 31.5901C708.905 28.7562 703.561 27.3424 698.411 27.3424V29.3424ZM715.811 32.5024V23.7024H713.811V32.5024H715.811ZM715.264 22.8108C709.896 20.0856 704.135 19.0224 698.411 19.0224V21.0224C703.888 21.0224 709.326 22.0392 714.359 24.5941L715.264 22.8108ZM698.411 19.0224C692.625 19.0224 687.853 20.6772 684.513 23.5998C681.162 26.5321 679.331 30.6733 679.331 35.4624H681.331C681.331 31.2115 682.941 27.6328 685.83 25.105C688.73 22.5676 692.998 21.0224 698.411 21.0224V19.0224ZM679.331 35.4624C679.331 40.3436 681.113 43.8551 683.789 46.5099C686.427 49.126 689.904 50.8814 693.247 52.3572C696.664 53.8653 699.861 55.0555 702.275 56.5804C704.644 58.077 705.971 59.7211 705.971 62.0224H707.971C707.971 58.7237 705.968 56.5478 703.343 54.8895C700.762 53.2593 697.299 51.9596 694.055 50.5276C690.738 49.0634 687.556 47.4289 685.198 45.09C682.879 42.7898 681.331 39.7813 681.331 35.4624H679.331ZM705.971 62.0224C705.971 64.1059 705.302 65.6809 703.89 66.7708C702.43 67.8978 700.028 68.6224 696.331 68.6224V70.6224C700.234 70.6224 703.152 69.867 705.112 68.354C707.12 66.804 707.971 64.579 707.971 62.0224H705.971ZM696.331 68.6224C692.171 68.6224 686.715 67.6203 680.356 64.6371L679.507 66.4477C686.108 69.5446 691.852 70.6224 696.331 70.6224V68.6224ZM678.931 65.5424V74.3424H680.931V65.5424H678.931ZM679.505 75.2472C685.098 77.8791 691.327 78.9424 696.331 78.9424V76.9424C691.575 76.9424 685.644 75.9257 680.357 73.4376L679.505 75.2472Z" fill="black"/>
</svg>
