<svg width="135" height="135" viewBox="0 0 135 135" fill="none" xmlns="http://www.w3.org/2000/svg">
<g clip-path="url(#clip0_439_6)">
<path d="M0 67.5C0 30.2 30.2 0 67.5 0C104.8 0 135 30.2 135 67.5C135 104.8 104.8 135 67.5 135C30.2 135 0 104.8 0 67.5Z" fill="#4247C6"/>
<path d="M67.5 32.7C78.8 32.7 80.2 32.7 84.7 32.9C88.8 33.1 91.1 33.8 92.6 34.4C94.6 35.2 96 36.1 97.5 37.6C99 39.1 99.9 40.5 100.7 42.5C101.3 44 102 46.2 102.2 50.4C102.4 54.9 102.4 56.2 102.4 67.6C102.4 79 102.4 80.3 102.2 84.8C102 88.9 101.3 91.2 100.7 92.7C99.9 94.7 99 96.1 97.5 97.6C96 99.1 94.6 100 92.6 100.8C91.1 101.4 88.9 102.1 84.7 102.3C80.2 102.5 78.9 102.5 67.5 102.5C56.2 102.5 54.8 102.5 50.3 102.3C46.2 102.1 43.9 101.4 42.4 100.8C40.4 100 39 99.1 37.5 97.6C36 96.1 35.1 94.7 34.3 92.7C33.7 91.2 33 89 32.8 84.8C32.6 80.3 32.6 79 32.6 67.6C32.6 56.2 32.6 54.9 32.8 50.4C33 46.3 33.7 44 34.3 42.5C35.1 40.5 36 39.1 37.5 37.6C39 36.1 40.4 35.2 42.4 34.4C43.9 33.8 46.1 33.1 50.3 32.9C54.8 32.7 56.2 32.7 67.5 32.7ZM67.5 25C56 25 54.5 25 50 25.3C45.5 25.5 42.4 26.2 39.7 27.3C36.9 28.4 34.5 29.8 32.2 32.2C29.8 34.6 28.4 36.9 27.3 39.7C26.2 42.4 25.5 45.5 25.3 50C25 54.5 25 56 25 67.5C25 79 25 80.5 25.3 85C25.5 89.5 26.2 92.6 27.3 95.3C28.4 98.1 29.8 100.5 32.2 102.8C34.6 105.2 36.9 106.6 39.7 107.7C42.4 108.8 45.5 109.5 50 109.7C54.5 109.9 56 110 67.5 110C79 110 80.5 110 85 109.7C89.5 109.5 92.6 108.8 95.3 107.7C98.1 106.6 100.5 105.2 102.8 102.8C105.2 100.4 106.6 98.1 107.7 95.3C108.8 92.6 109.5 89.5 109.7 85C109.9 80.5 110 79 110 67.5C110 56 110 54.5 109.7 50C109.5 45.5 108.8 42.4 107.7 39.7C106.6 36.9 105.2 34.5 102.8 32.2C100.4 29.8 98.1 28.4 95.3 27.3C92.6 26.2 89.5 25.5 85 25.3C80.5 25 79 25 67.5 25Z" fill="white"/>
<path d="M67.5 45.7C55.4 45.7 45.7 55.5 45.7 67.5C45.7 79.5 55.5 89.3 67.5 89.3C79.6 89.3 89.3 79.5 89.3 67.5C89.3 55.5 79.6 45.7 67.5 45.7ZM67.5 81.6999C59.7 81.6999 53.2999 75.4 53.2999 67.5C53.2999 59.6 59.6 53.2999 67.5 53.2999C75.4 53.2999 81.6999 59.6 81.6999 67.5C81.6999 75.4 75.3 81.6999 67.5 81.6999Z" fill="white"/>
<path d="M90.2001 49.9C93.0167 49.9 95.3001 47.6166 95.3001 44.7999C95.3001 41.9833 93.0167 39.7 90.2001 39.7C87.3834 39.7 85.1001 41.9833 85.1001 44.7999C85.1001 47.6166 87.3834 49.9 90.2001 49.9Z" fill="white"/>
</g>
<defs>
<clipPath id="clip0_439_6">
<rect width="135" height="135" fill="white"/>
</clipPath>
</defs>
</svg>
