<svg width="88" height="106" viewBox="0 0 88 106" fill="none" xmlns="http://www.w3.org/2000/svg">
<g clip-path="url(#clip0_192_2)">
<path d="M80.3628 59.1807V84.3859L73.1384 80.1735V63.393L80.3628 59.1807Z" fill="#323A93" stroke="black" stroke-miterlimit="10"/>
<path d="M80.3628 33.9751V50.7556L73.1384 54.9679L65.914 59.1803L58.6896 63.3927H58.6208L51.3964 67.6051V59.1803L58.6896 54.9679L65.914 50.7556L73.1384 46.6122V38.1875L80.3628 33.9751Z" fill="#323A93" stroke="black" stroke-miterlimit="10"/>
<path d="M80.4316 25.6196L73.2072 29.832L65.9828 34.0444L58.7584 38.2567L51.534 42.4691L44.3096 46.6815V105.448L51.534 101.235V75.961L58.7584 71.7486L65.9828 67.5362L73.2072 63.3238L80.4316 59.1115V84.3167L87.656 80.1043V21.4072L80.4316 25.6196ZM80.3628 50.7558L73.1384 54.9681L65.914 59.1805L58.6896 63.3929L51.4652 67.6053V50.7558L58.6896 46.5434L65.914 42.331L73.1384 38.1186L80.3628 33.9062V50.7558Z" fill="#4247C6" stroke="black" stroke-miterlimit="10"/>
<path d="M36.9476 59.1803V67.6051L29.6544 63.3927L22.43 59.1803L15.2056 54.9679L7.91243 50.7556V33.9751L15.2056 38.1875V46.6122L22.43 50.7556L29.6544 54.9679L36.9476 59.1803Z" fill="#323A93" stroke="black" stroke-miterlimit="10"/>
<path d="M73.1384 21.4074L65.914 25.6198L58.6896 21.4074L51.3964 17.195L44.172 12.9827L36.9476 17.195L29.6544 21.4074L22.43 25.6198L15.2056 21.4074L22.43 17.195L29.6544 12.9827L36.9476 8.77028L44.172 4.62695L51.3964 8.77028L58.6896 12.9827L65.914 17.195L73.1384 21.4074Z" fill="#323A93" stroke="black" stroke-miterlimit="10"/>
<path d="M87.656 21.4074L80.4316 25.6198H80.3628L73.1384 29.7631L65.914 33.9755L58.6896 38.1878L51.3964 42.4002L44.172 46.6126L36.9476 42.4002L29.6544 38.1878L22.43 33.9755L15.2056 29.7631L7.91243 25.6198L0.688034 21.4074L7.91243 17.195L15.2056 12.9826L22.43 8.77025L29.6544 4.62693L36.9476 0.414551L44.172 4.62693L36.9476 8.77025L29.6544 12.9826L22.43 17.195L15.2056 21.4074L22.43 25.6198L29.6544 29.7631L36.9476 33.9755L44.172 38.1878L51.3964 33.9755L58.6208 29.7631H58.6896L65.914 25.6198L73.1384 21.4074L65.914 17.195L58.6896 12.9826L51.3964 8.77025L44.172 4.62693L51.3964 0.414551L58.6896 4.62693L65.914 8.77025L73.1384 12.9826L80.3628 17.195L87.656 21.4074Z" fill="#4247C6" stroke="black" stroke-miterlimit="10"/>
<path d="M36.9476 42.4001L29.7232 38.1877L22.4988 33.9753L15.2744 29.7629L8.05004 25.5505L0.688034 21.4072V80.1733L7.91243 84.3857L15.1368 88.5981L22.3612 92.8105L29.5856 97.0229L36.81 101.235L44.0344 105.448V46.6124L36.9476 42.4001ZM36.9476 92.7414L29.7232 88.529L22.4988 84.3167L15.2744 80.1043L7.91243 75.961V59.1805L15.1368 63.3929L22.3612 67.6053L29.5856 71.8176L36.81 76.03V92.7414H36.9476ZM36.9476 67.6053L29.7232 63.3929L22.4988 59.1805L15.2744 54.9681L8.05004 50.7558V33.9753L15.2744 38.1877L22.4988 42.4001L29.7232 46.6124L36.9476 50.8248V67.6053Z" fill="#4247C6" stroke="black" stroke-miterlimit="10"/>
<path d="M36.9476 84.3859V92.7416L29.6544 88.5983L22.43 84.3859L15.2056 80.1735L7.91243 75.9611V59.1807L15.2056 63.393V71.7487L22.43 75.9611L29.6544 80.1735L36.9476 84.3859Z" fill="#323A93" stroke="black" stroke-miterlimit="10"/>
</g>
<defs>
<clipPath id="clip0_192_2">
<rect width="88" height="106" fill="white"/>
</clipPath>
</defs>
</svg>
