<svg width="313" height="47" viewBox="0 0 313 47" fill="none" xmlns="http://www.w3.org/2000/svg">
<rect x="3.65302" y="4.56641" width="308.677" height="42.2521" rx="21.126" fill="#4247C6"/>
<rect x="1.33008" y="1.09082" width="306.677" height="40.2521" rx="20.126" fill="white" stroke="#4247C6" stroke-width="2"/>
<path d="M53.3055 31.959H50.5455V10.479H53.3055L60.7755 23.559H60.8955L68.3655 10.479H71.1255V31.959H68.3655V19.209L68.4855 15.609H68.3655L61.6455 27.399H60.0255L53.3055 15.609H53.1855L53.3055 19.209V31.959ZM81.5678 32.439C79.4078 32.439 77.6278 31.699 76.2278 30.219C74.8278 28.739 74.1278 26.869 74.1278 24.609C74.1278 22.369 74.8078 20.509 76.1678 19.029C77.5278 17.529 79.2678 16.779 81.3878 16.779C83.5678 16.779 85.2978 17.489 86.5778 18.909C87.8778 20.309 88.5278 22.279 88.5278 24.819L88.4978 25.119H76.9478C76.9878 26.559 77.4678 27.719 78.3878 28.599C79.3078 29.479 80.4078 29.919 81.6878 29.919C83.4478 29.919 84.8278 29.039 85.8278 27.279L88.2878 28.479C87.6278 29.719 86.7078 30.689 85.5278 31.389C84.3678 32.089 83.0478 32.439 81.5678 32.439ZM77.1578 22.839H85.5878C85.5078 21.819 85.0878 20.979 84.3278 20.319C83.5878 19.639 82.5878 19.299 81.3278 19.299C80.2878 19.299 79.3878 19.619 78.6278 20.259C77.8878 20.899 77.3978 21.759 77.1578 22.839ZM91.0518 17.259H93.6918V19.299H93.8118C94.2318 18.579 94.8718 17.979 95.7318 17.499C96.6118 17.019 97.5218 16.779 98.4618 16.779C100.262 16.779 101.642 17.299 102.602 18.339C103.582 19.359 104.072 20.819 104.072 22.719V31.959H101.312V22.899C101.252 20.499 100.042 19.299 97.6818 19.299C96.5818 19.299 95.6618 19.749 94.9218 20.649C94.1818 21.529 93.8118 22.589 93.8118 23.829V31.959H91.0518V17.259ZM112.37 32.199C111.17 32.199 110.17 31.829 109.37 31.089C108.59 30.349 108.19 29.319 108.17 27.999V19.779H105.59V17.259H108.17V12.759H110.93V17.259H114.53V19.779H110.93V27.099C110.93 28.079 111.12 28.749 111.5 29.109C111.88 29.449 112.31 29.619 112.79 29.619C113.01 29.619 113.22 29.599 113.42 29.559C113.64 29.499 113.84 29.429 114.02 29.349L114.89 31.809C114.17 32.069 113.33 32.199 112.37 32.199ZM120.872 12.189C120.872 12.729 120.682 13.189 120.302 13.569C119.922 13.949 119.462 14.139 118.922 14.139C118.382 14.139 117.922 13.949 117.542 13.569C117.162 13.189 116.972 12.729 116.972 12.189C116.972 11.649 117.162 11.189 117.542 10.809C117.922 10.429 118.382 10.239 118.922 10.239C119.462 10.239 119.922 10.429 120.302 10.809C120.682 11.189 120.872 11.649 120.872 12.189ZM120.302 17.259V31.959H117.542V17.259H120.302ZM122.907 24.609C122.907 22.349 123.617 20.479 125.037 18.999C126.477 17.519 128.287 16.779 130.467 16.779C132.647 16.779 134.447 17.519 135.867 18.999C137.307 20.479 138.027 22.349 138.027 24.609C138.027 26.889 137.307 28.759 135.867 30.219C134.447 31.699 132.647 32.439 130.467 32.439C128.287 32.439 126.477 31.699 125.037 30.219C123.617 28.739 122.907 26.869 122.907 24.609ZM125.667 24.609C125.667 26.189 126.127 27.469 127.047 28.449C127.967 29.429 129.107 29.919 130.467 29.919C131.827 29.919 132.967 29.429 133.887 28.449C134.807 27.469 135.267 26.189 135.267 24.609C135.267 23.049 134.807 21.779 133.887 20.799C132.947 19.799 131.807 19.299 130.467 19.299C129.127 19.299 127.987 19.799 127.047 20.799C126.127 21.779 125.667 23.049 125.667 24.609ZM140.241 17.259H142.881V19.299H143.001C143.421 18.579 144.061 17.979 144.921 17.499C145.801 17.019 146.711 16.779 147.651 16.779C149.451 16.779 150.831 17.299 151.791 18.339C152.771 19.359 153.261 20.819 153.261 22.719V31.959H150.501V22.899C150.441 20.499 149.231 19.299 146.871 19.299C145.771 19.299 144.851 19.749 144.111 20.649C143.371 21.529 143.001 22.589 143.001 23.829V31.959H140.241V17.259ZM167.605 27.879C167.605 29.159 167.045 30.239 165.925 31.119C164.805 31.999 163.395 32.439 161.695 32.439C160.215 32.439 158.915 32.059 157.795 31.299C156.675 30.519 155.875 29.499 155.395 28.239L157.855 27.189C158.215 28.069 158.735 28.759 159.415 29.259C160.115 29.739 160.875 29.979 161.695 29.979C162.575 29.979 163.305 29.789 163.885 29.409C164.485 29.029 164.785 28.579 164.785 28.059C164.785 27.119 164.065 26.429 162.625 25.989L160.105 25.359C157.245 24.639 155.815 23.259 155.815 21.219C155.815 19.879 156.355 18.809 157.435 18.009C158.535 17.189 159.935 16.779 161.635 16.779C162.935 16.779 164.105 17.089 165.145 17.709C166.205 18.329 166.945 19.159 167.365 20.199L164.905 21.219C164.625 20.599 164.165 20.119 163.525 19.779C162.905 19.419 162.205 19.239 161.425 19.239C160.705 19.239 160.055 19.419 159.475 19.779C158.915 20.139 158.635 20.579 158.635 21.099C158.635 21.939 159.425 22.539 161.005 22.899L163.225 23.469C166.145 24.189 167.605 25.659 167.605 27.879ZM179.359 10.479V31.959H176.599V10.479H179.359ZM189.175 32.439C187.015 32.439 185.235 31.699 183.835 30.219C182.435 28.739 181.735 26.869 181.735 24.609C181.735 22.369 182.415 20.509 183.775 19.029C185.135 17.529 186.875 16.779 188.995 16.779C191.175 16.779 192.905 17.489 194.185 18.909C195.485 20.309 196.135 22.279 196.135 24.819L196.105 25.119H184.555C184.595 26.559 185.075 27.719 185.995 28.599C186.915 29.479 188.015 29.919 189.295 29.919C191.055 29.919 192.435 29.039 193.435 27.279L195.895 28.479C195.235 29.719 194.315 30.689 193.135 31.389C191.975 32.089 190.655 32.439 189.175 32.439ZM184.765 22.839H193.195C193.115 21.819 192.695 20.979 191.935 20.319C191.195 19.639 190.195 19.299 188.935 19.299C187.895 19.299 186.995 19.619 186.235 20.259C185.495 20.899 185.005 21.759 184.765 22.839ZM192.055 10.479L189.895 14.319H187.495L189.055 10.479H192.055ZM205.406 29.919C206.766 29.919 207.876 29.429 208.736 28.449C209.636 27.469 210.086 26.189 210.086 24.609C210.086 23.069 209.636 21.799 208.736 20.799C207.856 19.799 206.746 19.299 205.406 19.299C204.086 19.299 202.976 19.799 202.076 20.799C201.176 21.799 200.726 23.069 200.726 24.609C200.726 26.169 201.176 27.439 202.076 28.419C202.976 29.419 204.086 29.919 205.406 29.919ZM205.316 38.919C204.496 38.919 203.726 38.809 203.006 38.589C202.286 38.389 201.626 38.099 201.026 37.719C200.446 37.339 199.946 36.889 199.526 36.369C199.106 35.849 198.786 35.269 198.566 34.629L201.176 33.549C201.476 34.409 201.996 35.099 202.736 35.619C203.476 36.139 204.336 36.399 205.316 36.399C206.816 36.399 207.986 35.949 208.826 35.049C209.666 34.149 210.086 32.909 210.086 31.329V29.919H209.966C209.446 30.699 208.736 31.319 207.836 31.779C206.956 32.219 205.996 32.439 204.956 32.439C203.036 32.439 201.386 31.689 200.006 30.189C198.646 28.649 197.966 26.789 197.966 24.609C197.966 22.429 198.646 20.579 200.006 19.059C201.386 17.539 203.036 16.779 204.956 16.779C205.996 16.779 206.956 17.009 207.836 17.469C208.736 17.909 209.446 18.519 209.966 19.299H210.086V17.259H212.726V31.329C212.726 33.689 212.056 35.539 210.716 36.879C209.356 38.239 207.556 38.919 205.316 38.919ZM217.954 27.459C217.954 28.179 218.254 28.779 218.854 29.259C219.474 29.739 220.194 29.979 221.014 29.979C222.174 29.979 223.204 29.549 224.104 28.689C225.024 27.829 225.484 26.819 225.484 25.659C224.624 24.979 223.424 24.639 221.884 24.639C220.764 24.639 219.824 24.909 219.064 25.449C218.324 25.989 217.954 26.659 217.954 27.459ZM221.524 16.779C223.564 16.779 225.174 17.329 226.354 18.429C227.534 19.509 228.124 20.999 228.124 22.899V31.959H225.484V29.919H225.364C224.224 31.599 222.704 32.439 220.804 32.439C219.184 32.439 217.824 31.959 216.724 30.999C215.644 30.039 215.104 28.839 215.104 27.399C215.104 25.879 215.674 24.669 216.814 23.769C217.974 22.869 219.514 22.419 221.434 22.419C223.074 22.419 224.424 22.719 225.484 23.319V22.689C225.484 21.729 225.104 20.919 224.344 20.259C223.584 19.579 222.694 19.239 221.674 19.239C220.134 19.239 218.914 19.889 218.014 21.189L215.584 19.659C216.924 17.739 218.904 16.779 221.524 16.779ZM233.997 10.479V31.959H231.237V10.479H233.997ZM243.814 32.439C241.654 32.439 239.874 31.699 238.474 30.219C237.074 28.739 236.374 26.869 236.374 24.609C236.374 22.369 237.054 20.509 238.414 19.029C239.774 17.529 241.514 16.779 243.634 16.779C245.814 16.779 247.544 17.489 248.824 18.909C250.124 20.309 250.774 22.279 250.774 24.819L250.744 25.119H239.194C239.234 26.559 239.714 27.719 240.634 28.599C241.554 29.479 242.654 29.919 243.934 29.919C245.694 29.919 247.074 29.039 248.074 27.279L250.534 28.479C249.874 29.719 248.954 30.689 247.774 31.389C246.614 32.089 245.294 32.439 243.814 32.439ZM239.404 22.839H247.834C247.754 21.819 247.334 20.979 246.574 20.319C245.834 19.639 244.834 19.299 243.574 19.299C242.534 19.299 241.634 19.619 240.874 20.259C240.134 20.899 239.644 21.759 239.404 22.839ZM264.694 27.879C264.694 29.159 264.134 30.239 263.014 31.119C261.894 31.999 260.484 32.439 258.784 32.439C257.304 32.439 256.004 32.059 254.884 31.299C253.764 30.519 252.964 29.499 252.484 28.239L254.944 27.189C255.304 28.069 255.824 28.759 256.504 29.259C257.204 29.739 257.964 29.979 258.784 29.979C259.664 29.979 260.394 29.789 260.974 29.409C261.574 29.029 261.874 28.579 261.874 28.059C261.874 27.119 261.154 26.429 259.714 25.989L257.194 25.359C254.334 24.639 252.904 23.259 252.904 21.219C252.904 19.879 253.444 18.809 254.524 18.009C255.624 17.189 257.024 16.779 258.724 16.779C260.024 16.779 261.194 17.089 262.234 17.709C263.294 18.329 264.034 19.159 264.454 20.199L261.994 21.219C261.714 20.599 261.254 20.119 260.614 19.779C259.994 19.419 259.294 19.239 258.514 19.239C257.794 19.239 257.144 19.419 256.564 19.779C256.004 20.139 255.724 20.579 255.724 21.099C255.724 21.939 256.514 22.539 258.094 22.899L260.314 23.469C263.234 24.189 264.694 25.659 264.694 27.879Z" fill="#4247C6"/>
</svg>
