<svg width="313" height="47" viewBox="0 0 313 47" fill="none" xmlns="http://www.w3.org/2000/svg">
<rect x="3.98801" y="4.56641" width="308.677" height="42.2521" rx="21.126" fill="#4247C6"/>
<rect x="1.66504" y="1.09082" width="306.677" height="40.2521" rx="20.126" fill="white" stroke="#4247C6" stroke-width="2"/>
<path d="M90.3975 26.229C90.3975 28.109 89.7075 29.619 88.3275 30.759C86.9275 31.879 85.2275 32.439 83.2275 32.439C81.4475 32.439 79.8775 31.919 78.5175 30.879C77.1575 29.839 76.2175 28.419 75.6975 26.619L78.3375 25.539C78.5175 26.179 78.7675 26.759 79.0875 27.279C79.4075 27.799 79.7775 28.249 80.1975 28.629C80.6375 28.989 81.1175 29.279 81.6375 29.499C82.1575 29.699 82.7075 29.799 83.2875 29.799C84.5475 29.799 85.5775 29.479 86.3775 28.839C87.1775 28.179 87.5775 27.309 87.5775 26.229C87.5775 25.329 87.2475 24.559 86.5875 23.919C85.9675 23.299 84.8075 22.699 83.1075 22.119C81.3875 21.499 80.3175 21.079 79.8975 20.859C77.6175 19.699 76.4775 17.989 76.4775 15.729C76.4775 14.149 77.1075 12.799 78.3675 11.679C79.6475 10.559 81.2175 9.99898 83.0775 9.99898C84.7175 9.99898 86.1375 10.419 87.3375 11.259C88.5375 12.079 89.3375 13.109 89.7375 14.349L87.1575 15.429C86.9175 14.629 86.4375 13.969 85.7175 13.449C85.0175 12.909 84.1575 12.639 83.1375 12.639C82.0575 12.639 81.1475 12.939 80.4075 13.539C79.6675 14.099 79.2975 14.829 79.2975 15.729C79.2975 16.469 79.5875 17.109 80.1675 17.649C80.8075 18.189 82.1975 18.829 84.3375 19.569C86.5175 20.309 88.0675 21.219 88.9875 22.299C89.9275 23.359 90.3975 24.669 90.3975 26.229ZM105.7 31.959H103.06V29.919H102.94C102.52 30.639 101.87 31.239 100.99 31.719C100.13 32.199 99.2301 32.439 98.2901 32.439C96.4901 32.439 95.1001 31.929 94.1201 30.909C93.1601 29.869 92.6801 28.399 92.6801 26.499V17.259H95.4401V26.319C95.5001 28.719 96.7101 29.919 99.0701 29.919C100.17 29.919 101.09 29.479 101.83 28.599C102.57 27.699 102.94 26.629 102.94 25.389V17.259H105.7V31.959ZM112.63 12.189C112.63 12.729 112.44 13.189 112.06 13.569C111.68 13.949 111.22 14.139 110.68 14.139C110.14 14.139 109.68 13.949 109.3 13.569C108.92 13.189 108.73 12.729 108.73 12.189C108.73 11.649 108.92 11.189 109.3 10.809C109.68 10.429 110.14 10.239 110.68 10.239C111.22 10.239 111.68 10.429 112.06 10.809C112.44 11.189 112.63 11.649 112.63 12.189ZM112.06 17.259V31.959H109.3V17.259H112.06ZM122.792 31.959H120.032L114.092 17.259H117.092L121.412 28.659H121.472L125.852 17.259H128.792L122.792 31.959ZM136.754 32.439C134.594 32.439 132.814 31.699 131.414 30.219C130.014 28.739 129.314 26.869 129.314 24.609C129.314 22.369 129.994 20.509 131.354 19.029C132.714 17.529 134.454 16.779 136.574 16.779C138.754 16.779 140.484 17.489 141.764 18.909C143.064 20.309 143.714 22.279 143.714 24.819L143.684 25.119H132.134C132.174 26.559 132.654 27.719 133.574 28.599C134.494 29.479 135.594 29.919 136.874 29.919C138.634 29.919 140.014 29.039 141.014 27.279L143.474 28.479C142.814 29.719 141.894 30.689 140.714 31.389C139.554 32.089 138.234 32.439 136.754 32.439ZM132.344 22.839H140.774C140.694 21.819 140.274 20.979 139.514 20.319C138.774 19.639 137.774 19.299 136.514 19.299C135.474 19.299 134.574 19.619 133.814 20.259C133.074 20.899 132.584 21.759 132.344 22.839ZM157.251 31.959H145.371V29.559L153.741 19.779H145.611V17.259H157.131V19.659L148.761 29.439H157.251V31.959ZM169.49 23.799H159.89V21.519H169.49V23.799ZM172.839 17.259H175.479V19.299H175.599C176.019 18.579 176.659 17.979 177.519 17.499C178.399 17.019 179.309 16.779 180.249 16.779C182.049 16.779 183.429 17.299 184.389 18.339C185.369 19.359 185.859 20.819 185.859 22.719V31.959H183.099V22.899C183.039 20.499 181.829 19.299 179.469 19.299C178.369 19.299 177.449 19.749 176.709 20.649C175.969 21.529 175.599 22.589 175.599 23.829V31.959H172.839V17.259ZM188.259 24.609C188.259 22.349 188.969 20.479 190.389 18.999C191.829 17.519 193.639 16.779 195.819 16.779C197.999 16.779 199.799 17.519 201.219 18.999C202.659 20.479 203.379 22.349 203.379 24.609C203.379 26.889 202.659 28.759 201.219 30.219C199.799 31.699 197.999 32.439 195.819 32.439C193.639 32.439 191.829 31.699 190.389 30.219C188.969 28.739 188.259 26.869 188.259 24.609ZM191.019 24.609C191.019 26.189 191.479 27.469 192.399 28.449C193.319 29.429 194.459 29.919 195.819 29.919C197.179 29.919 198.319 29.429 199.239 28.449C200.159 27.469 200.619 26.189 200.619 24.609C200.619 23.049 200.159 21.779 199.239 20.799C198.299 19.799 197.159 19.299 195.819 19.299C194.479 19.299 193.339 19.799 192.399 20.799C191.479 21.779 191.019 23.049 191.019 24.609ZM218.64 31.959H216V29.919H215.88C215.46 30.639 214.81 31.239 213.93 31.719C213.07 32.199 212.17 32.439 211.23 32.439C209.43 32.439 208.04 31.929 207.06 30.909C206.1 29.869 205.62 28.399 205.62 26.499V17.259H208.38V26.319C208.44 28.719 209.65 29.919 212.01 29.919C213.11 29.919 214.03 29.479 214.77 28.599C215.51 27.699 215.88 26.629 215.88 25.389V17.259H218.64V31.959ZM233.103 27.879C233.103 29.159 232.543 30.239 231.423 31.119C230.303 31.999 228.893 32.439 227.193 32.439C225.713 32.439 224.413 32.059 223.293 31.299C222.173 30.519 221.373 29.499 220.893 28.239L223.353 27.189C223.713 28.069 224.233 28.759 224.913 29.259C225.613 29.739 226.373 29.979 227.193 29.979C228.073 29.979 228.803 29.789 229.383 29.409C229.983 29.029 230.283 28.579 230.283 28.059C230.283 27.119 229.563 26.429 228.123 25.989L225.603 25.359C222.743 24.639 221.313 23.259 221.313 21.219C221.313 19.879 221.853 18.809 222.933 18.009C224.033 17.189 225.433 16.779 227.133 16.779C228.433 16.779 229.603 17.089 230.643 17.709C231.703 18.329 232.443 19.159 232.863 20.199L230.403 21.219C230.123 20.599 229.663 20.119 229.023 19.779C228.403 19.419 227.703 19.239 226.923 19.239C226.203 19.239 225.553 19.419 224.973 19.779C224.413 20.139 224.133 20.579 224.133 21.099C224.133 21.939 224.923 22.539 226.503 22.899L228.723 23.469C231.643 24.189 233.103 25.659 233.103 27.879Z" fill="#4247C6"/>
</svg>
