<svg width="135" height="135" viewBox="0 0 135 135" fill="none" xmlns="http://www.w3.org/2000/svg">
<g clip-path="url(#clip0_439_19)">
<path d="M67.5 135C104.779 135 135 104.779 135 67.5C135 30.2208 104.779 0 67.5 0C30.2208 0 0 30.2208 0 67.5C0 104.779 30.2208 135 67.5 135Z" fill="#4247C6"/>
<path d="M105.3 45.1999C105.3 44.7999 105.3 44.7999 104.9 44.7999C103.9 44.7999 102.9 44.6999 102 44.4999C98.4001 43.9999 87.0001 37.9999 85.0001 28.1999C85.0001 27.9999 84.5001 25.5999 84.5001 24.4999C84.5001 23.9999 84.5001 23.9999 84.0001 23.9999C83.9001 23.9999 83.8001 23.9999 83.7001 23.9999C79.2001 23.9999 74.7001 23.9999 70.3001 23.9999C69.4001 23.9999 69.5001 23.8999 69.5001 24.7999C69.5001 44.1999 69.5001 63.6999 69.5001 83.0999C69.5001 83.7999 69.5001 84.4999 69.4001 85.2999C68.7001 89.0999 66.8001 91.9999 63.5001 93.9999C60.7001 95.6999 57.6001 96.1999 54.4001 95.5999C53.4001 95.3999 52.4001 94.9999 51.4001 94.5999C51.3001 94.4999 51.2001 94.4999 51.2001 94.3999C50.9001 94.0999 50.5001 93.8999 50.2001 93.6999C46.0001 90.7999 44.1001 86.7999 44.7001 81.7999C45.3001 76.6999 48.2001 73.2999 53.0001 71.4999C54.4001 70.9999 55.9001 70.7999 57.5001 70.7999C58.5001 70.8999 59.5001 70.9999 60.4001 71.1999C60.7001 71.2999 60.9001 71.1999 60.9001 70.7999C60.9001 70.6999 60.9001 70.5999 60.9001 70.3999C60.9001 66.8999 60.8001 59.2999 60.8001 59.2999C60.8001 58.2999 60.8001 57.2999 60.8001 56.2999C60.8001 55.9999 60.7001 55.9999 60.4001 55.8999C58.6001 55.6999 56.8001 55.5999 55.0001 55.7999C52.5001 55.9999 50.1001 56.4999 47.7001 57.3999C43.9001 58.7999 40.6001 60.8999 37.7001 63.6999C35.2001 66.0999 33.3001 68.8999 31.9001 71.9999C30.5001 74.9999 29.8001 78.1999 29.6001 81.3999C29.5001 82.7999 29.5001 84.2999 29.7001 85.6999C29.9001 87.6999 30.3001 89.5999 30.9001 91.4999C32.6001 96.8999 35.8001 101.4 40.2001 104.9C40.7001 105.3 41.1001 105.7 41.6001 105.9C41.8001 106.1 42.1001 106.3 42.3001 106.5C43.0001 107 43.8001 107.5 44.6001 107.9C49.6001 110.4 54.8001 111.4 60.4001 110.7C67.6001 109.8 73.6001 106.6 78.3001 101.2C82.7001 95.9999 84.9001 89.9999 84.9001 83.1999C85.0001 73.4999 84.9001 63.7999 84.9001 54.1999C84.9001 53.9999 84.8001 53.5999 85.0001 53.4999C85.2001 53.3999 85.4001 53.6999 85.6001 53.7999C89.2001 56.1999 93.1001 57.8999 97.3001 58.7999C99.7001 59.3999 102.2 59.6999 104.7 59.6999C105.5 59.6999 105.6 59.6999 105.6 58.8999C105.5 55.4999 105.3 46.0999 105.3 45.1999Z" fill="white"/>
</g>
<defs>
<clipPath id="clip0_439_19">
<rect width="135" height="135" fill="white"/>
</clipPath>
</defs>
</svg>
