<svg width="135" height="135" viewBox="0 0 135 135" fill="none" xmlns="http://www.w3.org/2000/svg">
<g clip-path="url(#clip0_439_13)">
<path d="M67.5 135C104.779 135 135 104.779 135 67.5C135 30.2208 104.779 0 67.5 0C30.2208 0 0 30.2208 0 67.5C0 104.779 30.2208 135 67.5 135Z" fill="#4247C6"/>
<path d="M53.8999 106.4C86.8999 106.4 104.9 79.0999 104.9 55.3999C104.9 54.5999 104.9 53.8999 104.8 53.0999C108.3 50.5999 111.3 47.3999 113.7 43.7999C110.5 45.1999 107 46.1999 103.4 46.5999C107.1 44.3999 109.9 40.8999 111.3 36.6999C107.8 38.7999 104 40.1999 99.8999 41.0999C96.5999 37.5999 91.9999 35.3999 86.7999 35.3999C76.8999 35.3999 68.8999 43.3999 68.8999 53.2999C68.8999 54.6999 69.0999 56.0999 69.3999 57.3999C54.4999 56.6999 41.2999 49.4999 32.4999 38.6999C30.9999 41.2999 30.0999 44.3999 30.0999 47.6999C30.0999 53.8999 33.2999 59.3999 38.0999 62.5999C35.1999 62.4999 32.3999 61.6999 29.9999 60.3999C29.9999 60.4999 29.9999 60.4999 29.9999 60.5999C29.9999 69.2999 36.1999 76.4999 44.3999 78.1999C42.8999 78.5999 41.2999 78.7999 39.6999 78.7999C38.4999 78.7999 37.3999 78.6999 36.2999 78.4999C38.5999 85.5999 45.1999 90.7999 52.9999 90.8999C46.8999 95.6999 39.0999 98.5999 30.6999 98.5999C29.2999 98.5999 27.7999 98.4999 26.3999 98.3999C34.2999 103.4 43.6999 106.4 53.8999 106.4Z" fill="white"/>
</g>
<defs>
<clipPath id="clip0_439_13">
<rect width="135" height="135" fill="white"/>
</clipPath>
</defs>
</svg>
