<svg width="21" height="20" viewBox="0 0 21 20" fill="none" xmlns="http://www.w3.org/2000/svg">
<path d="M10.7202 0C12.0463 0 13.3181 0.526784 14.2557 1.46447C15.1934 2.40215 15.7202 3.67392 15.7202 5C15.7202 6.32608 15.1934 7.59785 14.2557 8.53553C13.3181 9.47322 12.0463 10 10.7202 10C9.39413 10 8.12236 9.47322 7.18468 8.53553C6.247 7.59785 5.72021 6.32608 5.72021 5C5.72021 3.67392 6.247 2.40215 7.18468 1.46447C8.12236 0.526784 9.39413 0 10.7202 0ZM10.7202 12.5C16.2452 12.5 20.7202 14.7375 20.7202 17.5V20H0.720215V17.5C0.720215 14.7375 5.19521 12.5 10.7202 12.5Z" fill="#4247C6"/>
</svg>
